M48
;Layer_Color=9474304
;FILE_FORMAT=2:5
INCH
;TYPE=PLATED
T1F00S00C0.01181
T2F00S00C0.01500
T3F00S00C0.03937
T4F00S00C0.04134
T5F00S00C0.04200
T6F00S00C0.04331
T7F00S00C0.06102
;TYPE=NON_PLATED
T8F00S00C0.12598
%
T01
X0798000Y0812000
X0805000
X0801500Y0819000
X0805000Y0826000
X0812000
X0815500Y0833000
X0822500
X0829500
X0833000Y0826000
X0840000
X0847000
X0843500Y0819000
X0871500
X0878500
X0885500
X0889000Y0826000
X0882000
Y0840000
X0885500Y0847000
X0882000Y0854000
X0885500Y0861000
Y0889000
X0889000Y0896000
X0885500Y0903000
X0889000Y0910000
X0868000
X0847000
X0836500Y0903000
X0843504Y0865866
X0843500Y0861000
X0849213Y0865374
X0857500Y0861000
X0861000Y0854000
X0854000
Y0840000
X0826000
X0819000
X0829500Y0847000
X0787500
X0791000Y0868000
X0756000
Y0882000
Y0896000
X0759500Y0903000
X0763000Y0910000
X0756000
X0769882Y0906909
X0770000Y0896000
X0766500Y0889000
X0756000Y0854000
Y0840000
Y0826000
Y0812000
T02
X0863681Y0336634
X0881841Y0340571
X0882579Y0353169
X0878642Y0350807
X0873917Y0350413
X0872883Y0359163
X0875964Y0359408
X0876608Y0371426
Y0374516
Y0377607
Y0380697
Y0383788
Y0386878
Y0389969
Y0393059
Y0396150
Y0399241
Y0402331
Y0405422
Y0408512
Y0411603
Y0414693
Y0417784
Y0420874
Y0423965
Y0427056
Y0430146
Y0433237
Y0436327
Y0439418
Y0442508
Y0445599
Y0448689
Y0451780
Y0454871
Y0457961
Y0461052
Y0464142
Y0467233
X0868175Y0466338
Y0463248
Y0460157
Y0457067
Y0453976
Y0450885
Y0447795
Y0444704
Y0441614
Y0438523
Y0435433
Y0432342
Y0429252
Y0426161
Y0423071
Y0419980
Y0416889
Y0413799
Y0410708
Y0407618
Y0404527
Y0401437
Y0398346
Y0395256
Y0392165
Y0389074
Y0385984
Y0382893
Y0379803
Y0376712
Y0373622
X0887072Y0375134
Y0372043
Y0378225
Y0381315
Y0384406
Y0387496
Y0390587
Y0393677
Y0396768
Y0399858
Y0402949
Y0406039
Y0409130
Y0412221
Y0415311
Y0418402
Y0421492
Y0424583
Y0427673
Y0430764
Y0433854
Y0436945
Y0440036
Y0443126
Y0446217
Y0449307
Y0452398
Y0455488
Y0458579
Y0461669
Y0464760
Y0467850
X0895506Y0468665
Y0465575
Y0462484
Y0459394
Y0456303
Y0453213
Y0450122
Y0447032
Y0443941
Y0440850
Y0437760
Y0434669
Y0431579
Y0428488
Y0425398
Y0422307
Y0419217
Y0416126
Y0413035
Y0409945
Y0406854
Y0403764
Y0400673
Y0397583
Y0394492
Y0391402
Y0388311
Y0385221
Y0382130
Y0379040
Y0375949
Y0372858
X0893210Y0359143
X0890119
X0856201Y0386240
X0868175Y0469429
Y0472519
Y0475610
Y0478700
Y0481791
Y0484882
Y0487972
Y0491063
Y0494153
Y0497244
Y0500334
Y0503425
Y0506515
Y0509606
Y0512697
Y0515787
Y0518878
Y0521968
Y0525059
Y0528149
Y0531240
Y0534330
Y0537421
Y0540512
Y0543602
Y0546693
Y0549783
Y0552874
Y0555964
Y0559055
Y0562145
Y0565236
Y0568327
Y0571417
Y0574508
Y0577598
Y0580689
Y0583779
Y0586870
Y0589960
Y0593051
Y0596141
Y0599232
Y0602322
Y0605413
Y0608504
Y0611594
Y0614685
Y0617775
X0868081Y0620864
X0867055Y0623780
X0875836Y0624778
X0876493Y0621758
X0876608Y0618670
Y0615579
Y0612489
Y0609398
Y0606307
Y0603217
Y0600126
Y0597036
Y0593945
Y0590855
Y0587764
Y0584674
Y0581583
Y0578492
Y0575402
Y0572311
Y0569221
Y0566130
Y0563040
Y0559949
Y0556859
Y0553768
Y0550677
Y0547587
Y0544496
Y0541406
Y0538315
Y0535225
Y0532134
Y0529044
Y0525953
Y0522863
Y0519772
Y0516681
Y0513591
Y0510500
Y0507410
Y0504319
Y0501229
Y0498138
Y0495048
Y0491957
Y0488867
Y0485776
Y0482685
Y0479595
Y0476504
Y0473414
Y0470323
X0887072Y0470941
Y0474032
Y0477122
Y0480213
Y0483303
Y0486394
Y0489484
Y0492575
Y0495666
Y0498756
Y0501847
Y0504937
Y0508028
Y0511118
Y0514209
Y0517299
Y0520390
Y0523480
Y0526571
Y0529662
Y0532752
Y0535843
Y0538933
Y0542024
Y0545114
Y0548205
Y0551295
Y0554386
Y0557477
Y0560567
Y0563658
Y0566748
Y0569839
Y0572929
Y0576020
Y0579110
Y0582201
Y0585291
Y0588382
Y0591472
Y0594563
Y0597654
Y0600744
Y0603835
Y0606925
Y0610016
Y0613106
Y0616197
Y0619287
X0886951Y0622376
X0895506Y0623193
Y0620102
Y0617012
Y0613921
Y0610831
Y0607740
Y0604650
Y0601559
Y0598468
Y0595378
Y0592287
Y0589197
Y0586106
Y0583016
Y0579925
Y0576835
Y0573744
Y0570654
Y0567563
Y0564472
Y0561382
Y0558291
Y0555201
Y0552110
Y0549020
Y0545929
Y0542839
Y0539748
Y0536657
Y0533567
Y0530477
Y0527386
Y0524295
Y0521205
Y0518114
Y0515024
Y0511933
Y0508843
Y0505752
Y0502662
Y0499571
Y0496480
Y0493390
Y0490299
Y0487209
Y0484118
Y0481028
Y0477937
Y0474847
Y0471756
X0779807Y0711348
X0777706Y0713614
X0776038Y0716217
X0774908Y0719093
X0774368Y0722136
X0774297Y0725226
Y0728316
Y0731407
Y0734497
Y0737588
Y0740678
Y0743769
Y0746860
Y0749950
Y0753041
Y0756131
Y0759222
Y0762312
Y0765403
Y0768493
Y0771584
Y0774674
Y0777765
Y0780856
X0782730Y0778667
Y0775577
Y0772486
Y0769395
Y0766305
Y0763214
Y0760124
Y0757033
Y0753943
Y0750852
Y0747762
Y0744671
Y0741580
Y0738490
Y0735399
Y0732309
Y0729218
X0785318Y0729544
X0786559Y0726713
X0788332Y0724182
X0790467Y0721948
X0792653Y0719763
X0794838Y0717577
X0797023Y0715392
X0799209Y0713207
X0801394Y0711021
X0803579Y0708836
X0805765Y0706651
X0807950Y0704465
X0810135Y0702280
X0812321Y0700095
X0814506Y0697909
X0816692Y0695724
X0818877Y0693539
X0821062Y0691353
X0823248Y0689168
X0825433Y0686982
X0827618Y0684797
X0829804Y0682612
X0831989Y0680427
X0834174Y0678241
X0836360Y0676056
X0838545Y0673870
X0840730Y0671685
X0842916Y0669500
X0845101Y0667314
X0847286Y0665129
X0849472Y0662944
X0851657Y0660758
X0853843Y0658573
X0856028Y0656388
X0858213Y0654202
X0860398Y0652017
X0862584Y0649832
X0864769Y0647646
X0866955Y0645461
X0869140Y0643275
X0871325Y0641090
X0873511Y0638905
X0875696Y0636720
X0877881Y0634534
X0880067Y0632349
X0882252Y0630163
X0884394Y0627935
X0886067Y0625337
X0895247Y0626273
X0894207Y0629183
X0892504Y0631762
X0890357Y0633985
X0888172Y0636170
X0885987Y0638356
X0883801Y0640541
X0881616Y0642727
X0879430Y0644912
X0877245Y0647097
X0875060Y0649283
X0872875Y0651468
X0870689Y0653653
X0868504Y0655839
X0866318Y0658024
X0864133Y0660209
X0861948Y0662395
X0859762Y0664580
X0857577Y0666765
X0855392Y0668951
X0853206Y0671136
X0851021Y0673321
X0848836Y0675507
X0846650Y0677692
X0844465Y0679877
X0842280Y0682063
X0840094Y0684248
X0837909Y0686434
X0835723Y0688619
X0833538Y0690804
X0831353Y0692989
X0829167Y0695175
X0826982Y0697360
X0824797Y0699546
X0822611Y0701731
X0820426Y0703916
X0818241Y0706102
X0816055Y0708287
X0813870Y0710472
X0811685Y0712658
X0809499Y0714843
X0807314Y0717028
X0805129Y0719214
X0802943Y0721399
X0800758Y0723584
X0798573Y0725770
X0796387Y0727955
X0794296Y0730231
X0793101Y0733081
X0792967Y0736168
Y0739259
Y0742350
Y0745440
Y0748531
Y0751621
Y0754712
Y0757802
Y0760893
Y0763983
Y0767074
Y0770165
Y0773255
Y0776346
Y0779436
X0782730Y0726128
X0782768Y0723037
X0783582Y0720056
X0785472Y0717611
X0787657Y0715425
X0789843Y0713240
X0792028Y0711055
X0794213Y0708869
X0796399Y0706684
X0798584Y0704499
X0800769Y0702313
X0802955Y0700128
X0805140Y0697943
X0807325Y0695757
X0809511Y0693572
X0811696Y0691387
X0813881Y0689201
X0816067Y0687016
X0818252Y0684831
X0820437Y0682645
X0822623Y0680460
X0824808Y0678274
X0826993Y0676089
X0829179Y0673904
X0831364Y0671718
X0833549Y0669533
X0835735Y0667348
X0837920Y0665162
X0840106Y0662977
X0842291Y0660792
X0844476Y0658606
X0846662Y0656421
X0848847Y0654236
X0851032Y0652050
X0853218Y0649865
X0855403Y0647680
X0857588Y0645494
X0859774Y0643309
X0861959Y0641123
X0864144Y0638938
X0866330Y0636753
X0868515Y0634567
X0870700Y0632382
X0872834Y0630146
X0874602Y0627611
X0865036Y0626120
X0862851Y0628305
X0860665Y0630490
X0858480Y0632676
X0856295Y0634861
X0854109Y0637046
X0851924Y0639232
X0849739Y0641417
X0847553Y0643602
X0845368Y0645788
X0843182Y0647973
X0840997Y0650159
X0838812Y0652344
X0836626Y0654529
X0834441Y0656714
X0832256Y0658900
X0830070Y0661085
X0827885Y0663271
X0825700Y0665456
X0823514Y0667641
X0821329Y0669827
X0819144Y0672012
X0816958Y0674197
X0814773Y0676383
X0812588Y0678568
X0810402Y0680753
X0808217Y0682939
X0806032Y0685124
X0803846Y0687309
X0801661Y0689495
X0799475Y0691680
X0797290Y0693865
X0795105Y0696051
X0792919Y0698236
X0790734Y0700421
X0788549Y0702607
X0786363Y0704792
X0784178Y0706978
X0781993Y0709163
X0782730Y0781758
Y0784848
Y0787939
Y0791029
Y0794120
Y0797210
Y0800301
Y0803391
Y0806482
Y0809573
Y0812663
Y0815754
Y0818844
Y0821935
Y0825025
Y0828116
Y0831207
Y0834297
X0785465Y0834425
X0787273Y0836932
X0789817Y0838686
X0792808Y0839462
X0795898Y0839514
X0798989
X0798233Y0831080
X0795142
X0792967Y0822704
Y0819613
Y0816523
Y0813432
Y0810342
Y0807251
Y0804161
Y0801070
Y0797979
Y0794889
Y0791798
Y0788708
Y0785617
Y0782527
X0782730Y0837388
Y0840478
Y0843569
Y0846659
X0782788Y0849749
X0785871Y0849978
X0788961
X0792052
X0795142
X0798233
X0796398Y0858411
X0793307
X0790217
X0787126
X0784036
X0811122Y0856126
Y0853035
X0811122Y0837228
Y0834138
X0785335Y0887815
X0773524Y0902480
X0775921Y0854723
X0774615Y0851922
X0774297Y0848848
Y0845757
Y0842667
Y0839576
Y0836485
Y0833395
Y0830304
Y0827214
Y0824123
Y0821033
Y0817942
Y0814852
Y0811761
Y0808671
Y0805580
Y0802489
Y0799399
Y0796308
Y0793218
Y0790127
Y0787037
Y0783946
X0778138Y0856876
X0780957Y0858144
T03
X0782421Y0896712
Y0906713
X0792421
X0802421
X0812421
X0822421
X0832421
X0842421
X0852421
X0862421
X0872421
X0882421
Y0896712
X0872421
X0862421
X0852421
X0842421
X0832421
X0822421
X0812421
X0802421
X0792421
T04
X0814481Y0817383
X0824281
X0834081
X0852581
X0863681
Y0839783
Y0860983
X0853824Y0873483
X0843981
X0834081
X0814481
X0804581
X0883381
T05
X0796281Y0826483
Y0845381
Y0864283
T06
X0845177Y0356319
Y0366319
X0913878Y0354547
Y0344547
T07
X0863632Y0349035
X0901525Y0349232
X0821033Y0826635
X0820836Y0864529
T08
X0845177Y0333484
M30
