M48
;Layer_Color=9474304
;FILE_FORMAT=2:5
INCH
;TYPE=PLATED
T1F00S00C0.01181
T2F00S00C0.01500
T3F00S00C0.03937
T4F00S00C0.04134
T5F00S00C0.04200
T6F00S00C0.04331
T7F00S00C0.06102
;TYPE=NON_PLATED
T8F00S00C0.12598
%
T01
X0872067Y0359266
X0875429Y0359308
X0888667Y0359226
X0892029Y0359213
X0895338Y0359809
X0895550Y0373149
Y0376511
Y0379873
Y0383235
Y0386597
Y0389960
Y0393322
Y0396684
Y0400046
Y0403408
Y0406771
Y0410133
Y0413495
Y0416857
Y0420219
Y0423582
Y0426944
Y0430306
Y0433668
Y0437030
Y0440393
Y0443755
Y0447117
Y0450479
Y0453841
Y0457204
Y0460566
Y0463928
Y0467290
X0887029Y0465989
Y0462627
Y0459265
Y0455903
Y0452540
Y0449178
Y0445816
Y0442454
Y0439092
Y0435730
Y0432367
Y0429005
Y0425643
Y0422281
Y0418919
Y0415556
Y0412194
Y0408832
Y0405470
Y0402107
Y0398745
Y0395383
Y0392021
Y0388659
Y0385297
Y0381934
Y0378572
Y0375210
Y0371848
X0876652Y0372228
Y0375590
Y0378952
Y0382314
Y0385677
Y0389039
Y0392401
Y0395763
Y0399125
Y0402488
Y0405850
Y0409212
Y0412574
Y0415936
Y0419299
Y0422661
Y0426023
Y0429385
Y0432747
Y0436110
Y0439472
Y0442834
Y0446196
Y0449558
Y0452921
Y0456283
Y0459645
Y0463007
Y0466369
X0868131Y0466924
Y0463562
Y0460200
Y0456838
Y0453476
Y0450113
Y0446751
Y0443389
Y0440027
Y0436664
Y0433302
Y0429940
Y0426578
Y0423216
Y0419853
Y0416491
Y0413129
Y0409767
Y0406405
Y0403043
Y0399680
Y0396318
Y0392956
Y0389594
Y0386231
Y0382869
Y0379507
Y0376145
Y0372783
Y0470287
Y0473649
Y0477011
Y0480373
Y0483735
Y0487098
Y0490460
Y0493822
Y0497184
Y0500546
Y0503908
Y0507271
Y0510633
Y0513995
Y0517357
Y0520719
Y0524082
Y0527444
Y0530806
Y0534168
Y0537531
Y0540893
Y0544255
Y0547617
Y0550979
Y0554342
Y0557704
Y0561066
Y0564428
Y0567790
Y0571152
Y0574515
Y0577877
Y0581239
Y0584601
Y0587963
Y0591326
Y0594688
Y0598050
Y0601412
Y0604775
Y0608137
Y0611499
Y0614861
Y0618223
X0867768Y0621566
X0866094Y0624481
X0875861Y0624320
X0876550Y0621029
X0876652Y0617668
Y0614306
Y0610944
Y0607582
Y0604220
Y0600857
Y0597495
Y0594133
Y0590771
Y0587409
Y0584046
Y0580684
Y0577322
Y0573960
Y0570598
Y0567235
Y0563873
Y0560511
Y0557149
Y0553787
Y0550424
Y0547062
Y0543700
Y0540338
Y0536976
Y0533613
Y0530251
Y0526889
Y0523527
Y0520165
Y0516802
Y0513440
Y0510078
Y0506716
Y0503354
Y0499991
Y0496629
Y0493267
Y0489905
Y0486543
Y0483180
Y0479818
Y0476456
Y0473094
Y0469732
X0887029Y0469351
Y0472714
Y0476076
Y0479438
Y0482800
Y0486163
Y0489525
Y0492887
Y0496249
Y0499611
Y0502974
Y0506336
Y0509698
Y0513060
Y0516422
Y0519784
Y0523147
Y0526509
Y0529871
Y0533233
Y0536595
Y0539958
Y0543320
Y0546682
Y0550044
Y0553406
Y0556769
Y0560131
Y0563493
Y0566855
Y0570218
Y0573580
Y0576942
Y0580304
Y0583666
Y0587029
Y0590391
Y0593753
Y0597115
Y0600477
Y0603839
Y0607202
Y0610564
Y0613926
Y0617288
Y0620650
X0886931Y0624011
X0895550Y0621951
Y0618589
Y0615227
Y0611865
Y0608503
Y0605140
Y0601778
Y0598416
Y0595054
Y0591692
Y0588329
Y0584967
Y0581605
Y0578243
Y0574881
Y0571518
Y0568156
Y0564794
Y0561432
Y0558070
Y0554707
Y0551345
Y0547983
Y0544621
Y0541259
Y0537896
Y0534534
Y0531172
Y0527810
Y0524448
Y0521085
Y0517723
Y0514361
Y0510999
Y0507637
Y0504274
Y0500912
Y0497550
Y0494188
Y0490826
Y0487463
Y0484101
Y0480739
Y0477377
Y0474015
Y0470652
X0780519Y0710082
X0778136Y0712453
X0776026Y0715071
X0774492Y0718063
X0773599Y0721305
X0773396Y0724661
Y0728023
Y0731385
Y0734747
Y0738109
Y0741472
Y0744834
Y0748196
Y0751558
Y0754920
Y0758283
Y0761645
Y0765007
Y0768369
Y0771731
Y0775094
Y0778456
X0781917Y0777896
Y0774534
Y0771172
Y0767810
Y0764447
Y0761085
Y0757723
Y0754361
Y0750999
Y0747637
Y0744274
Y0740912
Y0737550
Y0734188
Y0730826
Y0727463
Y0724101
X0782571Y0720803
X0784559Y0718092
X0786937Y0715715
X0789314Y0713337
X0791692Y0710960
X0794069Y0708582
X0796447Y0706205
X0798824Y0703827
X0801202Y0701450
X0803579Y0699073
X0805956Y0696695
X0808334Y0694318
X0810711Y0691940
X0813089Y0689563
X0815466Y0687185
X0817844Y0684808
X0820221Y0682430
X0822598Y0680053
X0824976Y0677676
X0827353Y0675298
X0829731Y0672921
X0832108Y0670543
X0834486Y0668166
X0836863Y0665788
X0839240Y0663411
X0841618Y0661033
X0843995Y0658656
X0846373Y0656279
X0848750Y0653901
X0851128Y0651524
X0853505Y0649146
X0855883Y0646769
X0858260Y0644391
X0860637Y0642014
X0863015Y0639637
X0865392Y0637259
X0867770Y0634882
X0870147Y0632504
X0872501Y0630103
X0874480Y0627386
X0863729Y0626872
X0861352Y0629249
X0858975Y0631627
X0856597Y0634004
X0854220Y0636381
X0851842Y0638759
X0849465Y0641136
X0847087Y0643514
X0844710Y0645891
X0842332Y0648269
X0839955Y0650646
X0837578Y0653023
X0835200Y0655401
X0832823Y0657778
X0830445Y0660156
X0828068Y0662533
X0825690Y0664911
X0823313Y0667288
X0820936Y0669666
X0818558Y0672043
X0816181Y0674420
X0813803Y0676798
X0811426Y0679175
X0809048Y0681553
X0806671Y0683930
X0804294Y0686308
X0801916Y0688685
X0799539Y0691062
X0797161Y0693440
X0794784Y0695817
X0792406Y0698195
X0790029Y0700572
X0787651Y0702950
X0785274Y0705327
X0782897Y0707704
X0789126Y0725195
X0791504Y0722818
X0793881Y0720440
X0796259Y0718063
X0798636Y0715686
X0801013Y0713308
X0803391Y0710931
X0805768Y0708553
X0808146Y0706176
X0810523Y0703798
X0812901Y0701421
X0815278Y0699044
X0817656Y0696666
X0820033Y0694289
X0822410Y0691911
X0824788Y0689534
X0827165Y0687156
X0829543Y0684779
X0831920Y0682402
X0834298Y0680024
X0836675Y0677647
X0839052Y0675269
X0841430Y0672892
X0843807Y0670514
X0846185Y0668137
X0848562Y0665759
X0850940Y0663382
X0853317Y0661005
X0855694Y0658627
X0858072Y0656250
X0860449Y0653872
X0862827Y0651495
X0865204Y0649117
X0867582Y0646740
X0869959Y0644362
X0872337Y0641985
X0874714Y0639608
X0877091Y0637230
X0879469Y0634853
X0881846Y0632475
X0884192Y0630067
X0886028Y0627250
X0895179Y0628655
X0895550Y0625314
X0893925Y0631775
X0891927Y0634479
X0889533Y0636839
X0887155Y0639217
X0884778Y0641594
X0882400Y0643972
X0880023Y0646349
X0877645Y0648727
X0875268Y0651104
X0872891Y0653481
X0870513Y0655859
X0868136Y0658236
X0865758Y0660614
X0863381Y0662991
X0861003Y0665369
X0858626Y0667746
X0856248Y0670123
X0853871Y0672501
X0851494Y0674878
X0849116Y0677256
X0846739Y0679633
X0844361Y0682011
X0841984Y0684388
X0839606Y0686765
X0837229Y0689143
X0834852Y0691520
X0832474Y0693898
X0830097Y0696275
X0827719Y0698653
X0825342Y0701030
X0822964Y0703407
X0820587Y0705785
X0818210Y0708162
X0815832Y0710540
X0813455Y0712917
X0811077Y0715295
X0808700Y0717672
X0806322Y0720049
X0803945Y0722427
X0801567Y0724804
X0799190Y0727182
X0796813Y0729559
X0794435Y0731937
X0792155Y0734408
X0790971Y0737554
X0790873Y0740915
Y0744277
Y0747640
Y0751002
Y0754364
Y0757726
Y0761088
Y0764451
Y0767813
Y0771175
Y0774537
Y0777899
X0784724Y0730257
X0786752Y0727575
X0790873Y0781262
Y0784624
Y0787986
Y0791348
Y0794710
Y0798073
Y0801435
Y0804797
Y0808159
Y0811521
Y0814884
Y0818246
Y0821608
Y0824970
Y0828332
X0792571Y0831235
X0795933
X0799295
X0797543Y0839359
X0794181
X0790819
X0787520Y0838710
X0784729Y0836835
X0781917Y0838416
Y0835054
Y0831691
Y0828329
Y0824967
Y0821605
Y0818243
Y0814880
Y0811518
Y0808156
Y0804794
Y0801432
Y0798069
Y0794707
Y0791345
Y0787983
Y0784621
Y0781258
X0798000Y0812000
X0805000
X0801500Y0819000
X0805000Y0826000
X0812000
X0811052Y0833479
Y0836841
X0815500Y0833000
X0822500
X0829500
X0826000Y0840000
X0819000
X0829500Y0847000
X0811052Y0852377
Y0855739
X0796331Y0858455
X0792969
X0789607
X0786244
X0782902Y0858092
X0782814Y0848381
X0781917Y0845140
Y0841778
X0787500Y0847000
X0785809Y0849908
X0789171Y0849934
X0792533
X0795895
X0799258
X0791000Y0868000
X0843504Y0865866
X0843500Y0861000
X0849213Y0865374
X0857500Y0861000
X0854000Y0854000
X0861000
X0854000Y0840000
X0847000Y0826000
X0840000
X0833000
X0843500Y0819000
X0871500
X0878500
X0885500
X0882000Y0826000
X0889000
X0882000Y0840000
X0885500Y0847000
X0882000Y0854000
X0885500Y0861000
Y0889000
X0889000Y0896000
X0885500Y0903000
X0889000Y0910000
X0868000
X0847000
X0836500Y0903000
X0769882Y0906909
X0763000Y0910000
X0756000
X0759500Y0903000
X0756000Y0896000
Y0882000
Y0868000
Y0854000
Y0840000
Y0826000
Y0812000
X0773396Y0812078
Y0815440
Y0818802
Y0822164
Y0825527
Y0828889
Y0832251
Y0835613
Y0838975
Y0842338
Y0845700
X0773786Y0849039
X0775053Y0852154
X0777085Y0854832
X0779781Y0856842
X0766500Y0889000
X0770000Y0896000
X0773396Y0808716
Y0805353
Y0801991
Y0798629
Y0795267
Y0791905
Y0788542
Y0785180
Y0781818
T02
X0863681Y0336634
X0881841Y0340571
X0882579Y0353169
X0878642Y0350807
X0873917Y0350413
X0856201Y0386240
X0785335Y0887815
X0773524Y0902480
T03
X0782421Y0896712
X0792421
X0802421
X0812421
X0822421
X0832421
X0842421
X0852421
X0862421
X0872421
Y0906713
X0862421
X0852421
X0842421
X0832421
X0822421
X0812421
X0802421
X0792421
X0782421
X0882421
Y0896712
T04
X0814481Y0817383
X0824281
X0834081
X0852581
X0863681
Y0839783
Y0860983
X0853824Y0873483
X0843981
X0834081
X0814481
X0804581
X0883381
T05
X0796281Y0826483
Y0845381
Y0864283
T06
X0845177Y0356319
Y0366319
X0913878Y0354547
Y0344547
T07
X0863632Y0349035
X0901525Y0349232
X0821033Y0826635
X0820836Y0864529
T08
X0845177Y0333484
M30
