M48
;Layer_Color=9474304
;FILE_FORMAT=2:5
INCH
;TYPE=PLATED
T1F00S00C0.01181
T2F00S00C0.01500
T3F00S00C0.03937
T4F00S00C0.04134
T5F00S00C0.04200
T6F00S00C0.04331
T7F00S00C0.06102
;TYPE=NON_PLATED
T8F00S00C0.12598
%
T01
X0871195Y0359213
X0874148
X0887248Y0359799
X0890141Y0359209
X0893094
X0895549Y0372161
Y0375114
Y0378066
Y0381019
Y0383972
Y0386925
Y0389878
Y0392830
Y0395783
Y0398736
Y0401688
Y0404641
Y0407594
Y0410547
Y0413499
Y0416452
Y0419405
Y0422358
Y0425311
Y0428263
Y0431216
Y0434169
Y0437121
Y0440074
Y0443027
Y0445980
Y0448933
Y0451885
Y0454838
Y0457791
Y0460744
Y0463696
Y0466649
X0887030Y0465955
Y0463002
Y0460049
Y0457097
Y0454144
Y0451191
Y0448239
Y0445286
Y0442333
Y0439380
Y0436427
Y0433475
Y0430522
Y0427569
Y0424616
Y0421664
Y0418711
Y0415758
Y0412806
Y0409853
Y0406900
Y0403947
Y0400994
Y0398042
Y0395089
Y0392136
Y0389183
Y0386231
Y0383278
Y0380325
Y0377373
Y0374420
Y0371467
X0876647Y0372120
Y0375073
Y0378026
Y0380978
Y0383931
Y0386884
Y0389837
Y0392790
Y0395742
Y0398695
Y0401648
Y0404600
Y0407553
Y0410506
Y0413459
Y0416411
Y0419364
Y0422317
Y0425270
Y0428223
Y0431175
Y0434128
Y0437081
Y0440033
Y0442986
Y0445939
Y0448892
Y0451845
Y0454797
Y0457750
Y0460703
Y0463656
Y0466608
X0868136Y0466000
Y0463047
Y0460094
Y0457142
Y0454189
Y0451236
Y0448283
Y0445331
Y0442378
Y0439425
Y0436473
Y0433520
Y0430567
Y0427614
Y0424661
Y0421709
Y0418756
Y0415803
Y0412851
Y0409898
Y0406945
Y0403992
Y0401039
Y0398087
Y0395134
Y0392181
Y0389229
Y0386276
Y0383323
Y0380370
Y0377417
Y0374465
Y0371512
Y0468953
Y0471906
Y0474858
Y0477811
Y0480764
Y0483716
Y0486669
Y0489622
Y0492575
Y0495528
Y0498480
Y0501433
Y0504386
Y0507338
Y0510291
Y0513244
Y0516197
Y0519149
Y0522102
Y0525055
Y0528008
Y0530961
Y0533913
Y0536866
Y0539819
Y0542771
Y0545724
Y0548677
Y0551630
Y0554582
Y0557535
Y0560488
Y0563441
Y0566394
Y0569346
Y0572299
Y0575252
Y0578204
Y0581157
Y0584110
Y0587063
Y0590015
Y0592968
Y0595921
Y0598874
Y0601826
Y0604779
Y0607732
Y0610685
Y0613637
Y0616590
X0867897Y0619533
X0866631Y0622201
X0864614Y0624357
X0875755Y0623011
X0876468Y0620146
X0876647Y0617199
Y0614246
Y0611293
Y0608340
Y0605387
Y0602435
Y0599482
Y0596529
Y0593576
Y0590624
Y0587671
Y0584718
Y0581766
Y0578813
Y0575860
Y0572907
Y0569954
Y0567002
Y0564049
Y0561096
Y0558144
Y0555191
Y0552238
Y0549285
Y0546333
Y0543380
Y0540427
Y0537474
Y0534521
Y0531569
Y0528616
Y0525663
Y0522711
Y0519758
Y0516805
Y0513852
Y0510899
Y0507947
Y0504994
Y0502041
Y0499088
Y0496136
Y0493183
Y0490230
Y0487278
Y0484325
Y0481372
Y0478419
Y0475466
Y0472514
Y0469561
X0887030Y0468908
Y0471861
Y0474813
Y0477766
Y0480719
Y0483672
Y0486624
Y0489577
Y0492530
Y0495482
Y0498435
Y0501388
Y0504341
Y0507294
Y0510246
Y0513199
Y0516152
Y0519104
Y0522057
Y0525010
Y0527963
Y0530915
Y0533868
Y0536821
Y0539774
Y0542727
Y0545679
Y0548632
Y0551585
Y0554537
Y0557490
Y0560443
Y0563396
Y0566349
Y0569301
Y0572254
Y0575207
Y0578160
Y0581112
Y0584065
Y0587018
Y0589970
Y0592923
Y0595876
Y0598829
Y0601782
Y0604734
Y0607687
Y0610640
Y0613592
Y0616545
X0886984Y0619498
X0886431Y0622398
X0895449Y0623143
X0895549Y0620192
Y0617239
Y0614287
Y0611334
Y0608381
Y0605428
Y0602476
Y0599523
Y0596570
Y0593617
Y0590664
Y0587712
Y0584759
Y0581806
Y0578854
Y0575901
Y0572948
Y0569995
Y0567042
Y0564090
Y0561137
Y0558184
Y0555232
Y0552279
Y0549326
Y0546373
Y0543421
Y0540468
Y0537515
Y0534562
Y0531609
Y0528657
Y0525704
Y0522751
Y0519799
Y0516846
Y0513893
Y0510940
Y0507987
Y0505035
Y0502082
Y0499129
Y0496176
Y0493224
Y0490271
Y0487318
Y0484366
Y0481413
Y0478460
Y0475507
Y0472554
Y0469602
X0781097Y0707873
X0779009Y0709961
X0777013Y0712137
X0775409Y0714616
X0774300Y0717352
X0773731Y0720250
X0773623Y0723201
Y0726153
Y0729106
Y0732059
Y0735012
Y0737964
Y0740917
Y0743870
Y0746823
Y0749775
Y0752728
Y0755681
Y0758634
Y0761586
Y0764539
Y0767492
Y0770445
Y0773397
Y0776350
Y0779303
X0782575Y0778239
Y0781192
Y0775287
Y0772334
Y0769381
Y0766428
Y0763476
Y0760523
Y0757570
Y0754618
Y0751665
Y0748712
Y0745759
Y0742806
Y0739854
Y0736901
X0782589Y0733948
X0782972Y0731020
X0783876Y0728209
X0785270Y0725606
X0787109Y0723296
X0789205Y0721217
X0791293Y0719129
X0793381Y0717041
X0795469Y0714953
X0797557Y0712865
X0799645Y0710777
X0801733Y0708689
X0803820Y0706601
X0805908Y0704513
X0807996Y0702425
X0810084Y0700338
X0812172Y0698250
X0814260Y0696162
X0816348Y0694074
X0818436Y0691986
X0820524Y0689898
X0822612Y0687810
X0824699Y0685722
X0826787Y0683634
X0828875Y0681546
X0830963Y0679458
X0833051Y0677371
X0835139Y0675283
X0837227Y0673195
X0839315Y0671107
X0841403Y0669019
X0843491Y0666931
X0845579Y0664843
X0847666Y0662755
X0849754Y0660667
X0851842Y0658579
X0853930Y0656491
X0856018Y0654403
X0858106Y0652316
X0860194Y0650228
X0862282Y0648140
X0864370Y0646052
X0866458Y0643964
X0868546Y0641876
X0870634Y0639788
X0872721Y0637700
X0874809Y0635612
X0876897Y0633524
X0878985Y0631436
X0881073Y0629349
X0883161Y0627261
X0885100Y0625034
X0894790Y0626021
X0893460Y0628658
X0891555Y0630914
X0889467Y0633002
X0887379Y0635089
X0885291Y0637178
X0883203Y0639265
X0881115Y0641353
X0879027Y0643441
X0876940Y0645529
X0874852Y0647617
X0872764Y0649705
X0870676Y0651793
X0868588Y0653881
X0866500Y0655969
X0864412Y0658056
X0862324Y0660145
X0860236Y0662232
X0858148Y0664320
X0856061Y0666408
X0853973Y0668496
X0851885Y0670584
X0849797Y0672672
X0847709Y0674760
X0845621Y0676848
X0843533Y0678936
X0841445Y0681024
X0839357Y0683111
X0837269Y0685199
X0835181Y0687287
X0833093Y0689375
X0831005Y0691463
X0828918Y0693551
X0826830Y0695639
X0824742Y0697727
X0822654Y0699815
X0820566Y0701903
X0818478Y0703991
X0816390Y0706078
X0814302Y0708166
X0812214Y0710254
X0810126Y0712342
X0808039Y0714430
X0805951Y0716518
X0803863Y0718606
X0801775Y0720694
X0799687Y0722782
X0797599Y0724870
X0795511Y0726958
X0793423Y0729045
X0791733Y0731466
X0791099Y0734350
X0791094Y0737303
Y0740256
Y0743209
Y0746161
Y0749114
Y0752067
Y0755020
Y0757972
Y0760925
Y0763878
Y0766830
Y0769783
Y0772736
Y0775689
Y0778642
X0782133Y0723810
X0782235Y0720859
X0783243Y0718084
X0785164Y0715842
X0787252Y0713754
X0789340Y0711666
X0791428Y0709578
X0793516Y0707490
X0795604Y0705402
X0797692Y0703314
X0799780Y0701227
X0801868Y0699138
X0803956Y0697051
X0806044Y0694963
X0808132Y0692875
X0810219Y0690787
X0812307Y0688699
X0814395Y0686611
X0816483Y0684523
X0818571Y0682435
X0820659Y0680347
X0822747Y0678259
X0824835Y0676171
X0826923Y0674084
X0829010Y0671996
X0831098Y0669908
X0833186Y0667820
X0835274Y0665732
X0837362Y0663644
X0839450Y0661556
X0841538Y0659468
X0843626Y0657380
X0845714Y0655292
X0847802Y0653204
X0849890Y0651117
X0851978Y0649029
X0854066Y0646941
X0856153Y0644853
X0858241Y0642765
X0860329Y0640677
X0862417Y0638589
X0864505Y0636501
X0866593Y0634413
X0868681Y0632325
X0870769Y0630237
X0872805Y0628099
X0874511Y0625689
X0862526Y0626445
X0860438Y0628533
X0858350Y0630621
X0856262Y0632709
X0854174Y0634796
X0852086Y0636884
X0849998Y0638972
X0847910Y0641060
X0845823Y0643148
X0843735Y0645236
X0841647Y0647324
X0839559Y0649412
X0837471Y0651500
X0835383Y0653588
X0833295Y0655676
X0831207Y0657763
X0829119Y0659851
X0827031Y0661939
X0824943Y0664027
X0822855Y0666115
X0820768Y0668203
X0818680Y0670291
X0816592Y0672379
X0814504Y0674467
X0812416Y0676555
X0810328Y0678643
X0808240Y0680730
X0806152Y0682818
X0804064Y0684906
X0801976Y0686994
X0799889Y0689082
X0797801Y0691170
X0795713Y0693258
X0793625Y0695346
X0791537Y0697434
X0789449Y0699522
X0787361Y0701610
X0785273Y0703697
X0783185Y0705785
X0782575Y0784145
Y0787098
Y0790051
Y0793003
Y0795956
Y0798909
Y0801861
Y0804814
Y0807767
Y0810720
Y0813673
Y0816625
Y0819578
Y0822531
Y0825484
Y0828436
X0782586Y0831389
X0783217Y0834273
X0784784Y0836776
X0787128Y0838573
X0789942Y0839467
X0792893Y0839556
X0795846
X0798799
X0798970Y0831038
X0796017
X0793064
X0791094Y0828838
Y0825885
Y0822933
Y0819980
Y0817027
Y0814075
Y0811122
Y0808169
Y0805216
Y0802264
Y0799311
Y0796358
Y0793405
Y0790452
Y0787500
Y0784547
Y0781594
X0798000Y0812000
X0805000
X0801500Y0819000
X0805000Y0826000
X0812000
X0810585Y0831434
X0811056Y0834348
Y0837301
X0815500Y0833000
X0822500
X0829500
X0833000Y0826000
X0840000
X0847000
X0843500Y0819000
X0871500
X0878500
X0885500
X0889000Y0826000
X0882000
Y0840000
X0885500Y0847000
X0882000Y0854000
X0885500Y0861000
Y0889000
X0889000Y0896000
X0885500Y0903000
X0889000Y0910000
X0868000
X0847000
X0836500Y0903000
X0843504Y0865866
X0843500Y0861000
X0849213Y0865374
X0857500Y0861000
X0861000Y0854000
X0854000
Y0840000
X0826000
X0819000
X0829500Y0847000
X0810577Y0850327
X0811052Y0853241
Y0856194
X0798956Y0858450
X0796004
X0793051
X0790098
X0787146
X0784193
X0781245Y0858279
X0784195Y0849939
X0787148
X0790101
X0793054
X0796006
X0798959
X0787500Y0847000
X0782133Y0847826
Y0844873
Y0841920
Y0838968
X0791000Y0868000
X0778470Y0857270
X0776131Y0855468
X0774488Y0853015
X0773704Y0850168
X0773623Y0847216
Y0844263
Y0841311
Y0838358
Y0835405
Y0832452
Y0829500
Y0826547
Y0823594
Y0820641
Y0817689
Y0814736
Y0811783
Y0808830
Y0805878
Y0802925
Y0799972
Y0797019
Y0794067
Y0791114
Y0788161
Y0785208
Y0782256
X0756000Y0812000
Y0826000
Y0840000
Y0854000
Y0868000
Y0882000
Y0896000
X0759500Y0903000
X0763000Y0910000
X0756000
X0769882Y0906909
X0770000Y0896000
X0766500Y0889000
T02
X0863681Y0336634
X0881841Y0340571
X0882579Y0353169
X0878642Y0350807
X0873917Y0350413
X0856201Y0386240
X0785335Y0887815
X0773524Y0902480
T03
X0782421Y0896712
Y0906713
X0792421
X0802421
X0812421
X0822421
X0832421
X0842421
X0852421
X0862421
X0872421
X0882421
Y0896712
X0872421
X0862421
X0852421
X0842421
X0832421
X0822421
X0812421
X0802421
X0792421
T04
X0814481Y0817383
X0824281
X0834081
X0852581
X0863681
Y0839783
Y0860983
X0853824Y0873483
X0843981
X0834081
X0814481
X0804581
X0883381
T05
X0796281Y0826483
Y0845381
Y0864283
T06
X0845177Y0356319
Y0366319
X0913878Y0354547
Y0344547
T07
X0863632Y0349035
X0901525Y0349232
X0821033Y0826635
X0820836Y0864529
T08
X0845177Y0333484
M30
