G04 Layer_Color=255*
%FSAX25Y25*%
%MOIN*%
G70*
G01*
G75*
%ADD14C,0.12598*%
%ADD15C,0.05906*%
%ADD16R,0.05906X0.05906*%
%ADD17C,0.05512*%
%ADD18R,0.07874X0.07874*%
%ADD19C,0.06102*%
%ADD20C,0.12097*%
%ADD21R,0.05906X0.05906*%
D14*
X0845177Y0333484D02*
D03*
D15*
X0913878Y0354547D02*
D03*
X0845177Y0366319D02*
D03*
X0802421Y0896712D02*
D03*
X0812421D02*
D03*
X0822421D02*
D03*
X0832421D02*
D03*
X0842421D02*
D03*
X0852421D02*
D03*
X0862421D02*
D03*
X0872421D02*
D03*
X0792421Y0906713D02*
D03*
X0802421D02*
D03*
X0812421D02*
D03*
X0822421D02*
D03*
X0832421D02*
D03*
X0842421D02*
D03*
X0852421D02*
D03*
X0862421D02*
D03*
X0872421D02*
D03*
D16*
X0913878Y0344547D02*
D03*
X0845177Y0356319D02*
D03*
D17*
X0796281Y0826483D02*
D03*
Y0864283D02*
D03*
Y0845381D02*
D03*
D18*
X0853824Y0873483D02*
D03*
X0824281Y0817383D02*
D03*
X0863681D02*
D03*
X0834081D02*
D03*
X0852581D02*
D03*
X0863681Y0839783D02*
D03*
Y0860983D02*
D03*
X0883381Y0873483D02*
D03*
X0843981D02*
D03*
X0834081D02*
D03*
X0814481D02*
D03*
X0804581D02*
D03*
X0814481Y0817383D02*
D03*
D19*
X0821033Y0826635D02*
D03*
X0820836Y0864529D02*
D03*
X0901525Y0349232D02*
D03*
X0863632Y0349035D02*
D03*
D20*
X0768405Y0901831D02*
D03*
D21*
X0792421Y0896712D02*
D03*
M02*
