G04 Layer_Color=16711935*
%FSAX25Y25*%
%MOIN*%
G70*
G01*
G75*
%ADD30C,0.13398*%
%ADD31C,0.07099*%
%ADD32R,0.07099X0.07099*%
%ADD33C,0.06312*%
%ADD34R,0.08674X0.08674*%
%ADD35C,0.06902*%
%ADD36R,0.06706X0.06706*%
%ADD37C,0.06706*%
%ADD38R,0.06706X0.06706*%
D30*
X0845177Y0333484D02*
D03*
D31*
X0913878Y0354547D02*
D03*
X0845177Y0366319D02*
D03*
D32*
X0913878Y0344547D02*
D03*
X0845177Y0356319D02*
D03*
D33*
X0796281Y0826483D02*
D03*
Y0864283D02*
D03*
Y0845381D02*
D03*
D34*
X0853824Y0873483D02*
D03*
X0824281Y0817383D02*
D03*
X0863681D02*
D03*
X0834081D02*
D03*
X0852581D02*
D03*
X0863681Y0839783D02*
D03*
Y0860983D02*
D03*
X0883381Y0873483D02*
D03*
X0843981D02*
D03*
X0834081D02*
D03*
X0814481D02*
D03*
X0804581D02*
D03*
X0814481Y0817383D02*
D03*
D35*
X0821033Y0826635D02*
D03*
X0820836Y0864529D02*
D03*
X0901525Y0349232D02*
D03*
X0863632Y0349035D02*
D03*
D36*
X0792421Y0896712D02*
D03*
D37*
X0802421D02*
D03*
X0812421D02*
D03*
X0822421D02*
D03*
X0832421D02*
D03*
X0842421D02*
D03*
X0852421D02*
D03*
X0862421D02*
D03*
X0872421D02*
D03*
X0792421Y0906713D02*
D03*
X0802421D02*
D03*
X0812421D02*
D03*
X0822421D02*
D03*
X0832421D02*
D03*
X0842421D02*
D03*
X0852421D02*
D03*
X0862421D02*
D03*
X0872421D02*
D03*
X0782421D02*
D03*
X0882421D02*
D03*
D38*
X0782421Y0896712D02*
D03*
X0882421D02*
D03*
M02*
