G04 Layer_Physical_Order=1*
G04 Layer_Color=255*
%FSAX25Y25*%
%MOIN*%
G70*
G01*
G75*
%ADD10C,0.00487*%
%ADD11C,0.01000*%
%ADD12R,0.01968X0.07874*%
%ADD13R,0.07874X0.01968*%
%ADD14C,0.12598*%
%ADD15C,0.06299*%
%ADD16R,0.06299X0.06299*%
%ADD17C,0.05512*%
%ADD18R,0.07874X0.07874*%
%ADD19C,0.06102*%
%ADD20R,0.05905X0.05905*%
%ADD21C,0.05905*%
%ADD22R,0.05905X0.05905*%
%ADD23C,0.02362*%
%ADD24C,0.02500*%
G36*
X0857526Y0868081D02*
X0842616Y0853170D01*
X0842116Y0853377D01*
Y0856183D01*
X0833309D01*
X0829781Y0859710D01*
Y0868542D01*
X0839022D01*
Y0868542D01*
X0839040D01*
Y0868542D01*
X0857335D01*
X0857526Y0868081D01*
D02*
G37*
G36*
X0771899Y0900855D02*
X0772644Y0900357D01*
X0773524Y0900182D01*
X0774403Y0900357D01*
X0775132Y0900844D01*
X0775360Y0900800D01*
X0775632Y0900717D01*
Y0890123D01*
X0765132Y0879623D01*
X0765128Y0879628D01*
X0763952Y0878251D01*
X0763006Y0876707D01*
X0762949Y0876570D01*
X0762459Y0876668D01*
Y0895349D01*
X0768056Y0900947D01*
X0771837D01*
X0771899Y0900855D01*
D02*
G37*
G36*
X0858740Y0864304D02*
Y0856042D01*
X0868053D01*
Y0852230D01*
X0866195Y0850372D01*
X0850689D01*
X0850689Y0850372D01*
X0850102Y0850255D01*
X0849605Y0849923D01*
X0849605Y0849923D01*
X0849266Y0849584D01*
X0844003D01*
X0843851Y0850084D01*
X0843899Y0850117D01*
X0858278Y0864495D01*
X0858740Y0864304D01*
D02*
G37*
G36*
X0888322Y0868542D02*
X0888526Y0868127D01*
Y0840025D01*
X0874463Y0825963D01*
X0871723D01*
X0871673Y0826462D01*
X0872142Y0826556D01*
X0872639Y0826888D01*
X0878545Y0832794D01*
X0878877Y0833291D01*
X0878994Y0833878D01*
X0878994Y0833878D01*
Y0868542D01*
X0888322D01*
D02*
G37*
G36*
X0873565Y0848760D02*
Y0836974D01*
X0869640Y0833049D01*
X0857074D01*
X0847648Y0842474D01*
X0847855Y0842974D01*
X0851476D01*
X0852063Y0843091D01*
X0852561Y0843423D01*
X0853686Y0844549D01*
X0858740D01*
Y0834842D01*
X0868622D01*
Y0844682D01*
X0869096Y0844998D01*
X0873065Y0848967D01*
X0873565Y0848760D01*
D02*
G37*
G36*
X0892362Y0811889D02*
X0815650D01*
X0814874Y0811735D01*
X0814216Y0811296D01*
X0813777Y0810638D01*
X0813622Y0809862D01*
Y0750807D01*
Y0732045D01*
X0813622D01*
X0813780Y0730041D01*
X0814249Y0728087D01*
X0815018Y0726229D01*
X0816068Y0724515D01*
X0817374Y0722987D01*
X0817375Y0722987D01*
X0842366Y0697996D01*
X0842366Y0697996D01*
X0899657Y0640704D01*
X0899764Y0640633D01*
X0900937Y0639203D01*
X0901869Y0637460D01*
X0902443Y0635569D01*
X0902624Y0633728D01*
X0902599Y0633602D01*
Y0614705D01*
Y0410256D01*
X0902753Y0409480D01*
X0903193Y0408822D01*
X0918347Y0393668D01*
Y0355919D01*
X0917847Y0355819D01*
X0917506Y0356642D01*
X0916840Y0357509D01*
X0915973Y0358175D01*
X0914962Y0358594D01*
X0913878Y0358737D01*
X0912794Y0358594D01*
X0911783Y0358175D01*
X0910916Y0357509D01*
X0910250Y0356642D01*
X0909831Y0355631D01*
X0909688Y0354547D01*
X0909831Y0353463D01*
X0910250Y0352452D01*
X0910916Y0351585D01*
X0911783Y0350919D01*
X0912794Y0350501D01*
X0913878Y0350358D01*
X0914962Y0350501D01*
X0915973Y0350919D01*
X0916840Y0351585D01*
X0917506Y0352452D01*
X0917847Y0353275D01*
X0918347Y0353176D01*
Y0349070D01*
X0918032Y0348701D01*
X0917847Y0348701D01*
X0909724D01*
Y0340394D01*
X0917847D01*
X0918032Y0340394D01*
X0918347Y0340024D01*
Y0320551D01*
X0831850D01*
Y0378708D01*
X0852516Y0399374D01*
X0852956Y0400031D01*
X0853110Y0400807D01*
X0853110Y0400807D01*
Y0553957D01*
Y0598169D01*
X0853114D01*
X0852941Y0600376D01*
X0852424Y0602527D01*
X0851577Y0604572D01*
X0850421Y0606459D01*
X0848984Y0608141D01*
X0848980Y0608138D01*
X0757437Y0699681D01*
X0757339Y0699747D01*
X0756240Y0701087D01*
X0755368Y0702717D01*
X0754832Y0704487D01*
X0754662Y0706211D01*
X0754685Y0706327D01*
X0754685Y0706327D01*
Y0750807D01*
Y0914134D01*
X0789400D01*
X0789433Y0913634D01*
X0789238Y0913608D01*
X0788106Y0913140D01*
X0787134Y0912394D01*
X0786388Y0911422D01*
X0785919Y0910290D01*
X0785759Y0909075D01*
X0785770D01*
Y0893962D01*
X0783125Y0891317D01*
X0781398D01*
X0780811Y0891200D01*
X0780313Y0890868D01*
X0780313Y0890868D01*
X0779199Y0889753D01*
X0778699Y0889960D01*
Y0903661D01*
X0778582Y0904248D01*
X0778250Y0904746D01*
X0778250Y0904746D01*
X0775002Y0907994D01*
X0774504Y0908326D01*
X0773917Y0908443D01*
X0771485D01*
X0771457Y0908485D01*
X0770734Y0908968D01*
X0769882Y0909137D01*
X0769029Y0908968D01*
X0768306Y0908485D01*
X0767824Y0907762D01*
X0767654Y0906909D01*
X0767824Y0906057D01*
X0768306Y0905334D01*
X0769029Y0904851D01*
X0769882Y0904681D01*
X0770734Y0904851D01*
X0771457Y0905334D01*
X0771485Y0905376D01*
X0772907D01*
X0773043Y0905193D01*
X0772830Y0904640D01*
X0772644Y0904603D01*
X0771899Y0904105D01*
X0771837Y0904014D01*
X0767421D01*
X0767421Y0904014D01*
X0766834Y0903897D01*
X0766337Y0903564D01*
X0766337Y0903564D01*
X0759841Y0897069D01*
X0759509Y0896571D01*
X0759392Y0895984D01*
Y0706130D01*
X0759386D01*
X0759528Y0704325D01*
X0759950Y0702564D01*
X0760643Y0700891D01*
X0761589Y0699347D01*
X0762766Y0697971D01*
X0762770Y0697975D01*
X0852188Y0608557D01*
X0852246Y0608519D01*
X0853257Y0607285D01*
X0854042Y0605818D01*
X0854525Y0604226D01*
X0854681Y0602639D01*
X0854667Y0602570D01*
Y0387926D01*
X0854576Y0387865D01*
X0854078Y0387120D01*
X0853903Y0386240D01*
X0854078Y0385361D01*
X0854576Y0384615D01*
X0855321Y0384117D01*
X0856201Y0383942D01*
X0856520Y0384005D01*
X0856937Y0383671D01*
X0856951Y0383254D01*
X0855116Y0381419D01*
X0854784Y0380921D01*
X0854667Y0380335D01*
Y0344508D01*
X0854784Y0343921D01*
X0855116Y0343424D01*
X0857479Y0341061D01*
X0857479Y0341061D01*
X0857976Y0340729D01*
X0858563Y0340612D01*
X0858563Y0340612D01*
X0865965D01*
X0866172Y0340112D01*
X0864714Y0338654D01*
X0864561Y0338757D01*
X0863681Y0338932D01*
X0862802Y0338757D01*
X0862056Y0338259D01*
X0861558Y0337513D01*
X0861383Y0336634D01*
X0861558Y0335754D01*
X0862056Y0335009D01*
X0862802Y0334511D01*
X0863681Y0334336D01*
X0864561Y0334511D01*
X0865306Y0335009D01*
X0865445Y0335216D01*
X0865449Y0335217D01*
X0865946Y0335549D01*
X0868253Y0337856D01*
X0870403D01*
Y0328150D01*
X0876703D01*
Y0328150D01*
X0893277D01*
Y0338031D01*
X0892823D01*
Y0345640D01*
X0892706Y0346227D01*
X0892374Y0346724D01*
X0884844Y0354254D01*
X0884347Y0354586D01*
X0884342Y0354587D01*
X0884204Y0354794D01*
X0883458Y0355292D01*
X0882579Y0355467D01*
X0882157Y0355383D01*
X0881910Y0355844D01*
X0884500Y0358433D01*
X0884832Y0358931D01*
X0884949Y0359518D01*
Y0360433D01*
X0885404D01*
Y0370315D01*
X0878277D01*
Y0360433D01*
X0878305D01*
X0878512Y0359933D01*
X0876825Y0358246D01*
X0869041D01*
X0865215Y0362072D01*
Y0375369D01*
X0866734Y0376888D01*
X0867066Y0377386D01*
X0867183Y0377972D01*
Y0607689D01*
X0867189D01*
X0867047Y0609494D01*
X0866624Y0611254D01*
X0865931Y0612927D01*
X0864985Y0614471D01*
X0863809Y0615848D01*
X0863805Y0615844D01*
X0774387Y0705262D01*
X0774329Y0705300D01*
X0773317Y0706533D01*
X0772533Y0708001D01*
X0772050Y0709593D01*
X0771894Y0711180D01*
X0771907Y0711248D01*
Y0861625D01*
X0771894Y0861694D01*
X0772050Y0863281D01*
X0772533Y0864873D01*
X0773317Y0866341D01*
X0774329Y0867574D01*
X0774387Y0867612D01*
X0790577Y0883802D01*
X0790581Y0883797D01*
X0791757Y0885174D01*
X0792703Y0886718D01*
X0793396Y0888391D01*
X0793819Y0890152D01*
X0793961Y0891957D01*
X0793955D01*
Y0892756D01*
X0796378D01*
Y0900669D01*
X0788836D01*
Y0904063D01*
X0789336Y0904233D01*
X0789599Y0903891D01*
X0790426Y0903256D01*
X0791388Y0902858D01*
X0792421Y0902722D01*
X0793454Y0902858D01*
X0794417Y0903256D01*
X0795243Y0903891D01*
X0795877Y0904717D01*
X0796276Y0905680D01*
X0796412Y0906713D01*
X0796276Y0907745D01*
X0795877Y0908708D01*
X0795243Y0909534D01*
X0794417Y0910169D01*
X0794363Y0910191D01*
X0794462Y0910691D01*
X0800380D01*
X0800480Y0910191D01*
X0800426Y0910169D01*
X0799599Y0909534D01*
X0798965Y0908708D01*
X0798566Y0907745D01*
X0798430Y0906713D01*
X0798566Y0905680D01*
X0798965Y0904717D01*
X0799599Y0903891D01*
X0800426Y0903256D01*
X0801388Y0902858D01*
X0802421Y0902722D01*
X0803454Y0902858D01*
X0803916Y0903049D01*
X0805848Y0901117D01*
Y0899523D01*
X0805375Y0899363D01*
X0805243Y0899535D01*
X0804417Y0900169D01*
X0803454Y0900567D01*
X0802421Y0900703D01*
X0801388Y0900567D01*
X0800426Y0900169D01*
X0799599Y0899535D01*
X0798965Y0898708D01*
X0798566Y0897745D01*
X0798430Y0896712D01*
X0798566Y0895680D01*
X0798965Y0894717D01*
X0799599Y0893891D01*
X0800426Y0893256D01*
X0800730Y0893130D01*
Y0881757D01*
X0796849Y0877876D01*
X0796516Y0877378D01*
X0796400Y0876791D01*
Y0869311D01*
X0796516Y0868724D01*
X0796645Y0868532D01*
X0796355Y0868066D01*
X0796281Y0868076D01*
X0795299Y0867947D01*
X0794385Y0867568D01*
X0793600Y0866965D01*
X0792997Y0866180D01*
X0792618Y0865265D01*
X0792489Y0864283D01*
X0792618Y0863302D01*
X0792997Y0862387D01*
X0793600Y0861602D01*
X0794385Y0860999D01*
X0795299Y0860620D01*
X0796281Y0860491D01*
X0797263Y0860620D01*
X0798177Y0860999D01*
X0798963Y0861602D01*
X0799565Y0862387D01*
X0799944Y0863302D01*
X0800073Y0864283D01*
X0799983Y0864968D01*
X0800146Y0865201D01*
X0800382Y0865407D01*
X0800406Y0865415D01*
X0807140D01*
X0816478Y0856077D01*
Y0849867D01*
X0814465Y0847854D01*
X0809832D01*
Y0848309D01*
X0799950D01*
Y0847597D01*
X0799450Y0847427D01*
X0798963Y0848063D01*
X0798177Y0848665D01*
X0797263Y0849044D01*
X0796281Y0849173D01*
X0795299Y0849044D01*
X0794385Y0848665D01*
X0793600Y0848063D01*
X0792997Y0847277D01*
X0792618Y0846363D01*
X0792489Y0845381D01*
X0792618Y0844400D01*
X0792997Y0843485D01*
X0793600Y0842700D01*
X0794385Y0842097D01*
X0795299Y0841718D01*
X0796281Y0841589D01*
X0797263Y0841718D01*
X0798177Y0842097D01*
X0798963Y0842700D01*
X0799450Y0843335D01*
X0799950Y0843165D01*
Y0841183D01*
X0809832D01*
Y0841637D01*
X0818250D01*
X0818836Y0841754D01*
X0819334Y0842087D01*
X0826970Y0849723D01*
X0827302Y0850220D01*
X0827419Y0850807D01*
Y0857082D01*
X0827881Y0857273D01*
X0831847Y0853307D01*
X0831888Y0853266D01*
X0831888Y0853266D01*
X0832234Y0853033D01*
Y0849057D01*
Y0845907D01*
Y0842758D01*
Y0839608D01*
Y0836458D01*
Y0833309D01*
X0842003D01*
X0851967Y0823345D01*
X0852464Y0823012D01*
X0853051Y0822896D01*
X0853051Y0822896D01*
X0875098D01*
X0875685Y0823012D01*
X0876183Y0823345D01*
X0891143Y0838305D01*
X0891476Y0838803D01*
X0891592Y0839390D01*
Y0882106D01*
X0891592Y0882106D01*
X0891476Y0882693D01*
X0891143Y0883191D01*
X0891143Y0883191D01*
X0889175Y0885159D01*
X0888677Y0885491D01*
X0888091Y0885608D01*
X0882426D01*
X0874889Y0893145D01*
X0874922Y0893644D01*
X0875243Y0893891D01*
X0875877Y0894717D01*
X0876276Y0895680D01*
X0876412Y0896712D01*
X0876276Y0897745D01*
X0875877Y0898708D01*
X0875243Y0899535D01*
X0874417Y0900169D01*
X0873454Y0900567D01*
X0872421Y0900703D01*
X0871388Y0900567D01*
X0870426Y0900169D01*
X0869599Y0899535D01*
X0868965Y0898708D01*
X0868566Y0897745D01*
X0868430Y0896712D01*
X0868566Y0895680D01*
X0868965Y0894717D01*
X0869599Y0893891D01*
X0870426Y0893256D01*
X0870970Y0893031D01*
X0871004Y0892858D01*
X0871337Y0892360D01*
X0880707Y0882990D01*
X0880707Y0882990D01*
X0881205Y0882658D01*
X0881791Y0882541D01*
X0887455D01*
X0888526Y0881471D01*
Y0878840D01*
X0888322Y0878424D01*
X0878994D01*
Y0881516D01*
X0878877Y0882102D01*
X0878545Y0882600D01*
X0866039Y0895106D01*
X0866276Y0895680D01*
X0866412Y0896712D01*
X0866276Y0897745D01*
X0865877Y0898708D01*
X0865243Y0899535D01*
X0864417Y0900169D01*
X0863454Y0900567D01*
X0862421Y0900703D01*
X0861388Y0900567D01*
X0860426Y0900169D01*
X0859599Y0899535D01*
X0858965Y0898708D01*
X0858566Y0897745D01*
X0858430Y0896712D01*
X0858566Y0895680D01*
X0858965Y0894717D01*
X0859599Y0893891D01*
X0860426Y0893256D01*
X0861388Y0892858D01*
X0862421Y0892722D01*
X0863454Y0892858D01*
X0863805Y0893003D01*
X0865108Y0891699D01*
X0864862Y0891238D01*
X0864468Y0891317D01*
X0856048D01*
X0854551Y0892814D01*
X0854643Y0893430D01*
X0855243Y0893891D01*
X0855877Y0894717D01*
X0856276Y0895680D01*
X0856412Y0896712D01*
X0856276Y0897745D01*
X0855877Y0898708D01*
X0855243Y0899535D01*
X0854417Y0900169D01*
X0853454Y0900567D01*
X0852421Y0900703D01*
X0851388Y0900567D01*
X0850426Y0900169D01*
X0849599Y0899535D01*
X0848965Y0898708D01*
X0848566Y0897745D01*
X0848430Y0896712D01*
X0848566Y0895680D01*
X0848965Y0894717D01*
X0849599Y0893891D01*
X0850426Y0893256D01*
X0850494Y0893228D01*
Y0893169D01*
X0850611Y0892582D01*
X0850943Y0892085D01*
X0853967Y0889061D01*
X0853760Y0888561D01*
X0849356D01*
X0844823Y0893094D01*
X0844855Y0893593D01*
X0845243Y0893891D01*
X0845877Y0894717D01*
X0846276Y0895680D01*
X0846412Y0896712D01*
X0846276Y0897745D01*
X0845877Y0898708D01*
X0845243Y0899535D01*
X0844417Y0900169D01*
X0843454Y0900567D01*
X0842421Y0900703D01*
X0841388Y0900567D01*
X0840426Y0900169D01*
X0839599Y0899535D01*
X0838965Y0898708D01*
X0838566Y0897745D01*
X0838430Y0896712D01*
X0838566Y0895680D01*
X0838965Y0894717D01*
X0839599Y0893891D01*
X0840426Y0893256D01*
X0840601Y0893184D01*
X0840611Y0893134D01*
X0840943Y0892636D01*
X0846919Y0886661D01*
X0846727Y0886199D01*
X0841875D01*
X0834912Y0893162D01*
X0834944Y0893661D01*
X0835243Y0893891D01*
X0835877Y0894717D01*
X0836276Y0895680D01*
X0836412Y0896712D01*
X0836276Y0897745D01*
X0835877Y0898708D01*
X0835243Y0899535D01*
X0834417Y0900169D01*
X0833454Y0900567D01*
X0832421Y0900703D01*
X0831388Y0900567D01*
X0830426Y0900169D01*
X0829599Y0899535D01*
X0828965Y0898708D01*
X0828566Y0897745D01*
X0828430Y0896712D01*
X0828566Y0895680D01*
X0828965Y0894717D01*
X0829599Y0893891D01*
X0830426Y0893256D01*
X0830714Y0893137D01*
X0830943Y0892794D01*
X0839794Y0883943D01*
X0839587Y0883443D01*
X0834395D01*
X0824778Y0893060D01*
X0824811Y0893559D01*
X0825243Y0893891D01*
X0825877Y0894717D01*
X0826276Y0895680D01*
X0826412Y0896712D01*
X0826276Y0897745D01*
X0825877Y0898708D01*
X0825243Y0899535D01*
X0824417Y0900169D01*
X0823454Y0900567D01*
X0822421Y0900703D01*
X0821388Y0900567D01*
X0820426Y0900169D01*
X0819599Y0899535D01*
X0818965Y0898708D01*
X0818566Y0897745D01*
X0818430Y0896712D01*
X0818566Y0895680D01*
X0818965Y0894717D01*
X0819599Y0893891D01*
X0820426Y0893256D01*
X0820584Y0893191D01*
X0820611Y0893055D01*
X0820943Y0892557D01*
X0832675Y0880825D01*
X0832675Y0880825D01*
X0833173Y0880493D01*
X0833760Y0880376D01*
X0857534D01*
X0861360Y0876550D01*
Y0871915D01*
X0859227Y0869781D01*
X0858764Y0869972D01*
Y0878424D01*
X0839040D01*
Y0878424D01*
X0839022D01*
Y0878424D01*
X0829140D01*
Y0878424D01*
X0828888Y0878320D01*
X0814427Y0892781D01*
X0814554Y0893361D01*
X0815243Y0893891D01*
X0815877Y0894717D01*
X0816276Y0895680D01*
X0816412Y0896712D01*
X0816276Y0897745D01*
X0815877Y0898708D01*
X0815243Y0899535D01*
X0814417Y0900169D01*
X0813454Y0900567D01*
X0812421Y0900703D01*
X0811388Y0900567D01*
X0810426Y0900169D01*
X0809599Y0899535D01*
X0809415Y0899295D01*
X0808915Y0899464D01*
Y0901752D01*
X0808799Y0902339D01*
X0808466Y0902836D01*
X0806085Y0905218D01*
X0806276Y0905680D01*
X0806412Y0906713D01*
X0806276Y0907745D01*
X0805877Y0908708D01*
X0805243Y0909534D01*
X0804417Y0910169D01*
X0804363Y0910191D01*
X0804462Y0910691D01*
X0810380D01*
X0810480Y0910191D01*
X0810426Y0910169D01*
X0809599Y0909534D01*
X0808965Y0908708D01*
X0808566Y0907745D01*
X0808430Y0906713D01*
X0808566Y0905680D01*
X0808965Y0904717D01*
X0809599Y0903891D01*
X0810426Y0903256D01*
X0811388Y0902858D01*
X0812421Y0902722D01*
X0813454Y0902858D01*
X0814417Y0903256D01*
X0815243Y0903891D01*
X0815877Y0904717D01*
X0816276Y0905680D01*
X0816412Y0906713D01*
X0816276Y0907745D01*
X0815877Y0908708D01*
X0815243Y0909534D01*
X0814417Y0910169D01*
X0814363Y0910191D01*
X0814462Y0910691D01*
X0820380D01*
X0820479Y0910191D01*
X0820426Y0910169D01*
X0819599Y0909534D01*
X0818965Y0908708D01*
X0818566Y0907745D01*
X0818430Y0906713D01*
X0818566Y0905680D01*
X0818965Y0904717D01*
X0819599Y0903891D01*
X0820426Y0903256D01*
X0821388Y0902858D01*
X0822421Y0902722D01*
X0823454Y0902858D01*
X0824417Y0903256D01*
X0825243Y0903891D01*
X0825877Y0904717D01*
X0826276Y0905680D01*
X0826412Y0906713D01*
X0826276Y0907745D01*
X0825877Y0908708D01*
X0825243Y0909534D01*
X0824417Y0910169D01*
X0824363Y0910191D01*
X0824462Y0910691D01*
X0826274D01*
X0828758Y0908208D01*
X0828566Y0907745D01*
X0828430Y0906713D01*
X0828566Y0905680D01*
X0828965Y0904717D01*
X0829599Y0903891D01*
X0830426Y0903256D01*
X0831388Y0902858D01*
X0832421Y0902722D01*
X0833454Y0902858D01*
X0834417Y0903256D01*
X0835243Y0903891D01*
X0835877Y0904717D01*
X0836276Y0905680D01*
X0836412Y0906713D01*
X0836276Y0907745D01*
X0835877Y0908708D01*
X0835243Y0909534D01*
X0834417Y0910169D01*
X0833454Y0910567D01*
X0832421Y0910703D01*
X0831388Y0910567D01*
X0830926Y0910376D01*
X0827994Y0913309D01*
X0827496Y0913641D01*
X0827580Y0914134D01*
X0892362D01*
Y0811889D01*
D02*
G37*
%LPC*%
G36*
X0901525Y0353322D02*
X0900467Y0353183D01*
X0899481Y0352774D01*
X0898633Y0352124D01*
X0897983Y0351277D01*
X0897575Y0350291D01*
X0897435Y0349232D01*
X0897575Y0348174D01*
X0897983Y0347187D01*
X0898633Y0346340D01*
X0899481Y0345690D01*
X0900467Y0345282D01*
X0901525Y0345142D01*
X0902584Y0345282D01*
X0903571Y0345690D01*
X0904418Y0346340D01*
X0905068Y0347187D01*
X0905476Y0348174D01*
X0905616Y0349232D01*
X0905476Y0350291D01*
X0905068Y0351277D01*
X0904418Y0352124D01*
X0903571Y0352774D01*
X0902584Y0353183D01*
X0901525Y0353322D01*
D02*
G37*
G36*
X0845177Y0340823D02*
X0843746Y0340682D01*
X0842369Y0340264D01*
X0841100Y0339586D01*
X0839988Y0338673D01*
X0839075Y0337561D01*
X0838397Y0336293D01*
X0837980Y0334916D01*
X0837839Y0333484D01*
X0837980Y0332052D01*
X0838397Y0330676D01*
X0839075Y0329407D01*
X0839988Y0328295D01*
X0841100Y0327382D01*
X0842369Y0326704D01*
X0843746Y0326287D01*
X0845177Y0326146D01*
X0846609Y0326287D01*
X0847985Y0326704D01*
X0849254Y0327382D01*
X0850366Y0328295D01*
X0851279Y0329407D01*
X0851957Y0330676D01*
X0852375Y0332052D01*
X0852516Y0333484D01*
X0852375Y0334916D01*
X0851957Y0336293D01*
X0851279Y0337561D01*
X0850366Y0338673D01*
X0849254Y0339586D01*
X0847985Y0340264D01*
X0846609Y0340682D01*
X0845177Y0340823D01*
D02*
G37*
G36*
X0868622Y0822324D02*
X0858740D01*
Y0812442D01*
X0868622D01*
Y0822324D01*
D02*
G37*
G36*
X0857522D02*
X0847640D01*
Y0812442D01*
X0857522D01*
Y0822324D01*
D02*
G37*
G36*
X0845177Y0370508D02*
X0844093Y0370366D01*
X0843082Y0369947D01*
X0842215Y0369281D01*
X0841549Y0368413D01*
X0841131Y0367403D01*
X0840988Y0366319D01*
X0841131Y0365234D01*
X0841549Y0364224D01*
X0842215Y0363356D01*
X0843082Y0362691D01*
X0844093Y0362272D01*
X0845177Y0362129D01*
X0846261Y0362272D01*
X0847272Y0362691D01*
X0848139Y0363356D01*
X0848805Y0364224D01*
X0849224Y0365234D01*
X0849366Y0366319D01*
X0849224Y0367403D01*
X0848805Y0368413D01*
X0848139Y0369281D01*
X0847272Y0369947D01*
X0846261Y0370366D01*
X0845177Y0370508D01*
D02*
G37*
G36*
X0821033Y0830725D02*
X0819974Y0830586D01*
X0818988Y0830177D01*
X0818141Y0829527D01*
X0817491Y0828680D01*
X0817082Y0827694D01*
X0816943Y0826635D01*
X0817082Y0825577D01*
X0817491Y0824590D01*
X0818141Y0823743D01*
X0818988Y0823093D01*
X0819637Y0822824D01*
X0819538Y0822324D01*
X0809540D01*
Y0812442D01*
X0839022D01*
Y0822324D01*
X0822528D01*
X0822429Y0822824D01*
X0823078Y0823093D01*
X0823925Y0823743D01*
X0824575Y0824590D01*
X0824984Y0825577D01*
X0825123Y0826635D01*
X0824984Y0827694D01*
X0824575Y0828680D01*
X0823925Y0829527D01*
X0823078Y0830177D01*
X0822092Y0830586D01*
X0821033Y0830725D01*
D02*
G37*
G36*
X0849331Y0360472D02*
X0841024D01*
Y0352165D01*
X0849331D01*
Y0360472D01*
D02*
G37*
G36*
X0852421Y0910703D02*
X0851388Y0910567D01*
X0850426Y0910169D01*
X0849599Y0909534D01*
X0848965Y0908708D01*
X0848566Y0907745D01*
X0848430Y0906713D01*
X0848566Y0905680D01*
X0848965Y0904717D01*
X0849599Y0903891D01*
X0850426Y0903256D01*
X0851388Y0902858D01*
X0852421Y0902722D01*
X0853454Y0902858D01*
X0854417Y0903256D01*
X0855243Y0903891D01*
X0855877Y0904717D01*
X0856276Y0905680D01*
X0856412Y0906713D01*
X0856276Y0907745D01*
X0855877Y0908708D01*
X0855243Y0909534D01*
X0854417Y0910169D01*
X0853454Y0910567D01*
X0852421Y0910703D01*
D02*
G37*
G36*
X0862421D02*
X0861388Y0910567D01*
X0860426Y0910169D01*
X0859599Y0909534D01*
X0858965Y0908708D01*
X0858566Y0907745D01*
X0858430Y0906713D01*
X0858566Y0905680D01*
X0858965Y0904717D01*
X0859599Y0903891D01*
X0860426Y0903256D01*
X0861388Y0902858D01*
X0862421Y0902722D01*
X0863454Y0902858D01*
X0864417Y0903256D01*
X0865243Y0903891D01*
X0865877Y0904717D01*
X0866276Y0905680D01*
X0866412Y0906713D01*
X0866276Y0907745D01*
X0865877Y0908708D01*
X0865243Y0909534D01*
X0864417Y0910169D01*
X0863454Y0910567D01*
X0862421Y0910703D01*
D02*
G37*
G36*
X0872421D02*
X0871388Y0910567D01*
X0870426Y0910169D01*
X0869599Y0909534D01*
X0868965Y0908708D01*
X0868566Y0907745D01*
X0868430Y0906713D01*
X0868566Y0905680D01*
X0868965Y0904717D01*
X0869599Y0903891D01*
X0870426Y0903256D01*
X0871388Y0902858D01*
X0872421Y0902722D01*
X0873454Y0902858D01*
X0874417Y0903256D01*
X0875243Y0903891D01*
X0875877Y0904717D01*
X0876276Y0905680D01*
X0876412Y0906713D01*
X0876276Y0907745D01*
X0875877Y0908708D01*
X0875243Y0909534D01*
X0874417Y0910169D01*
X0873454Y0910567D01*
X0872421Y0910703D01*
D02*
G37*
G36*
X0842421D02*
X0841388Y0910567D01*
X0840426Y0910169D01*
X0839599Y0909534D01*
X0838965Y0908708D01*
X0838566Y0907745D01*
X0838430Y0906713D01*
X0838566Y0905680D01*
X0838965Y0904717D01*
X0839599Y0903891D01*
X0840426Y0903256D01*
X0841388Y0902858D01*
X0842421Y0902722D01*
X0843454Y0902858D01*
X0844417Y0903256D01*
X0845243Y0903891D01*
X0845877Y0904717D01*
X0846276Y0905680D01*
X0846412Y0906713D01*
X0846276Y0907745D01*
X0845877Y0908708D01*
X0845243Y0909534D01*
X0844417Y0910169D01*
X0843454Y0910567D01*
X0842421Y0910703D01*
D02*
G37*
G36*
X0796281Y0830276D02*
X0795299Y0830147D01*
X0794385Y0829768D01*
X0793600Y0829165D01*
X0792997Y0828380D01*
X0792618Y0827465D01*
X0792489Y0826483D01*
X0792618Y0825502D01*
X0792997Y0824587D01*
X0793600Y0823802D01*
X0794385Y0823199D01*
X0795299Y0822820D01*
X0796281Y0822691D01*
X0797263Y0822820D01*
X0798177Y0823199D01*
X0798963Y0823802D01*
X0799565Y0824587D01*
X0799944Y0825502D01*
X0800073Y0826483D01*
X0799944Y0827465D01*
X0799565Y0828380D01*
X0798963Y0829165D01*
X0798177Y0829768D01*
X0797263Y0830147D01*
X0796281Y0830276D01*
D02*
G37*
G36*
X0809832Y0838860D02*
X0799950D01*
Y0838144D01*
X0790688D01*
Y0838153D01*
X0789297Y0838016D01*
X0787959Y0837611D01*
X0786727Y0836952D01*
X0785646Y0836065D01*
X0784760Y0834985D01*
X0784101Y0833752D01*
X0783695Y0832415D01*
X0783558Y0831024D01*
X0783568D01*
Y0738611D01*
X0783547D01*
X0783729Y0736289D01*
X0784273Y0734025D01*
X0785164Y0731874D01*
X0786381Y0729888D01*
X0787893Y0728118D01*
X0787893Y0728118D01*
X0788262Y0727779D01*
X0884649Y0631391D01*
X0884687Y0631366D01*
X0885910Y0629934D01*
X0886917Y0628290D01*
X0887655Y0626509D01*
X0888105Y0624634D01*
X0888253Y0622756D01*
X0888244Y0622712D01*
Y0370315D01*
X0887726D01*
Y0360433D01*
X0894852D01*
Y0370315D01*
X0894334D01*
Y0625650D01*
X0894345D01*
X0894206Y0627415D01*
X0893792Y0629136D01*
X0893115Y0630772D01*
X0892190Y0632281D01*
X0891040Y0633628D01*
X0891033Y0633620D01*
X0891033Y0633620D01*
X0792214Y0732439D01*
X0792167Y0732470D01*
X0791115Y0733752D01*
X0790307Y0735264D01*
X0789809Y0736905D01*
X0789647Y0738555D01*
X0789658Y0738611D01*
Y0831024D01*
X0789657Y0831028D01*
X0789764Y0831570D01*
X0790074Y0832034D01*
X0790538Y0832343D01*
X0791080Y0832451D01*
X0791084Y0832450D01*
X0799950D01*
Y0831734D01*
X0809832D01*
Y0834883D01*
Y0838860D01*
D02*
G37*
G36*
X0809832Y0857757D02*
X0799950D01*
Y0857239D01*
X0785883D01*
Y0857250D01*
X0784118Y0857111D01*
X0782397Y0856697D01*
X0780761Y0856020D01*
X0779251Y0855095D01*
X0777905Y0853945D01*
X0776756Y0852599D01*
X0775831Y0851089D01*
X0775153Y0849454D01*
X0774740Y0847732D01*
X0774601Y0845967D01*
X0774611D01*
Y0723847D01*
X0774590D01*
X0774773Y0721525D01*
X0775316Y0719261D01*
X0776207Y0717110D01*
X0777424Y0715125D01*
X0778936Y0713354D01*
X0778936Y0713354D01*
X0779305Y0713015D01*
X0866790Y0625530D01*
X0866838Y0625498D01*
X0867890Y0624216D01*
X0868698Y0622705D01*
X0869195Y0621064D01*
X0869358Y0619414D01*
X0869347Y0619358D01*
Y0370315D01*
X0868829D01*
Y0360433D01*
X0875955D01*
Y0370315D01*
X0875437D01*
Y0619358D01*
X0875458D01*
X0875275Y0621679D01*
X0874732Y0623944D01*
X0873841Y0626095D01*
X0872624Y0628080D01*
X0871112Y0629851D01*
X0871097Y0629836D01*
X0871097Y0629836D01*
X0783257Y0717675D01*
X0783210Y0717707D01*
X0782158Y0718989D01*
X0781350Y0720500D01*
X0780853Y0722141D01*
X0780690Y0723791D01*
X0780701Y0723847D01*
Y0845886D01*
X0780689Y0845945D01*
X0780861Y0847253D01*
X0781389Y0848528D01*
X0782229Y0849622D01*
X0783323Y0850461D01*
X0784597Y0850989D01*
X0785905Y0851161D01*
X0785965Y0851149D01*
X0799950D01*
Y0850632D01*
X0809832D01*
Y0853781D01*
Y0857757D01*
D02*
G37*
%LPD*%
D10*
X0791084Y0833722D02*
G03*
X0788386Y0831024I0000000J-0002699D01*
G01*
Y0738611D02*
G03*
X0791315Y0731539I0010000J0000000D01*
G01*
X0893062Y0625650D02*
G03*
X0890133Y0632721I-0010000J0000000D01*
G01*
X0893062Y0369753D02*
G03*
X0892864Y0369274I0000478J-0000478D01*
G01*
X0790688Y0836872D02*
G03*
X0784840Y0831024I0000000J-0005848D01*
G01*
Y0738611D02*
G03*
X0788807Y0729032I0013546J0000000D01*
G01*
X0889516Y0622712D02*
G03*
X0885549Y0632291I-0013546J0000000D01*
G01*
X0889715Y0369274D02*
G03*
X0889516Y0369753I-0000677J0000000D01*
G01*
X0800909Y0852620D02*
G03*
X0800711Y0852421I0000000J-0000198D01*
G01*
X0785965D02*
G03*
X0779429Y0845886I0000000J-0006536D01*
G01*
Y0723847D02*
G03*
X0782358Y0716776I0010000J0000000D01*
G01*
X0874165Y0619358D02*
G03*
X0870197Y0628937I-0013546J0000000D01*
G01*
X0874165Y0369753D02*
G03*
X0873967Y0369274I0000478J-0000478D01*
G01*
X0800711Y0855968D02*
G03*
X0800909Y0855769I0000198J0000000D01*
G01*
X0785883Y0855968D02*
G03*
X0775883Y0845967I0000000J-0010000D01*
G01*
Y0723847D02*
G03*
X0779851Y0714268I0013546J0000000D01*
G01*
X0870619Y0619358D02*
G03*
X0867690Y0626429I-0010000J0000000D01*
G01*
X0870817Y0369274D02*
G03*
X0870619Y0369753I-0000677J0000000D01*
G01*
X0791084Y0833722D02*
X0804891D01*
X0788386Y0738611D02*
Y0831024D01*
X0791315Y0731539D02*
X0890133Y0632721D01*
X0893062Y0369753D02*
Y0625650D01*
X0892864Y0365374D02*
Y0369274D01*
X0790688Y0836872D02*
X0804891D01*
X0784840Y0738611D02*
Y0831024D01*
X0788807Y0729032D02*
X0885549Y0632291D01*
X0889516Y0369753D02*
Y0622712D01*
X0889715Y0365374D02*
Y0369274D01*
X0782358Y0716776D02*
X0870197Y0628937D01*
X0779851Y0714268D02*
X0867690Y0626429D01*
X0874165Y0369753D02*
Y0619358D01*
X0800909Y0852620D02*
X0804891D01*
X0785965Y0852421D02*
X0800711D01*
X0779429Y0723847D02*
Y0845886D01*
X0873967Y0365374D02*
Y0369274D01*
X0800909Y0855769D02*
X0804891D01*
X0785883Y0855968D02*
X0800711D01*
X0775883Y0723847D02*
Y0845967D01*
X0870619Y0369753D02*
Y0619358D01*
X0870817Y0365374D02*
Y0369274D01*
D11*
X0770374Y0711248D02*
G03*
X0773303Y0704177I0010000J0000000D01*
G01*
X0768012Y0710067D02*
G03*
X0770941Y0702996I0010000J0000000D01*
G01*
X0765650Y0708493D02*
G03*
X0768578Y0701421I0010000J0000000D01*
G01*
X0763287Y0706918D02*
G03*
X0766216Y0699847I0010000J0000000D01*
G01*
X0760925Y0706130D02*
G03*
X0763854Y0699059I0010000J0000000D01*
G01*
X0865650Y0607689D02*
G03*
X0862721Y0614760I-0010000J0000000D01*
G01*
X0863287Y0606507D02*
G03*
X0860358Y0613579I-0010000J0000000D01*
G01*
X0860925Y0604933D02*
G03*
X0857996Y0612004I-0010000J0000000D01*
G01*
X0858563Y0603358D02*
G03*
X0855634Y0610429I-0010000J0000000D01*
G01*
X0856201Y0602570D02*
G03*
X0853272Y0609642I-0010000J0000000D01*
G01*
X0766216Y0878539D02*
G03*
X0763287Y0871468I0007071J-0007071D01*
G01*
X0770941Y0873027D02*
G03*
X0768012Y0865956I0007071J-0007071D01*
G01*
X0773303Y0868697D02*
G03*
X0770374Y0861625I0007071J-0007071D01*
G01*
X0789492Y0884886D02*
G03*
X0792421Y0891957I-0007071J0007071D01*
G01*
X0768493Y0876878D02*
G03*
X0765650Y0870015I0006864J-0006864D01*
G01*
X0790453Y0912224D02*
G03*
X0787303Y0909075I0000000J-0003150D01*
G01*
X0842027Y0893720D02*
Y0896083D01*
Y0893720D02*
X0848720Y0887027D01*
X0862027Y0896083D02*
X0862894D01*
X0877461Y0881516D01*
X0826909Y0912224D02*
X0832421Y0906713D01*
X0790453Y0912224D02*
X0826909D01*
X0773303Y0704177D02*
X0862721Y0614760D01*
X0770374Y0711248D02*
Y0861625D01*
X0770941Y0702996D02*
X0860358Y0613579D01*
X0768012Y0710067D02*
Y0865956D01*
X0768578Y0701421D02*
X0857996Y0612004D01*
X0765650Y0708493D02*
Y0870015D01*
X0766216Y0699847D02*
X0855634Y0610429D01*
X0763287Y0706918D02*
Y0871468D01*
X0763854Y0699059D02*
X0853272Y0609642D01*
X0860925Y0380728D02*
Y0604933D01*
X0856201Y0386240D02*
Y0602570D01*
X0866831Y0354350D02*
X0878248D01*
X0868406Y0356713D02*
X0877461D01*
X0863681Y0361437D02*
X0868406Y0356713D01*
X0872392Y0333090D02*
Y0338553D01*
X0874311Y0342146D02*
X0875541Y0340915D01*
Y0333090D02*
Y0340915D01*
X0861713Y0344114D02*
X0876280D01*
X0878691Y0341703D01*
Y0333090D02*
Y0341703D01*
X0878248Y0354350D02*
X0883415Y0359518D01*
Y0365374D01*
X0877461Y0356713D02*
X0880266Y0359518D01*
X0836909Y0851201D02*
X0842815D01*
X0862894Y0871280D01*
Y0877185D01*
X0858169Y0881909D02*
X0862894Y0877185D01*
X0869587Y0851594D02*
Y0875610D01*
X0866831Y0848839D02*
X0869587Y0851594D01*
X0850689Y0848839D02*
X0866831D01*
X0860532Y0884665D02*
X0869587Y0875610D01*
X0836516Y0848051D02*
X0849901D01*
X0850689Y0848839D01*
X0853051Y0846083D02*
X0868012D01*
X0851476Y0844508D02*
X0853051Y0846083D01*
X0837175Y0841596D02*
X0846358D01*
X0837303Y0838602D02*
X0843996D01*
X0836909Y0844901D02*
X0837303Y0844508D01*
X0851476D01*
X0873917Y0350020D02*
Y0350413D01*
X0881841Y0333090D02*
Y0340571D01*
X0832028Y0893878D02*
Y0896083D01*
Y0893878D02*
X0841240Y0884665D01*
X0860532D01*
X0822027Y0893642D02*
Y0896083D01*
Y0893642D02*
X0833760Y0881909D01*
X0858169D01*
X0812027Y0893012D02*
Y0896083D01*
X0852028Y0893169D02*
Y0896712D01*
Y0893169D02*
X0855413Y0889783D01*
X0864468D01*
X0848720Y0887027D02*
X0862894D01*
X0864468Y0889783D02*
X0875098Y0879154D01*
X0868012Y0846083D02*
X0872342Y0850413D01*
Y0877579D01*
X0862894Y0887027D02*
X0872342Y0877579D01*
X0846358Y0841596D02*
X0856439Y0831516D01*
X0843996Y0838602D02*
X0854626Y0827972D01*
X0871555D01*
X0877461Y0833878D01*
Y0881516D01*
X0836909Y0835059D02*
X0842421D01*
X0853051Y0824429D01*
X0875098D01*
X0871555Y0339390D02*
X0872392Y0338553D01*
X0858563Y0342146D02*
X0874311D01*
X0861319Y0359862D02*
X0866831Y0354350D01*
X0858563Y0382697D02*
Y0603358D01*
X0861319Y0359862D02*
Y0377185D01*
X0863287Y0379153D01*
Y0606507D01*
X0863681Y0361437D02*
Y0376004D01*
X0865650Y0377972D01*
Y0607689D01*
X0884990Y0333090D02*
Y0342096D01*
X0882579Y0353169D02*
X0883760D01*
X0891289Y0345640D01*
Y0333090D02*
Y0345640D01*
X0878642Y0350807D02*
X0881398D01*
X0888140Y0344065D01*
Y0333090D02*
Y0344065D01*
X0873917Y0350020D02*
X0876280Y0347657D01*
X0879429D01*
X0884990Y0342096D01*
X0832972Y0854350D02*
X0837303D01*
X0828248Y0859075D02*
X0832972Y0854350D01*
X0828248Y0859075D02*
Y0876791D01*
X0812027Y0893012D02*
X0828248Y0876791D01*
X0804891Y0846320D02*
X0815100D01*
X0818012Y0849232D01*
Y0856713D01*
X0807776Y0866949D02*
X0818012Y0856713D01*
X0800295Y0866949D02*
X0807776D01*
X0797933Y0869311D02*
X0800295Y0866949D01*
X0797933Y0876791D02*
X0802264Y0881122D01*
Y0895846D01*
X0802028Y0896083D02*
X0802264Y0895846D01*
X0797933Y0869311D02*
Y0876791D01*
X0864862Y0336634D02*
X0867618Y0339390D01*
X0863681Y0336634D02*
X0864862D01*
X0867618Y0339390D02*
X0871555D01*
X0858563Y0347264D02*
X0861713Y0344114D01*
X0858563Y0347264D02*
Y0378366D01*
X0860925Y0380728D01*
X0856201Y0380335D02*
X0858563Y0382697D01*
X0856201Y0344508D02*
Y0380335D01*
Y0344508D02*
X0858563Y0342146D01*
X0825886Y0850807D02*
Y0874823D01*
X0818250Y0843171D02*
X0825886Y0850807D01*
X0804891Y0843171D02*
X0818250D01*
X0792421Y0891957D02*
Y0896712D01*
X0773303Y0868697D02*
X0789492Y0884886D01*
X0807382Y0893327D02*
X0825886Y0874823D01*
X0807382Y0893327D02*
Y0901752D01*
X0802421Y0906713D02*
X0807382Y0901752D01*
X0880266Y0359518D02*
Y0365374D01*
X0766216Y0878539D02*
X0777165Y0889488D01*
X0770941Y0873027D02*
X0785335Y0887421D01*
X0768493Y0876878D02*
X0781398Y0889783D01*
X0783760D01*
X0787303Y0893327D01*
Y0909075D01*
X0767421Y0902480D02*
X0773524D01*
X0777165Y0889488D02*
Y0903661D01*
X0773917Y0906909D02*
X0777165Y0903661D01*
X0769882Y0906909D02*
X0773917D01*
X0872421Y0893445D02*
X0881791Y0884075D01*
X0872421Y0893445D02*
Y0896712D01*
X0856439Y0831516D02*
X0870275D01*
X0875098Y0836339D01*
Y0879154D01*
X0875098Y0824429D02*
X0890059Y0839390D01*
X0881791Y0884075D02*
X0888091D01*
X0890059Y0882106D01*
Y0839390D02*
Y0882106D01*
X0760925Y0895984D02*
X0767421Y0902480D01*
X0760925Y0706130D02*
Y0895984D01*
D12*
X0870817Y0365374D02*
D03*
X0873967D02*
D03*
X0867667Y0365374D02*
D03*
X0877116D02*
D03*
X0880266D02*
D03*
X0883415D02*
D03*
X0886565D02*
D03*
X0889715D02*
D03*
X0892864D02*
D03*
X0896014D02*
D03*
X0897589Y0333090D02*
D03*
X0894439D02*
D03*
X0891289D02*
D03*
X0888140D02*
D03*
X0884990D02*
D03*
X0881841D02*
D03*
X0878691D02*
D03*
X0875541Y0333090D02*
D03*
X0872392D02*
D03*
X0869242Y0333090D02*
D03*
D13*
X0804891Y0833722D02*
D03*
Y0836872D02*
D03*
X0837175Y0860494D02*
D03*
X0837175Y0857344D02*
D03*
Y0854194D02*
D03*
X0837175Y0851045D02*
D03*
Y0847895D02*
D03*
Y0844746D02*
D03*
Y0841596D02*
D03*
Y0838447D02*
D03*
Y0835297D02*
D03*
Y0832147D02*
D03*
X0804891Y0830573D02*
D03*
Y0840021D02*
D03*
Y0843171D02*
D03*
Y0846320D02*
D03*
Y0849470D02*
D03*
X0804891Y0852620D02*
D03*
Y0855769D02*
D03*
X0804891Y0858919D02*
D03*
D14*
X0845177Y0333484D02*
D03*
D15*
X0913878Y0354547D02*
D03*
X0845177Y0366319D02*
D03*
D16*
X0913878Y0344547D02*
D03*
X0845177Y0356319D02*
D03*
D17*
X0796281Y0826483D02*
D03*
Y0864283D02*
D03*
Y0845381D02*
D03*
D18*
X0853824Y0873483D02*
D03*
X0824281Y0817383D02*
D03*
X0863681D02*
D03*
X0834081D02*
D03*
X0852581D02*
D03*
X0863681Y0839783D02*
D03*
Y0860983D02*
D03*
X0883381Y0873483D02*
D03*
X0843981D02*
D03*
X0834081D02*
D03*
X0814481D02*
D03*
X0804581D02*
D03*
X0814481Y0817383D02*
D03*
D19*
X0821033Y0826635D02*
D03*
X0820836Y0864529D02*
D03*
X0901525Y0349232D02*
D03*
X0863632Y0349035D02*
D03*
D20*
X0792421Y0896712D02*
D03*
D21*
X0802421D02*
D03*
X0812421D02*
D03*
X0822421D02*
D03*
X0832421D02*
D03*
X0842421D02*
D03*
X0852421D02*
D03*
X0862421D02*
D03*
X0872421D02*
D03*
X0792421Y0906713D02*
D03*
X0802421D02*
D03*
X0812421D02*
D03*
X0822421D02*
D03*
X0832421D02*
D03*
X0842421D02*
D03*
X0852421D02*
D03*
X0862421D02*
D03*
X0872421D02*
D03*
X0782421D02*
D03*
X0882421D02*
D03*
D22*
X0782421Y0896712D02*
D03*
X0882421D02*
D03*
D23*
X0797543Y0839359D02*
D03*
X0794181D02*
D03*
X0790819D02*
D03*
X0787520Y0838710D02*
D03*
X0784729Y0836835D02*
D03*
X0784724Y0730257D02*
D03*
X0786752Y0727575D02*
D03*
X0789126Y0725195D02*
D03*
X0791504Y0722818D02*
D03*
X0793881Y0720440D02*
D03*
X0796259Y0718063D02*
D03*
X0798636Y0715686D02*
D03*
X0801013Y0713308D02*
D03*
X0803391Y0710931D02*
D03*
X0805768Y0708553D02*
D03*
X0808146Y0706176D02*
D03*
X0810523Y0703798D02*
D03*
X0812901Y0701421D02*
D03*
X0815278Y0699044D02*
D03*
X0817656Y0696666D02*
D03*
X0820033Y0694289D02*
D03*
X0822410Y0691911D02*
D03*
X0824788Y0689534D02*
D03*
X0827165Y0687156D02*
D03*
X0829543Y0684779D02*
D03*
X0831920Y0682402D02*
D03*
X0834298Y0680024D02*
D03*
X0836675Y0677647D02*
D03*
X0839052Y0675269D02*
D03*
X0841430Y0672892D02*
D03*
X0843807Y0670514D02*
D03*
X0846185Y0668137D02*
D03*
X0848562Y0665759D02*
D03*
X0850940Y0663382D02*
D03*
X0853317Y0661005D02*
D03*
X0855694Y0658627D02*
D03*
X0858072Y0656250D02*
D03*
X0860449Y0653872D02*
D03*
X0862827Y0651495D02*
D03*
X0865204Y0649117D02*
D03*
X0867582Y0646740D02*
D03*
X0869959Y0644362D02*
D03*
X0872337Y0641985D02*
D03*
X0874714Y0639608D02*
D03*
X0877091Y0637230D02*
D03*
X0879469Y0634853D02*
D03*
X0881846Y0632475D02*
D03*
X0884192Y0630067D02*
D03*
X0886028Y0627250D02*
D03*
X0886931Y0624011D02*
D03*
X0887029Y0620650D02*
D03*
Y0617288D02*
D03*
Y0613926D02*
D03*
Y0610564D02*
D03*
Y0607202D02*
D03*
Y0603839D02*
D03*
Y0600477D02*
D03*
Y0597115D02*
D03*
Y0593753D02*
D03*
Y0590391D02*
D03*
Y0587029D02*
D03*
Y0583666D02*
D03*
Y0580304D02*
D03*
Y0576942D02*
D03*
Y0573580D02*
D03*
Y0570218D02*
D03*
Y0566855D02*
D03*
Y0563493D02*
D03*
Y0560131D02*
D03*
Y0556769D02*
D03*
Y0553406D02*
D03*
Y0550044D02*
D03*
Y0546682D02*
D03*
Y0543320D02*
D03*
Y0539958D02*
D03*
Y0536595D02*
D03*
Y0533233D02*
D03*
Y0529871D02*
D03*
Y0526509D02*
D03*
Y0523147D02*
D03*
Y0519784D02*
D03*
Y0516422D02*
D03*
Y0513060D02*
D03*
Y0509698D02*
D03*
Y0506336D02*
D03*
Y0502974D02*
D03*
Y0499611D02*
D03*
Y0496249D02*
D03*
Y0492887D02*
D03*
Y0489525D02*
D03*
Y0486163D02*
D03*
Y0482800D02*
D03*
Y0479438D02*
D03*
Y0476076D02*
D03*
Y0472714D02*
D03*
Y0469351D02*
D03*
Y0465989D02*
D03*
Y0462627D02*
D03*
Y0459265D02*
D03*
Y0455903D02*
D03*
Y0452540D02*
D03*
Y0449178D02*
D03*
Y0445816D02*
D03*
Y0442454D02*
D03*
Y0439092D02*
D03*
Y0435730D02*
D03*
Y0432367D02*
D03*
Y0429005D02*
D03*
Y0425643D02*
D03*
Y0422281D02*
D03*
Y0418919D02*
D03*
Y0415556D02*
D03*
Y0412194D02*
D03*
Y0408832D02*
D03*
Y0405470D02*
D03*
Y0402107D02*
D03*
Y0398745D02*
D03*
Y0395383D02*
D03*
Y0392021D02*
D03*
Y0388659D02*
D03*
Y0385297D02*
D03*
Y0381934D02*
D03*
Y0378572D02*
D03*
Y0375210D02*
D03*
Y0371848D02*
D03*
X0888667Y0359226D02*
D03*
X0892029Y0359213D02*
D03*
X0895338Y0359809D02*
D03*
X0895550Y0373149D02*
D03*
Y0376511D02*
D03*
Y0379873D02*
D03*
Y0383235D02*
D03*
Y0386597D02*
D03*
Y0389960D02*
D03*
Y0393322D02*
D03*
Y0396684D02*
D03*
Y0400046D02*
D03*
Y0403408D02*
D03*
Y0406771D02*
D03*
Y0410133D02*
D03*
Y0413495D02*
D03*
Y0416857D02*
D03*
Y0420219D02*
D03*
Y0423582D02*
D03*
Y0426944D02*
D03*
Y0430306D02*
D03*
Y0433668D02*
D03*
Y0437030D02*
D03*
Y0440393D02*
D03*
Y0443755D02*
D03*
Y0447117D02*
D03*
Y0450479D02*
D03*
Y0453841D02*
D03*
Y0457204D02*
D03*
Y0460566D02*
D03*
Y0463928D02*
D03*
Y0467290D02*
D03*
Y0470652D02*
D03*
Y0474015D02*
D03*
Y0477377D02*
D03*
Y0480739D02*
D03*
Y0484101D02*
D03*
Y0487463D02*
D03*
Y0490826D02*
D03*
Y0494188D02*
D03*
Y0497550D02*
D03*
Y0500912D02*
D03*
Y0504274D02*
D03*
Y0507637D02*
D03*
Y0510999D02*
D03*
Y0514361D02*
D03*
Y0517723D02*
D03*
Y0521085D02*
D03*
Y0524448D02*
D03*
Y0527810D02*
D03*
Y0531172D02*
D03*
Y0534534D02*
D03*
Y0537896D02*
D03*
Y0541259D02*
D03*
Y0544621D02*
D03*
Y0547983D02*
D03*
Y0551345D02*
D03*
Y0554707D02*
D03*
Y0558070D02*
D03*
Y0561432D02*
D03*
Y0564794D02*
D03*
Y0568156D02*
D03*
Y0571518D02*
D03*
Y0574881D02*
D03*
Y0578243D02*
D03*
Y0581605D02*
D03*
Y0584967D02*
D03*
Y0588329D02*
D03*
Y0591692D02*
D03*
Y0595054D02*
D03*
Y0598416D02*
D03*
Y0601778D02*
D03*
Y0605140D02*
D03*
Y0608503D02*
D03*
Y0611865D02*
D03*
Y0615227D02*
D03*
Y0618589D02*
D03*
Y0621951D02*
D03*
Y0625314D02*
D03*
X0895179Y0628655D02*
D03*
X0893925Y0631775D02*
D03*
X0891927Y0634479D02*
D03*
X0889533Y0636839D02*
D03*
X0887155Y0639217D02*
D03*
X0884778Y0641594D02*
D03*
X0882400Y0643972D02*
D03*
X0880023Y0646349D02*
D03*
X0877645Y0648727D02*
D03*
X0875268Y0651104D02*
D03*
X0872891Y0653481D02*
D03*
X0870513Y0655859D02*
D03*
X0868136Y0658236D02*
D03*
X0865758Y0660614D02*
D03*
X0863381Y0662991D02*
D03*
X0861003Y0665369D02*
D03*
X0858626Y0667746D02*
D03*
X0856248Y0670123D02*
D03*
X0853871Y0672501D02*
D03*
X0851494Y0674878D02*
D03*
X0849116Y0677256D02*
D03*
X0846739Y0679633D02*
D03*
X0844361Y0682011D02*
D03*
X0841984Y0684388D02*
D03*
X0839606Y0686765D02*
D03*
X0837229Y0689143D02*
D03*
X0834852Y0691520D02*
D03*
X0832474Y0693898D02*
D03*
X0830097Y0696275D02*
D03*
X0827719Y0698653D02*
D03*
X0825342Y0701030D02*
D03*
X0822964Y0703407D02*
D03*
X0820587Y0705785D02*
D03*
X0818210Y0708162D02*
D03*
X0815832Y0710540D02*
D03*
X0813455Y0712917D02*
D03*
X0811077Y0715295D02*
D03*
X0808700Y0717672D02*
D03*
X0806322Y0720049D02*
D03*
X0803945Y0722427D02*
D03*
X0801567Y0724804D02*
D03*
X0799190Y0727182D02*
D03*
X0796813Y0729559D02*
D03*
X0794435Y0731937D02*
D03*
X0792155Y0734408D02*
D03*
X0790971Y0737554D02*
D03*
X0790873Y0740915D02*
D03*
Y0744277D02*
D03*
Y0747640D02*
D03*
Y0751002D02*
D03*
Y0754364D02*
D03*
Y0757726D02*
D03*
Y0761088D02*
D03*
Y0764451D02*
D03*
Y0767813D02*
D03*
Y0771175D02*
D03*
Y0774537D02*
D03*
Y0777899D02*
D03*
Y0781262D02*
D03*
Y0784624D02*
D03*
Y0787986D02*
D03*
Y0791348D02*
D03*
Y0794710D02*
D03*
Y0798073D02*
D03*
Y0801435D02*
D03*
Y0804797D02*
D03*
Y0808159D02*
D03*
Y0811521D02*
D03*
Y0814884D02*
D03*
Y0818246D02*
D03*
Y0821608D02*
D03*
Y0824970D02*
D03*
Y0828332D02*
D03*
X0792571Y0831235D02*
D03*
X0795933D02*
D03*
X0799295D02*
D03*
X0811052Y0833479D02*
D03*
Y0836841D02*
D03*
X0784559Y0718092D02*
D03*
X0782897Y0707704D02*
D03*
X0780519Y0710082D02*
D03*
X0785274Y0705327D02*
D03*
X0796331Y0858455D02*
D03*
X0792969D02*
D03*
X0789607D02*
D03*
X0786244D02*
D03*
X0782902Y0858092D02*
D03*
X0779781Y0856842D02*
D03*
X0777085Y0854832D02*
D03*
X0775053Y0852154D02*
D03*
X0773786Y0849039D02*
D03*
X0773396Y0845700D02*
D03*
Y0842338D02*
D03*
Y0838975D02*
D03*
Y0835613D02*
D03*
Y0832251D02*
D03*
Y0828889D02*
D03*
Y0825527D02*
D03*
Y0822164D02*
D03*
Y0818802D02*
D03*
Y0815440D02*
D03*
Y0812078D02*
D03*
Y0808716D02*
D03*
Y0805353D02*
D03*
Y0801991D02*
D03*
Y0798629D02*
D03*
Y0795267D02*
D03*
Y0791905D02*
D03*
Y0788542D02*
D03*
Y0785180D02*
D03*
Y0781818D02*
D03*
Y0778456D02*
D03*
Y0775094D02*
D03*
Y0771731D02*
D03*
Y0768369D02*
D03*
Y0765007D02*
D03*
Y0761645D02*
D03*
Y0758283D02*
D03*
Y0754920D02*
D03*
Y0751558D02*
D03*
Y0748196D02*
D03*
Y0744834D02*
D03*
Y0741472D02*
D03*
Y0738109D02*
D03*
Y0734747D02*
D03*
Y0731385D02*
D03*
Y0728023D02*
D03*
Y0724661D02*
D03*
X0773599Y0721305D02*
D03*
X0774492Y0718063D02*
D03*
X0776026Y0715071D02*
D03*
X0778136Y0712453D02*
D03*
X0787651Y0702950D02*
D03*
X0790029Y0700572D02*
D03*
X0792406Y0698195D02*
D03*
X0794784Y0695817D02*
D03*
X0797161Y0693440D02*
D03*
X0799539Y0691062D02*
D03*
X0801916Y0688685D02*
D03*
X0804294Y0686308D02*
D03*
X0806671Y0683930D02*
D03*
X0809048Y0681553D02*
D03*
X0811426Y0679175D02*
D03*
X0813803Y0676798D02*
D03*
X0816181Y0674420D02*
D03*
X0818558Y0672043D02*
D03*
X0820936Y0669666D02*
D03*
X0823313Y0667288D02*
D03*
X0825690Y0664911D02*
D03*
X0828068Y0662533D02*
D03*
X0830445Y0660156D02*
D03*
X0832823Y0657778D02*
D03*
X0835200Y0655401D02*
D03*
X0837578Y0653023D02*
D03*
X0839955Y0650646D02*
D03*
X0842332Y0648269D02*
D03*
X0844710Y0645891D02*
D03*
X0847087Y0643514D02*
D03*
X0849465Y0641136D02*
D03*
X0851842Y0638759D02*
D03*
X0854220Y0636381D02*
D03*
X0856597Y0634004D02*
D03*
X0858975Y0631627D02*
D03*
X0861352Y0629249D02*
D03*
X0863729Y0626872D02*
D03*
X0866094Y0624481D02*
D03*
X0867768Y0621566D02*
D03*
X0868131Y0618223D02*
D03*
Y0614861D02*
D03*
Y0611499D02*
D03*
Y0608137D02*
D03*
Y0604775D02*
D03*
Y0601412D02*
D03*
Y0598050D02*
D03*
Y0594688D02*
D03*
Y0591326D02*
D03*
Y0587963D02*
D03*
Y0584601D02*
D03*
Y0581239D02*
D03*
Y0577877D02*
D03*
Y0574515D02*
D03*
Y0571152D02*
D03*
Y0567790D02*
D03*
Y0564428D02*
D03*
Y0561066D02*
D03*
Y0557704D02*
D03*
Y0554342D02*
D03*
Y0550979D02*
D03*
Y0547617D02*
D03*
Y0544255D02*
D03*
Y0540893D02*
D03*
Y0537531D02*
D03*
Y0534168D02*
D03*
Y0530806D02*
D03*
Y0527444D02*
D03*
Y0524082D02*
D03*
Y0520719D02*
D03*
Y0517357D02*
D03*
Y0513995D02*
D03*
Y0510633D02*
D03*
Y0507271D02*
D03*
Y0503908D02*
D03*
Y0500546D02*
D03*
Y0497184D02*
D03*
Y0493822D02*
D03*
Y0490460D02*
D03*
Y0487098D02*
D03*
Y0483735D02*
D03*
Y0480373D02*
D03*
Y0477011D02*
D03*
Y0473649D02*
D03*
Y0470287D02*
D03*
Y0466924D02*
D03*
Y0463562D02*
D03*
Y0460200D02*
D03*
Y0456838D02*
D03*
Y0453476D02*
D03*
Y0450113D02*
D03*
Y0446751D02*
D03*
Y0443389D02*
D03*
Y0440027D02*
D03*
Y0436664D02*
D03*
Y0433302D02*
D03*
Y0429940D02*
D03*
Y0426578D02*
D03*
Y0423216D02*
D03*
Y0419853D02*
D03*
Y0416491D02*
D03*
Y0413129D02*
D03*
Y0409767D02*
D03*
Y0406405D02*
D03*
Y0403043D02*
D03*
Y0399680D02*
D03*
Y0396318D02*
D03*
Y0392956D02*
D03*
Y0389594D02*
D03*
Y0386231D02*
D03*
Y0382869D02*
D03*
Y0379507D02*
D03*
Y0376145D02*
D03*
Y0372783D02*
D03*
X0872067Y0359266D02*
D03*
X0875429Y0359308D02*
D03*
X0876652Y0372228D02*
D03*
Y0375590D02*
D03*
Y0378952D02*
D03*
Y0382314D02*
D03*
Y0385677D02*
D03*
Y0389039D02*
D03*
Y0392401D02*
D03*
Y0395763D02*
D03*
Y0399125D02*
D03*
Y0402488D02*
D03*
Y0405850D02*
D03*
Y0409212D02*
D03*
Y0412574D02*
D03*
Y0415936D02*
D03*
Y0419299D02*
D03*
Y0422661D02*
D03*
Y0426023D02*
D03*
Y0429385D02*
D03*
Y0432747D02*
D03*
Y0436110D02*
D03*
Y0439472D02*
D03*
Y0442834D02*
D03*
Y0446196D02*
D03*
Y0449558D02*
D03*
Y0452921D02*
D03*
Y0456283D02*
D03*
Y0459645D02*
D03*
Y0463007D02*
D03*
Y0466369D02*
D03*
Y0469732D02*
D03*
Y0473094D02*
D03*
Y0476456D02*
D03*
Y0479818D02*
D03*
Y0483180D02*
D03*
Y0486543D02*
D03*
Y0489905D02*
D03*
Y0493267D02*
D03*
Y0496629D02*
D03*
Y0499991D02*
D03*
Y0503354D02*
D03*
Y0506716D02*
D03*
Y0510078D02*
D03*
Y0513440D02*
D03*
Y0516802D02*
D03*
Y0520165D02*
D03*
Y0523527D02*
D03*
Y0526889D02*
D03*
Y0530251D02*
D03*
Y0533613D02*
D03*
Y0536976D02*
D03*
Y0540338D02*
D03*
Y0543700D02*
D03*
Y0547062D02*
D03*
Y0550424D02*
D03*
Y0553787D02*
D03*
Y0557149D02*
D03*
Y0560511D02*
D03*
Y0563873D02*
D03*
Y0567235D02*
D03*
Y0570598D02*
D03*
Y0573960D02*
D03*
Y0577322D02*
D03*
Y0580684D02*
D03*
Y0584046D02*
D03*
Y0587409D02*
D03*
Y0590771D02*
D03*
Y0594133D02*
D03*
Y0597495D02*
D03*
Y0600857D02*
D03*
Y0604220D02*
D03*
Y0607582D02*
D03*
Y0610944D02*
D03*
Y0614306D02*
D03*
Y0617668D02*
D03*
X0876550Y0621029D02*
D03*
X0875861Y0624320D02*
D03*
X0874480Y0627386D02*
D03*
X0872501Y0630103D02*
D03*
X0870147Y0632504D02*
D03*
X0867770Y0634882D02*
D03*
X0865392Y0637259D02*
D03*
X0863015Y0639637D02*
D03*
X0860637Y0642014D02*
D03*
X0858260Y0644391D02*
D03*
X0855883Y0646769D02*
D03*
X0853505Y0649146D02*
D03*
X0851128Y0651524D02*
D03*
X0848750Y0653901D02*
D03*
X0846373Y0656279D02*
D03*
X0843995Y0658656D02*
D03*
X0841618Y0661033D02*
D03*
X0839240Y0663411D02*
D03*
X0836863Y0665788D02*
D03*
X0834486Y0668166D02*
D03*
X0832108Y0670543D02*
D03*
X0829731Y0672921D02*
D03*
X0827353Y0675298D02*
D03*
X0824976Y0677676D02*
D03*
X0822598Y0680053D02*
D03*
X0820221Y0682430D02*
D03*
X0817844Y0684808D02*
D03*
X0815466Y0687185D02*
D03*
X0813089Y0689563D02*
D03*
X0810711Y0691940D02*
D03*
X0808334Y0694318D02*
D03*
X0805956Y0696695D02*
D03*
X0803579Y0699073D02*
D03*
X0801202Y0701450D02*
D03*
X0798824Y0703827D02*
D03*
X0796447Y0706205D02*
D03*
X0794069Y0708582D02*
D03*
X0791692Y0710960D02*
D03*
X0789314Y0713337D02*
D03*
X0786937Y0715715D02*
D03*
X0782571Y0720803D02*
D03*
X0781917Y0724101D02*
D03*
Y0727463D02*
D03*
Y0730826D02*
D03*
Y0734188D02*
D03*
Y0737550D02*
D03*
Y0740912D02*
D03*
Y0744274D02*
D03*
Y0747637D02*
D03*
Y0750999D02*
D03*
Y0754361D02*
D03*
Y0757723D02*
D03*
Y0761085D02*
D03*
Y0764447D02*
D03*
Y0767810D02*
D03*
Y0771172D02*
D03*
Y0774534D02*
D03*
Y0777896D02*
D03*
Y0781258D02*
D03*
Y0784621D02*
D03*
Y0787983D02*
D03*
Y0791345D02*
D03*
Y0794707D02*
D03*
Y0798069D02*
D03*
Y0801432D02*
D03*
Y0804794D02*
D03*
Y0808156D02*
D03*
Y0811518D02*
D03*
Y0814880D02*
D03*
Y0818243D02*
D03*
Y0821605D02*
D03*
Y0824967D02*
D03*
Y0828329D02*
D03*
Y0831691D02*
D03*
Y0835054D02*
D03*
Y0838416D02*
D03*
Y0841778D02*
D03*
Y0845140D02*
D03*
X0782814Y0848381D02*
D03*
X0785809Y0849908D02*
D03*
X0789171Y0849934D02*
D03*
X0792533D02*
D03*
X0795895D02*
D03*
X0799258D02*
D03*
X0811052Y0852377D02*
D03*
Y0855739D02*
D03*
X0769882Y0906909D02*
D03*
X0756000Y0812000D02*
D03*
Y0826000D02*
D03*
Y0840000D02*
D03*
Y0854000D02*
D03*
Y0868000D02*
D03*
Y0882000D02*
D03*
Y0896000D02*
D03*
X0759500Y0903000D02*
D03*
X0756000Y0910000D02*
D03*
X0766500Y0889000D02*
D03*
X0763000Y0910000D02*
D03*
X0770000Y0896000D02*
D03*
X0787500Y0847000D02*
D03*
X0791000Y0868000D02*
D03*
X0798000Y0812000D02*
D03*
X0801500Y0819000D02*
D03*
X0805000Y0812000D02*
D03*
Y0826000D02*
D03*
X0812000D02*
D03*
X0815500Y0833000D02*
D03*
X0822500D02*
D03*
X0819000Y0840000D02*
D03*
X0829500Y0833000D02*
D03*
X0826000Y0840000D02*
D03*
X0829500Y0847000D02*
D03*
X0833000Y0826000D02*
D03*
X0836500Y0903000D02*
D03*
X0843500Y0819000D02*
D03*
X0840000Y0826000D02*
D03*
X0843500Y0861000D02*
D03*
X0847000Y0826000D02*
D03*
Y0910000D02*
D03*
X0854000Y0840000D02*
D03*
Y0854000D02*
D03*
X0857500Y0861000D02*
D03*
X0861000Y0854000D02*
D03*
X0871500Y0819000D02*
D03*
X0868000Y0910000D02*
D03*
X0878500Y0819000D02*
D03*
X0885500D02*
D03*
X0882000Y0826000D02*
D03*
Y0840000D02*
D03*
X0885500Y0847000D02*
D03*
X0882000Y0854000D02*
D03*
X0885500Y0861000D02*
D03*
Y0889000D02*
D03*
Y0903000D02*
D03*
X0889000Y0826000D02*
D03*
Y0896000D02*
D03*
Y0910000D02*
D03*
X0843504Y0865866D02*
D03*
X0849213Y0865374D02*
D03*
D24*
X0856201Y0386240D02*
D03*
X0882579Y0353169D02*
D03*
X0878642Y0350807D02*
D03*
X0873917Y0350413D02*
D03*
X0881841Y0340571D02*
D03*
X0863681Y0336634D02*
D03*
X0785335Y0887815D02*
D03*
X0773524Y0902480D02*
D03*
M02*
