G04 Layer_Color=65535*
%FSAX25Y25*%
%MOIN*%
G70*
G01*
G75*
%ADD10C,0.01000*%
%ADD25C,0.02500*%
%ADD26C,0.00787*%
%ADD27R,0.07579X0.24016*%
D10*
X0900148Y0335453D02*
X0905266D01*
Y0365276D01*
X0867864Y0338504D02*
X0867963Y0359272D01*
X0865699D02*
X0867963D01*
X0865699D02*
Y0365768D01*
X0860187D02*
X0865699D01*
X0860187Y0335649D02*
Y0365768D01*
Y0335649D02*
X0867274D01*
Y0337815D01*
X0867864Y0338504D01*
X0900148Y0335453D02*
Y0338701D01*
X0897982D02*
X0900148D01*
X0897982D02*
Y0360059D01*
X0898770Y0360157D01*
Y0365276D01*
X0905266D01*
X0807253Y0822895D02*
Y0828013D01*
Y0822895D02*
X0837076D01*
X0810305Y0860297D02*
X0831072Y0860198D01*
Y0862462D01*
X0837568D01*
Y0867974D01*
X0807450D02*
X0837568D01*
X0807450Y0860887D02*
Y0867974D01*
Y0860887D02*
X0809616D01*
X0810305Y0860297D01*
X0807253Y0828013D02*
X0810501D01*
Y0830179D01*
X0831860D01*
X0831958Y0829391D01*
X0837076D01*
Y0822895D02*
Y0829391D01*
X0814481Y0812483D02*
X0892421D01*
Y0878647D01*
X0791281Y0812483D02*
X0814481D01*
X0791281Y0878647D02*
X0892421D01*
X0791281Y0860041D02*
Y0878647D01*
Y0812483D02*
Y0829541D01*
X0872146Y0882598D02*
Y0888596D01*
X0875145D01*
X0876144Y0887597D01*
Y0885597D01*
X0875145Y0884598D01*
X0872146D01*
X0878144Y0882598D02*
X0880143D01*
X0879143D01*
Y0888596D01*
X0878144Y0887597D01*
X0891302Y0325884D02*
X0890302Y0326884D01*
X0888303D01*
X0887303Y0325884D01*
Y0321885D01*
X0888303Y0320886D01*
X0890302D01*
X0891302Y0321885D01*
X0896300Y0326884D02*
X0894301D01*
X0893301Y0325884D01*
Y0321885D01*
X0894301Y0320886D01*
X0896300D01*
X0897300Y0321885D01*
Y0325884D01*
X0896300Y0326884D01*
X0899299Y0320886D02*
Y0326884D01*
X0903298Y0320886D01*
Y0326884D01*
X0909296Y0320886D02*
X0905297D01*
X0909296Y0324885D01*
Y0325884D01*
X0908296Y0326884D01*
X0906297D01*
X0905297Y0325884D01*
X0764530Y0877459D02*
X0763530Y0878459D01*
X0761531D01*
X0760532Y0877459D01*
Y0873460D01*
X0761531Y0872461D01*
X0763530D01*
X0764530Y0873460D01*
X0769528Y0878459D02*
X0767529D01*
X0766530Y0877459D01*
Y0873460D01*
X0767529Y0872461D01*
X0769528D01*
X0770528Y0873460D01*
Y0877459D01*
X0769528Y0878459D01*
X0772528Y0872461D02*
Y0878459D01*
X0776526Y0872461D01*
Y0878459D01*
X0778526Y0872461D02*
X0780525D01*
X0779525D01*
Y0878459D01*
X0778526Y0877459D01*
D25*
X0905197Y0368732D02*
G03*
X0905197Y0368732I-0001118J0000000D01*
G01*
D26*
X0877421Y0891712D02*
Y0911712D01*
Y0891712D02*
X0887421D01*
Y0911712D01*
X0877421D02*
X0887421D01*
X0777421Y0891712D02*
Y0911712D01*
Y0891712D02*
X0787421D01*
Y0911712D01*
X0777421D02*
X0787421D01*
Y0891712D02*
Y0911712D01*
X0877421D01*
X0787421Y0891712D02*
X0877421D01*
Y0911712D01*
X0879079Y0374732D02*
X0882079Y0371732D01*
X0885079Y0374732D01*
X0879079D02*
X0885079D01*
X0840177Y0371319D02*
X0850177D01*
Y0351319D02*
Y0371319D01*
X0840177Y0351319D02*
X0850177D01*
X0840177D02*
Y0371319D01*
X0908878Y0359547D02*
X0918878D01*
Y0339547D02*
Y0359547D01*
X0908878Y0339547D02*
X0918878D01*
X0908878D02*
Y0359547D01*
X0810039Y0768031D02*
X0805316D01*
X0810039Y0771180D01*
X0805316D01*
X0810039Y0773541D02*
Y0775116D01*
X0809252Y0775903D01*
X0807678D01*
X0806891Y0775116D01*
Y0773541D01*
X0807678Y0772754D01*
X0809252D01*
X0810039Y0773541D01*
Y0777477D02*
X0809252D01*
Y0778264D01*
X0810039D01*
Y0777477D01*
X0806891Y0742441D02*
X0810039Y0744015D01*
X0806891Y0745589D01*
X0806104Y0747164D02*
X0805316Y0747951D01*
Y0749525D01*
X0806104Y0750312D01*
X0809252D01*
X0810039Y0749525D01*
Y0747951D01*
X0809252Y0747164D01*
X0806104D01*
X0810039Y0751887D02*
X0809252D01*
Y0752674D01*
X0810039D01*
Y0751887D01*
Y0758184D02*
X0805316D01*
X0807678Y0755822D01*
Y0758971D01*
X0797934Y0742441D02*
X0800296D01*
X0801083Y0743228D01*
X0800296Y0744015D01*
X0801083Y0744802D01*
X0800296Y0745589D01*
X0797934D01*
Y0747164D02*
X0800296D01*
X0801083Y0747951D01*
X0800296Y0748738D01*
X0801083Y0749525D01*
X0800296Y0750312D01*
X0797934D01*
Y0751887D02*
X0800296D01*
X0801083Y0752674D01*
X0800296Y0753461D01*
X0801083Y0754248D01*
X0800296Y0755035D01*
X0797934D01*
X0801083Y0756609D02*
X0800296D01*
Y0757397D01*
X0801083D01*
Y0756609D01*
Y0760545D02*
X0796360D01*
X0799508D02*
X0797934Y0762907D01*
X0799508Y0760545D02*
X0801083Y0762907D01*
Y0766055D02*
Y0767630D01*
X0800296Y0768417D01*
X0798721D01*
X0797934Y0767630D01*
Y0766055D01*
X0798721Y0765268D01*
X0800296D01*
X0801083Y0766055D01*
X0797934Y0769991D02*
X0801083D01*
X0799508D01*
X0798721Y0770778D01*
X0797934Y0771565D01*
Y0772353D01*
Y0774714D02*
X0800296D01*
X0801083Y0775501D01*
Y0777863D01*
X0797934D01*
Y0779437D02*
Y0782585D01*
X0801083Y0779437D01*
Y0782585D01*
X0797934Y0784947D02*
Y0786521D01*
X0798721Y0787308D01*
X0801083D01*
Y0784947D01*
X0800296Y0784160D01*
X0799508Y0784947D01*
Y0787308D01*
X0801083Y0788883D02*
X0800296D01*
Y0789670D01*
X0801083D01*
Y0788883D01*
Y0792818D02*
X0797934D01*
Y0795180D01*
X0798721Y0795967D01*
X0801083D01*
Y0799903D02*
Y0798328D01*
X0800296Y0797541D01*
X0798721D01*
X0797934Y0798328D01*
Y0799903D01*
X0798721Y0800690D01*
X0799508D01*
Y0797541D01*
X0797147Y0803051D02*
X0797934D01*
Y0802264D01*
Y0803838D01*
Y0803051D01*
X0800296D01*
X0801083Y0803838D01*
D27*
X0807037Y0792146D02*
D03*
M02*
