G04 Layer_Color=65535*
%FSAX25Y25*%
%MOIN*%
G70*
G01*
G75*
%ADD11C,0.01000*%
%ADD25C,0.02500*%
%ADD26C,0.00787*%
%ADD27R,0.07579X0.24016*%
D11*
X0791281Y0812483D02*
Y0829541D01*
Y0860041D02*
Y0878647D01*
X0892421D01*
X0791281Y0812483D02*
X0814481D01*
X0892421D02*
Y0878647D01*
X0814481Y0812483D02*
X0892421D01*
X0837076Y0822895D02*
Y0829391D01*
X0831958D02*
X0837076D01*
X0831860Y0830179D02*
X0831958Y0829391D01*
X0810501Y0830179D02*
X0831860D01*
X0810501Y0828013D02*
Y0830179D01*
X0807253Y0828013D02*
X0810501D01*
X0809616Y0860887D02*
X0810305Y0860297D01*
X0807450Y0860887D02*
X0809616D01*
X0807450D02*
Y0867974D01*
X0837568D01*
Y0862462D02*
Y0867974D01*
X0831072Y0862462D02*
X0837568D01*
X0831072Y0860198D02*
Y0862462D01*
X0810305Y0860297D02*
X0831072Y0860198D01*
X0807253Y0822895D02*
X0837076D01*
X0807253D02*
Y0828013D01*
X0898770Y0365276D02*
X0905266D01*
X0898770Y0360157D02*
Y0365276D01*
X0897982Y0360059D02*
X0898770Y0360157D01*
X0897982Y0338701D02*
Y0360059D01*
Y0338701D02*
X0900148D01*
Y0335453D02*
Y0338701D01*
X0867274Y0337815D02*
X0867864Y0338504D01*
X0867274Y0335649D02*
Y0337815D01*
X0860187Y0335649D02*
X0867274D01*
X0860187D02*
Y0365768D01*
X0865699D01*
Y0359272D02*
Y0365768D01*
Y0359272D02*
X0867963D01*
X0867864Y0338504D02*
X0867963Y0359272D01*
X0905266Y0335453D02*
Y0365276D01*
X0900148Y0335453D02*
X0905266D01*
X0764530Y0877459D02*
X0763530Y0878459D01*
X0761531D01*
X0760532Y0877459D01*
Y0873460D01*
X0761531Y0872461D01*
X0763530D01*
X0764530Y0873460D01*
X0769528Y0878459D02*
X0767529D01*
X0766530Y0877459D01*
Y0873460D01*
X0767529Y0872461D01*
X0769528D01*
X0770528Y0873460D01*
Y0877459D01*
X0769528Y0878459D01*
X0772528Y0872461D02*
Y0878459D01*
X0776526Y0872461D01*
Y0878459D01*
X0778526Y0872461D02*
X0780525D01*
X0779525D01*
Y0878459D01*
X0778526Y0877459D01*
X0891302Y0325884D02*
X0890302Y0326884D01*
X0888303D01*
X0887303Y0325884D01*
Y0321885D01*
X0888303Y0320886D01*
X0890302D01*
X0891302Y0321885D01*
X0896300Y0326884D02*
X0894301D01*
X0893301Y0325884D01*
Y0321885D01*
X0894301Y0320886D01*
X0896300D01*
X0897300Y0321885D01*
Y0325884D01*
X0896300Y0326884D01*
X0899299Y0320886D02*
Y0326884D01*
X0903298Y0320886D01*
Y0326884D01*
X0909296Y0320886D02*
X0905297D01*
X0909296Y0324885D01*
Y0325884D01*
X0908296Y0326884D01*
X0906297D01*
X0905297Y0325884D01*
X0872146Y0882598D02*
Y0888596D01*
X0875145D01*
X0876144Y0887597D01*
Y0885597D01*
X0875145Y0884598D01*
X0872146D01*
X0878144Y0882598D02*
X0880143D01*
X0879143D01*
Y0888596D01*
X0878144Y0887597D01*
D25*
X0905197Y0368732D02*
G03*
X0905197Y0368732I-0001118J0000000D01*
G01*
D26*
X0908878Y0339547D02*
Y0359547D01*
Y0339547D02*
X0918878D01*
Y0359547D01*
X0908878D02*
X0918878D01*
X0840177Y0351319D02*
Y0371319D01*
Y0351319D02*
X0850177D01*
Y0371319D01*
X0840177D02*
X0850177D01*
X0879079Y0374732D02*
X0885079D01*
X0882079Y0371732D02*
X0885079Y0374732D01*
X0879079D02*
X0882079Y0371732D01*
X0877421Y0891712D02*
Y0911712D01*
X0787421Y0891712D02*
X0877421D01*
X0787421Y0911712D02*
X0877421D01*
X0787421Y0891712D02*
Y0911712D01*
X0777421D02*
X0787421D01*
Y0891712D02*
Y0911712D01*
X0777421Y0891712D02*
X0787421D01*
X0777421D02*
Y0911712D01*
X0877421D02*
X0887421D01*
Y0891712D02*
Y0911712D01*
X0877421Y0891712D02*
X0887421D01*
X0877421D02*
Y0911712D01*
X0797343Y0738504D02*
X0799705D01*
X0800492Y0739291D01*
X0799705Y0740078D01*
X0800492Y0740865D01*
X0799705Y0741652D01*
X0797343D01*
Y0743227D02*
X0799705D01*
X0800492Y0744014D01*
X0799705Y0744801D01*
X0800492Y0745588D01*
X0799705Y0746375D01*
X0797343D01*
Y0747950D02*
X0799705D01*
X0800492Y0748737D01*
X0799705Y0749524D01*
X0800492Y0750311D01*
X0799705Y0751098D01*
X0797343D01*
X0800492Y0752672D02*
X0799705D01*
Y0753460D01*
X0800492D01*
Y0752672D01*
Y0756608D02*
X0795769D01*
X0798918D02*
X0797343Y0758970D01*
X0798918Y0756608D02*
X0800492Y0758970D01*
Y0762118D02*
Y0763693D01*
X0799705Y0764480D01*
X0798131D01*
X0797343Y0763693D01*
Y0762118D01*
X0798131Y0761331D01*
X0799705D01*
X0800492Y0762118D01*
X0797343Y0766054D02*
X0800492D01*
X0798918D01*
X0798131Y0766841D01*
X0797343Y0767628D01*
Y0768415D01*
Y0770777D02*
X0799705D01*
X0800492Y0771564D01*
Y0773925D01*
X0797343D01*
Y0775500D02*
Y0778648D01*
X0800492Y0775500D01*
Y0778648D01*
X0797343Y0781010D02*
Y0782584D01*
X0798131Y0783371D01*
X0800492D01*
Y0781010D01*
X0799705Y0780223D01*
X0798918Y0781010D01*
Y0783371D01*
X0800492Y0784945D02*
X0799705D01*
Y0785733D01*
X0800492D01*
Y0784945D01*
Y0788881D02*
X0797343D01*
Y0791243D01*
X0798131Y0792030D01*
X0800492D01*
Y0795966D02*
Y0794391D01*
X0799705Y0793604D01*
X0798131D01*
X0797343Y0794391D01*
Y0795966D01*
X0798131Y0796753D01*
X0798918D01*
Y0793604D01*
X0796556Y0799114D02*
X0797343D01*
Y0798327D01*
Y0799901D01*
Y0799114D01*
X0799705D01*
X0800492Y0799901D01*
X0806694Y0737323D02*
X0809842Y0738897D01*
X0806694Y0740471D01*
X0805907Y0742046D02*
X0805120Y0742833D01*
Y0744407D01*
X0805907Y0745194D01*
X0809055D01*
X0809842Y0744407D01*
Y0742833D01*
X0809055Y0742046D01*
X0805907D01*
X0809842Y0746769D02*
X0809055D01*
Y0747556D01*
X0809842D01*
Y0746769D01*
Y0753066D02*
X0805120D01*
X0807481Y0750704D01*
Y0753853D01*
X0809842Y0755427D02*
X0809055D01*
Y0756214D01*
X0809842D01*
Y0755427D01*
Y0759363D02*
Y0760937D01*
Y0760150D01*
X0805120D01*
X0805907Y0759363D01*
X0810039Y0768031D02*
X0805316D01*
X0810039Y0771180D01*
X0805316D01*
X0810039Y0773541D02*
Y0775116D01*
X0809252Y0775903D01*
X0807678D01*
X0806891Y0775116D01*
Y0773541D01*
X0807678Y0772754D01*
X0809252D01*
X0810039Y0773541D01*
Y0777477D02*
X0809252D01*
Y0778264D01*
X0810039D01*
Y0777477D01*
D27*
X0807037Y0792146D02*
D03*
M02*
