G04 Layer_Physical_Order=1*
G04 Layer_Color=255*
%FSAX25Y25*%
%MOIN*%
G70*
G01*
G75*
%ADD10C,0.00524*%
%ADD11C,0.01000*%
%ADD12R,0.01969X0.07874*%
%ADD13R,0.07874X0.01969*%
%ADD14C,0.05906*%
%ADD15R,0.05906X0.05906*%
%ADD16R,0.05906X0.05906*%
%ADD17C,0.06102*%
%ADD18C,0.05512*%
%ADD19R,0.07874X0.07874*%
%ADD20R,0.06299X0.06299*%
%ADD21C,0.06299*%
%ADD22C,0.12598*%
%ADD23C,0.02362*%
%ADD24C,0.02500*%
G36*
X0868053Y0874975D02*
Y0865924D01*
X0861250D01*
X0860798Y0867016D01*
X0863978Y0870195D01*
X0864310Y0870693D01*
X0864427Y0871280D01*
X0864427Y0871280D01*
Y0876931D01*
X0865038Y0877325D01*
X0865579Y0877450D01*
X0868053Y0874975D01*
D02*
G37*
G36*
X0858740Y0863414D02*
Y0856042D01*
X0868053D01*
Y0852230D01*
X0866195Y0850372D01*
X0850689D01*
X0850689Y0850372D01*
X0850102Y0850255D01*
X0849605Y0849923D01*
X0849605Y0849923D01*
X0849266Y0849584D01*
X0845038D01*
X0844548Y0850766D01*
X0857649Y0863866D01*
X0858740Y0863414D01*
D02*
G37*
G36*
X0856897Y0867451D02*
X0843297Y0853851D01*
X0842116Y0854340D01*
Y0856183D01*
X0833309D01*
X0829781Y0859710D01*
Y0868542D01*
X0839022D01*
Y0868542D01*
X0839040D01*
Y0868542D01*
X0856445D01*
X0856897Y0867451D01*
D02*
G37*
G36*
X0824352Y0874188D02*
Y0868431D01*
X0823171Y0867849D01*
X0822881Y0868071D01*
X0821895Y0868480D01*
X0820836Y0868619D01*
X0820603Y0868589D01*
X0819438Y0869522D01*
X0819422Y0869571D01*
Y0877448D01*
X0820603Y0877937D01*
X0824352Y0874188D01*
D02*
G37*
G36*
X0873565Y0847797D02*
Y0836974D01*
X0869640Y0833049D01*
X0857074D01*
X0848330Y0841793D01*
X0848819Y0842974D01*
X0851476D01*
X0852063Y0843091D01*
X0852561Y0843423D01*
X0853686Y0844549D01*
X0858740D01*
Y0834842D01*
X0868622D01*
Y0844682D01*
X0869096Y0844998D01*
X0872384Y0848286D01*
X0873565Y0847797D01*
D02*
G37*
G36*
X0888322Y0868542D02*
X0888526Y0867446D01*
Y0840025D01*
X0874463Y0825963D01*
X0873333D01*
X0873203Y0826136D01*
X0872895Y0827144D01*
X0878545Y0832794D01*
X0878877Y0833291D01*
X0878994Y0833878D01*
X0878994Y0833878D01*
Y0868542D01*
X0888322D01*
D02*
G37*
G36*
X0817853Y0867634D02*
X0817898Y0867361D01*
X0817294Y0866574D01*
X0816885Y0865588D01*
X0816746Y0864529D01*
X0816885Y0863470D01*
X0817294Y0862484D01*
X0817944Y0861637D01*
X0818791Y0860987D01*
X0819778Y0860578D01*
X0820836Y0860439D01*
X0821895Y0860578D01*
X0822881Y0860987D01*
X0823171Y0861209D01*
X0824352Y0860627D01*
Y0851442D01*
X0818312Y0845402D01*
X0818069Y0845450D01*
X0817680Y0846732D01*
X0819096Y0848148D01*
X0819428Y0848645D01*
X0819545Y0849232D01*
Y0856713D01*
X0819428Y0857299D01*
X0819096Y0857797D01*
X0809529Y0867364D01*
X0809529Y0867375D01*
X0810021Y0868542D01*
X0810703Y0868542D01*
X0817465D01*
X0817853Y0867634D01*
D02*
G37*
G36*
X0892362Y0838004D02*
Y0811889D01*
X0869574D01*
X0868622Y0812442D01*
X0868622Y0813070D01*
Y0821715D01*
X0868622Y0822324D01*
X0869567Y0822896D01*
X0875098D01*
X0875685Y0823012D01*
X0876183Y0823345D01*
X0891143Y0838305D01*
X0891181Y0838363D01*
X0892362Y0838004D01*
D02*
G37*
G36*
X0790871Y0891575D02*
X0790745Y0890301D01*
X0790262Y0888709D01*
X0789478Y0887242D01*
X0788466Y0886009D01*
X0788408Y0885970D01*
X0772219Y0869781D01*
X0772214Y0869785D01*
X0771233Y0868636D01*
X0770171Y0869204D01*
X0770955Y0870671D01*
X0771967Y0871904D01*
X0772025Y0871943D01*
X0785664Y0885582D01*
X0786214Y0885692D01*
X0786960Y0886190D01*
X0787458Y0886936D01*
X0787633Y0887815D01*
X0787458Y0888694D01*
X0786960Y0889440D01*
X0786987Y0890842D01*
X0788387Y0892242D01*
X0788720Y0892740D01*
X0788723Y0892756D01*
X0790128D01*
X0790871Y0891575D01*
D02*
G37*
G36*
X0892362Y0883492D02*
X0891181Y0883133D01*
X0891143Y0883191D01*
X0891143Y0883191D01*
X0889175Y0885159D01*
X0888677Y0885491D01*
X0888091Y0885608D01*
X0882426D01*
X0875176Y0892859D01*
X0875243Y0893891D01*
X0875877Y0894717D01*
X0876276Y0895680D01*
X0876412Y0896712D01*
X0876276Y0897745D01*
X0875877Y0898708D01*
X0875243Y0899535D01*
X0874417Y0900169D01*
X0873454Y0900567D01*
X0872421Y0900703D01*
X0871388Y0900567D01*
X0870426Y0900169D01*
X0869599Y0899535D01*
X0868965Y0898708D01*
X0868566Y0897745D01*
X0868430Y0896712D01*
X0868566Y0895680D01*
X0868965Y0894717D01*
X0869599Y0893891D01*
X0870426Y0893256D01*
X0870970Y0893031D01*
X0871004Y0892858D01*
X0871337Y0892360D01*
X0880707Y0882990D01*
X0880707Y0882990D01*
X0881205Y0882658D01*
X0881791Y0882541D01*
X0887455D01*
X0888526Y0881471D01*
Y0879521D01*
X0888322Y0878424D01*
X0878994D01*
Y0881516D01*
X0878877Y0882102D01*
X0878545Y0882600D01*
X0866039Y0895106D01*
X0866276Y0895680D01*
X0866412Y0896712D01*
X0866276Y0897745D01*
X0865877Y0898708D01*
X0865243Y0899535D01*
X0864417Y0900169D01*
X0863454Y0900567D01*
X0862421Y0900703D01*
X0861388Y0900567D01*
X0860426Y0900169D01*
X0859599Y0899535D01*
X0858965Y0898708D01*
X0858566Y0897745D01*
X0858430Y0896712D01*
X0858566Y0895680D01*
X0858965Y0894717D01*
X0859599Y0893891D01*
X0860426Y0893256D01*
X0861388Y0892858D01*
X0862421Y0892722D01*
X0863165Y0892820D01*
X0863512Y0892498D01*
X0863224Y0891609D01*
X0862955Y0891317D01*
X0856048D01*
X0855065Y0892300D01*
X0855188Y0893848D01*
X0855243Y0893891D01*
X0855877Y0894717D01*
X0856276Y0895680D01*
X0856412Y0896712D01*
X0856276Y0897745D01*
X0855877Y0898708D01*
X0855243Y0899535D01*
X0854417Y0900169D01*
X0853454Y0900567D01*
X0852421Y0900703D01*
X0851388Y0900567D01*
X0850426Y0900169D01*
X0849599Y0899535D01*
X0848965Y0898708D01*
X0848566Y0897745D01*
X0848430Y0896712D01*
X0848566Y0895680D01*
X0848965Y0894717D01*
X0849599Y0893891D01*
X0850426Y0893256D01*
X0850494Y0893228D01*
Y0893169D01*
X0850611Y0892582D01*
X0850943Y0892085D01*
X0853286Y0889742D01*
X0852797Y0888561D01*
X0849356D01*
X0845168Y0892748D01*
X0845243Y0893891D01*
X0845877Y0894717D01*
X0846276Y0895680D01*
X0846412Y0896712D01*
X0846276Y0897745D01*
X0845877Y0898708D01*
X0845243Y0899535D01*
X0844417Y0900169D01*
X0843454Y0900567D01*
X0842421Y0900703D01*
X0841388Y0900567D01*
X0840426Y0900169D01*
X0839599Y0899535D01*
X0838965Y0898708D01*
X0838566Y0897745D01*
X0838430Y0896712D01*
X0838566Y0895680D01*
X0838965Y0894717D01*
X0839599Y0893891D01*
X0840426Y0893256D01*
X0840601Y0893184D01*
X0840611Y0893134D01*
X0840943Y0892636D01*
X0846290Y0887290D01*
X0845837Y0886199D01*
X0841875D01*
X0835178Y0892896D01*
X0835243Y0893891D01*
X0835877Y0894717D01*
X0836276Y0895680D01*
X0836412Y0896712D01*
X0836276Y0897745D01*
X0835877Y0898708D01*
X0835243Y0899535D01*
X0834417Y0900169D01*
X0833454Y0900567D01*
X0832421Y0900703D01*
X0831388Y0900567D01*
X0830426Y0900169D01*
X0829599Y0899535D01*
X0828965Y0898708D01*
X0828566Y0897745D01*
X0828430Y0896712D01*
X0828566Y0895680D01*
X0828965Y0894717D01*
X0829599Y0893891D01*
X0830426Y0893256D01*
X0830714Y0893137D01*
X0830943Y0892794D01*
X0839113Y0884624D01*
X0838624Y0883443D01*
X0834395D01*
X0825143Y0892695D01*
X0825220Y0893873D01*
X0825243Y0893891D01*
X0825877Y0894717D01*
X0826276Y0895680D01*
X0826412Y0896712D01*
X0826276Y0897745D01*
X0825877Y0898708D01*
X0825243Y0899535D01*
X0824417Y0900169D01*
X0823454Y0900567D01*
X0822421Y0900703D01*
X0821388Y0900567D01*
X0820426Y0900169D01*
X0819599Y0899535D01*
X0818965Y0898708D01*
X0818566Y0897745D01*
X0818430Y0896712D01*
X0818566Y0895680D01*
X0818965Y0894717D01*
X0819599Y0893891D01*
X0820426Y0893256D01*
X0820584Y0893191D01*
X0820611Y0893055D01*
X0820943Y0892557D01*
X0832675Y0880825D01*
X0832675Y0880825D01*
X0833173Y0880493D01*
X0833760Y0880376D01*
X0857532D01*
X0858259Y0879495D01*
X0857815Y0878424D01*
X0839040D01*
Y0878424D01*
X0839022D01*
Y0878424D01*
X0829140D01*
Y0878424D01*
X0828888Y0878320D01*
X0814941Y0892267D01*
X0815098Y0893780D01*
X0815243Y0893891D01*
X0815877Y0894717D01*
X0816276Y0895680D01*
X0816412Y0896712D01*
X0816276Y0897745D01*
X0815877Y0898708D01*
X0815243Y0899535D01*
X0814417Y0900169D01*
X0813454Y0900567D01*
X0812421Y0900703D01*
X0811388Y0900567D01*
X0810426Y0900169D01*
X0810096Y0899916D01*
X0808915Y0900498D01*
Y0901752D01*
X0808799Y0902339D01*
X0808466Y0902836D01*
X0806085Y0905218D01*
X0806276Y0905680D01*
X0806412Y0906713D01*
X0806276Y0907745D01*
X0805877Y0908708D01*
X0805262Y0909510D01*
X0805278Y0909628D01*
X0805676Y0910691D01*
X0809166D01*
X0809564Y0909628D01*
X0809580Y0909510D01*
X0808965Y0908708D01*
X0808566Y0907745D01*
X0808430Y0906713D01*
X0808566Y0905680D01*
X0808965Y0904717D01*
X0809599Y0903891D01*
X0810426Y0903256D01*
X0811388Y0902858D01*
X0812421Y0902722D01*
X0813454Y0902858D01*
X0814417Y0903256D01*
X0815243Y0903891D01*
X0815877Y0904717D01*
X0816276Y0905680D01*
X0816412Y0906713D01*
X0816276Y0907745D01*
X0815877Y0908708D01*
X0815262Y0909510D01*
X0815278Y0909628D01*
X0815676Y0910691D01*
X0819166D01*
X0819564Y0909628D01*
X0819580Y0909510D01*
X0818965Y0908708D01*
X0818566Y0907745D01*
X0818430Y0906713D01*
X0818566Y0905680D01*
X0818965Y0904717D01*
X0819599Y0903891D01*
X0820426Y0903256D01*
X0821388Y0902858D01*
X0822421Y0902722D01*
X0823454Y0902858D01*
X0824417Y0903256D01*
X0825243Y0903891D01*
X0825877Y0904717D01*
X0826276Y0905680D01*
X0826412Y0906713D01*
X0826276Y0907745D01*
X0825877Y0908708D01*
X0825789Y0908823D01*
X0826283Y0910119D01*
X0826757Y0910209D01*
X0828758Y0908208D01*
X0828566Y0907745D01*
X0828430Y0906713D01*
X0828566Y0905680D01*
X0828965Y0904717D01*
X0829599Y0903891D01*
X0830426Y0903256D01*
X0831388Y0902858D01*
X0832421Y0902722D01*
X0833454Y0902858D01*
X0834417Y0903256D01*
X0835243Y0903891D01*
X0835877Y0904717D01*
X0836276Y0905680D01*
X0836412Y0906713D01*
X0836276Y0907745D01*
X0835877Y0908708D01*
X0835243Y0909534D01*
X0834417Y0910169D01*
X0833454Y0910567D01*
X0832421Y0910703D01*
X0831388Y0910567D01*
X0830926Y0910376D01*
X0828349Y0912953D01*
X0828838Y0914134D01*
X0892362D01*
Y0883492D01*
D02*
G37*
G36*
X0872023Y0351636D02*
X0871794Y0351293D01*
X0871619Y0350413D01*
X0871794Y0349534D01*
X0872292Y0348788D01*
X0873038Y0348290D01*
X0873588Y0348181D01*
X0874940Y0346829D01*
X0874632Y0345821D01*
X0874501Y0345648D01*
X0867632D01*
X0867050Y0346829D01*
X0867174Y0346990D01*
X0867583Y0347977D01*
X0867722Y0349035D01*
X0867583Y0350094D01*
X0867174Y0351080D01*
X0866713Y0351681D01*
X0866715Y0351701D01*
X0867069Y0352577D01*
X0867270Y0352817D01*
X0871493D01*
X0872023Y0351636D01*
D02*
G37*
G36*
X0787632Y0914000D02*
X0787863Y0912953D01*
X0787134Y0912394D01*
X0786388Y0911422D01*
X0785919Y0910290D01*
X0785759Y0909075D01*
X0785770D01*
Y0893962D01*
X0783125Y0891317D01*
X0781398D01*
X0780811Y0891200D01*
X0780313Y0890868D01*
X0780313Y0890868D01*
X0779880Y0890434D01*
X0778699Y0890923D01*
Y0903661D01*
X0778582Y0904248D01*
X0778250Y0904746D01*
X0778250Y0904746D01*
X0775002Y0907994D01*
X0774504Y0908326D01*
X0773917Y0908443D01*
X0771485D01*
X0771457Y0908485D01*
X0770734Y0908968D01*
X0769882Y0909137D01*
X0769029Y0908968D01*
X0768306Y0908485D01*
X0767824Y0907762D01*
X0767654Y0906909D01*
X0767824Y0906057D01*
X0768306Y0905334D01*
X0768515Y0905195D01*
X0768157Y0904014D01*
X0767421D01*
X0767421Y0904014D01*
X0766834Y0903897D01*
X0766337Y0903564D01*
X0766337Y0903564D01*
X0759841Y0897069D01*
X0759509Y0896571D01*
X0759392Y0895984D01*
Y0706130D01*
X0759386D01*
X0759528Y0704325D01*
X0759950Y0702564D01*
X0760643Y0700891D01*
X0761589Y0699347D01*
X0762766Y0697971D01*
X0762770Y0697975D01*
X0852188Y0608557D01*
X0852246Y0608519D01*
X0853257Y0607285D01*
X0854042Y0605818D01*
X0854525Y0604226D01*
X0854681Y0602639D01*
X0854667Y0602570D01*
Y0387926D01*
X0854576Y0387865D01*
X0854078Y0387120D01*
X0853903Y0386240D01*
X0854078Y0385361D01*
X0854576Y0384615D01*
X0855321Y0384117D01*
X0856008Y0383980D01*
X0856344Y0383381D01*
X0856494Y0382796D01*
X0855116Y0381419D01*
X0854784Y0380921D01*
X0854667Y0380335D01*
Y0344508D01*
X0854784Y0343921D01*
X0855116Y0343424D01*
X0857479Y0341061D01*
X0857479Y0341061D01*
X0857976Y0340729D01*
X0858563Y0340612D01*
X0858563Y0340612D01*
X0865002D01*
X0865491Y0339431D01*
X0864714Y0338654D01*
X0864561Y0338757D01*
X0863681Y0338932D01*
X0862802Y0338757D01*
X0862056Y0338259D01*
X0861558Y0337513D01*
X0861383Y0336634D01*
X0861558Y0335754D01*
X0862056Y0335009D01*
X0862802Y0334511D01*
X0863681Y0334336D01*
X0864561Y0334511D01*
X0865306Y0335009D01*
X0865445Y0335216D01*
X0865449Y0335217D01*
X0865946Y0335549D01*
X0868253Y0337856D01*
X0870403D01*
Y0328150D01*
X0876703D01*
Y0328150D01*
X0893277D01*
Y0338031D01*
X0892823D01*
Y0345640D01*
X0892706Y0346227D01*
X0892374Y0346724D01*
X0884844Y0354254D01*
X0884347Y0354586D01*
X0884342Y0354587D01*
X0884204Y0354794D01*
X0883458Y0355292D01*
X0883100Y0355364D01*
X0882663Y0356597D01*
X0884500Y0358433D01*
X0884832Y0358931D01*
X0884949Y0359518D01*
Y0360433D01*
X0885404D01*
Y0370315D01*
X0878277D01*
Y0360433D01*
X0878277D01*
X0877962Y0359383D01*
X0876825Y0358246D01*
X0869041D01*
X0865215Y0362072D01*
Y0375369D01*
X0866734Y0376888D01*
X0867066Y0377386D01*
X0867183Y0377972D01*
Y0607689D01*
X0867189D01*
X0867047Y0609494D01*
X0866624Y0611254D01*
X0865931Y0612927D01*
X0864985Y0614471D01*
X0863809Y0615848D01*
X0863805Y0615844D01*
X0774387Y0705262D01*
X0774329Y0705300D01*
X0773317Y0706533D01*
X0772533Y0708001D01*
X0772050Y0709593D01*
X0771894Y0711180D01*
X0771907Y0711248D01*
Y0861625D01*
X0771894Y0861694D01*
X0772050Y0863281D01*
X0772533Y0864873D01*
X0773317Y0866341D01*
X0774329Y0867574D01*
X0774387Y0867612D01*
X0790577Y0883802D01*
X0790581Y0883797D01*
X0791757Y0885174D01*
X0792703Y0886718D01*
X0793396Y0888391D01*
X0793819Y0890152D01*
X0793961Y0891957D01*
X0794811Y0892756D01*
X0796378D01*
Y0900669D01*
X0788836D01*
Y0903029D01*
X0790018Y0903570D01*
X0790426Y0903256D01*
X0791388Y0902858D01*
X0792421Y0902722D01*
X0793454Y0902858D01*
X0794417Y0903256D01*
X0795243Y0903891D01*
X0795877Y0904717D01*
X0796276Y0905680D01*
X0796412Y0906713D01*
X0796276Y0907745D01*
X0795877Y0908708D01*
X0795262Y0909510D01*
X0795278Y0909628D01*
X0795676Y0910691D01*
X0799166D01*
X0799564Y0909628D01*
X0799580Y0909510D01*
X0798965Y0908708D01*
X0798566Y0907745D01*
X0798430Y0906713D01*
X0798566Y0905680D01*
X0798965Y0904717D01*
X0799599Y0903891D01*
X0800426Y0903256D01*
X0801388Y0902858D01*
X0802421Y0902722D01*
X0803454Y0902858D01*
X0803916Y0903049D01*
X0805346Y0901619D01*
X0805265Y0901006D01*
X0805051Y0900795D01*
X0803999Y0900342D01*
X0803454Y0900567D01*
X0802421Y0900703D01*
X0801388Y0900567D01*
X0800426Y0900169D01*
X0799599Y0899535D01*
X0798965Y0898708D01*
X0798566Y0897745D01*
X0798430Y0896712D01*
X0798566Y0895680D01*
X0798965Y0894717D01*
X0799599Y0893891D01*
X0800426Y0893256D01*
X0800730Y0893130D01*
Y0881757D01*
X0796849Y0877876D01*
X0796516Y0877378D01*
X0796400Y0876791D01*
Y0869311D01*
X0796414Y0869241D01*
X0796400Y0869121D01*
X0795774Y0868132D01*
X0795590Y0867985D01*
X0795299Y0867947D01*
X0794385Y0867568D01*
X0793600Y0866965D01*
X0792997Y0866180D01*
X0792618Y0865265D01*
X0792489Y0864283D01*
X0792618Y0863302D01*
X0792997Y0862387D01*
X0793600Y0861602D01*
X0794385Y0860999D01*
X0795299Y0860620D01*
X0796281Y0860491D01*
X0797263Y0860620D01*
X0798177Y0860999D01*
X0798963Y0861602D01*
X0799565Y0862387D01*
X0799944Y0863302D01*
X0800070Y0864258D01*
X0800088Y0864350D01*
X0801116Y0865415D01*
X0807140D01*
X0816478Y0856077D01*
Y0849867D01*
X0814465Y0847854D01*
X0809832D01*
Y0848309D01*
X0799950D01*
Y0848309D01*
X0798769Y0848211D01*
X0798177Y0848665D01*
X0797263Y0849044D01*
X0796281Y0849173D01*
X0795299Y0849044D01*
X0794385Y0848665D01*
X0793600Y0848063D01*
X0792997Y0847277D01*
X0792618Y0846363D01*
X0792489Y0845381D01*
X0792618Y0844400D01*
X0792997Y0843485D01*
X0793600Y0842700D01*
X0794385Y0842097D01*
X0795299Y0841718D01*
X0796281Y0841589D01*
X0797263Y0841718D01*
X0798177Y0842097D01*
X0798769Y0842551D01*
X0799482Y0842356D01*
X0799950Y0842047D01*
Y0841183D01*
X0809832D01*
Y0841637D01*
X0818250D01*
X0818836Y0841754D01*
X0819334Y0842087D01*
X0826970Y0849723D01*
X0827302Y0850220D01*
X0827419Y0850807D01*
Y0856192D01*
X0828510Y0856644D01*
X0831366Y0853788D01*
X0831888Y0853266D01*
X0831888Y0853266D01*
X0832234Y0853033D01*
Y0849057D01*
Y0845907D01*
Y0842758D01*
Y0839608D01*
Y0836458D01*
Y0833309D01*
X0842003D01*
X0851806Y0823505D01*
X0851682Y0822859D01*
X0851368Y0822324D01*
X0847640D01*
Y0813070D01*
X0847640Y0812442D01*
X0846688Y0811889D01*
X0839974D01*
X0839022Y0812442D01*
X0839022Y0813070D01*
Y0822324D01*
X0824016D01*
X0823615Y0823505D01*
X0823925Y0823743D01*
X0824575Y0824590D01*
X0824984Y0825577D01*
X0825123Y0826635D01*
X0824984Y0827694D01*
X0824575Y0828680D01*
X0823925Y0829527D01*
X0823078Y0830177D01*
X0822092Y0830586D01*
X0821033Y0830725D01*
X0819974Y0830586D01*
X0818988Y0830177D01*
X0818141Y0829527D01*
X0817491Y0828680D01*
X0817082Y0827694D01*
X0816943Y0826635D01*
X0817082Y0825577D01*
X0817491Y0824590D01*
X0818141Y0823743D01*
X0818451Y0823505D01*
X0818050Y0822324D01*
X0809540D01*
Y0812442D01*
X0813807D01*
X0814153Y0811472D01*
X0814193Y0811261D01*
X0813777Y0810638D01*
X0813622Y0809862D01*
Y0750807D01*
Y0732045D01*
X0813622D01*
X0813780Y0730041D01*
X0814249Y0728087D01*
X0815018Y0726229D01*
X0816068Y0724515D01*
X0817374Y0722987D01*
X0817375Y0722987D01*
X0842366Y0697996D01*
X0842366Y0697996D01*
X0899657Y0640704D01*
X0899764Y0640633D01*
X0900937Y0639203D01*
X0901869Y0637460D01*
X0902443Y0635569D01*
X0902624Y0633728D01*
X0902599Y0633602D01*
Y0614705D01*
Y0410256D01*
X0902753Y0409480D01*
X0903193Y0408822D01*
X0918347Y0393668D01*
Y0357486D01*
X0917166Y0357085D01*
X0916840Y0357509D01*
X0915973Y0358175D01*
X0914962Y0358594D01*
X0913878Y0358737D01*
X0912794Y0358594D01*
X0911783Y0358175D01*
X0910916Y0357509D01*
X0910250Y0356642D01*
X0909831Y0355631D01*
X0909688Y0354547D01*
X0909831Y0353463D01*
X0910250Y0352452D01*
X0910916Y0351585D01*
X0911783Y0350919D01*
X0912794Y0350501D01*
X0913878Y0350358D01*
X0914962Y0350501D01*
X0915973Y0350919D01*
X0916840Y0351585D01*
X0917166Y0352009D01*
X0918347Y0351608D01*
Y0349751D01*
X0918031Y0348701D01*
X0917166Y0348701D01*
X0909724D01*
Y0340394D01*
X0917166D01*
X0918031Y0340394D01*
X0918347Y0339343D01*
Y0320551D01*
X0831850D01*
Y0378708D01*
X0852516Y0399374D01*
X0852956Y0400031D01*
X0853110Y0400807D01*
X0853110Y0400807D01*
Y0553957D01*
Y0598169D01*
X0853114D01*
X0852941Y0600376D01*
X0852424Y0602527D01*
X0851577Y0604572D01*
X0850421Y0606459D01*
X0848984Y0608141D01*
X0848980Y0608138D01*
X0757437Y0699681D01*
X0757339Y0699747D01*
X0756240Y0701087D01*
X0755368Y0702717D01*
X0754832Y0704487D01*
X0754662Y0706211D01*
X0754685Y0706327D01*
X0754685Y0706327D01*
Y0750807D01*
Y0914134D01*
X0787557D01*
X0787632Y0914000D01*
D02*
G37*
G36*
X0805002Y0893414D02*
X0805928Y0892927D01*
X0805965Y0892740D01*
X0806298Y0892242D01*
X0818935Y0879605D01*
X0818445Y0878424D01*
X0810703D01*
X0809540Y0878424D01*
X0808359Y0878424D01*
X0803278D01*
X0802826Y0879516D01*
X0803348Y0880038D01*
X0803348Y0880038D01*
X0803680Y0880535D01*
X0803797Y0881122D01*
Y0892679D01*
X0804798Y0893435D01*
X0805002Y0893414D01*
D02*
G37*
G36*
X0771899Y0900855D02*
X0772644Y0900357D01*
X0773524Y0900182D01*
X0774403Y0900357D01*
X0774451Y0900389D01*
X0775632Y0899758D01*
Y0890123D01*
X0765132Y0879623D01*
X0765128Y0879628D01*
X0763952Y0878251D01*
X0763640Y0877742D01*
X0762459Y0878075D01*
Y0895349D01*
X0768056Y0900947D01*
X0771837D01*
X0771899Y0900855D01*
D02*
G37*
%LPC*%
G36*
X0852421Y0910703D02*
X0851388Y0910567D01*
X0850426Y0910169D01*
X0849599Y0909534D01*
X0848965Y0908708D01*
X0848566Y0907745D01*
X0848430Y0906713D01*
X0848566Y0905680D01*
X0848965Y0904717D01*
X0849599Y0903891D01*
X0850426Y0903256D01*
X0851388Y0902858D01*
X0852421Y0902722D01*
X0853454Y0902858D01*
X0854417Y0903256D01*
X0855243Y0903891D01*
X0855877Y0904717D01*
X0856276Y0905680D01*
X0856412Y0906713D01*
X0856276Y0907745D01*
X0855877Y0908708D01*
X0855243Y0909534D01*
X0854417Y0910169D01*
X0853454Y0910567D01*
X0852421Y0910703D01*
D02*
G37*
G36*
X0862421D02*
X0861388Y0910567D01*
X0860426Y0910169D01*
X0859599Y0909534D01*
X0858965Y0908708D01*
X0858566Y0907745D01*
X0858430Y0906713D01*
X0858566Y0905680D01*
X0858965Y0904717D01*
X0859599Y0903891D01*
X0860426Y0903256D01*
X0861388Y0902858D01*
X0862421Y0902722D01*
X0863454Y0902858D01*
X0864417Y0903256D01*
X0865243Y0903891D01*
X0865877Y0904717D01*
X0866276Y0905680D01*
X0866412Y0906713D01*
X0866276Y0907745D01*
X0865877Y0908708D01*
X0865243Y0909534D01*
X0864417Y0910169D01*
X0863454Y0910567D01*
X0862421Y0910703D01*
D02*
G37*
G36*
X0872421D02*
X0871388Y0910567D01*
X0870426Y0910169D01*
X0869599Y0909534D01*
X0868965Y0908708D01*
X0868566Y0907745D01*
X0868430Y0906713D01*
X0868566Y0905680D01*
X0868965Y0904717D01*
X0869599Y0903891D01*
X0870426Y0903256D01*
X0871388Y0902858D01*
X0872421Y0902722D01*
X0873454Y0902858D01*
X0874417Y0903256D01*
X0875243Y0903891D01*
X0875877Y0904717D01*
X0876276Y0905680D01*
X0876412Y0906713D01*
X0876276Y0907745D01*
X0875877Y0908708D01*
X0875243Y0909534D01*
X0874417Y0910169D01*
X0873454Y0910567D01*
X0872421Y0910703D01*
D02*
G37*
G36*
X0842421D02*
X0841388Y0910567D01*
X0840426Y0910169D01*
X0839599Y0909534D01*
X0838965Y0908708D01*
X0838566Y0907745D01*
X0838430Y0906713D01*
X0838566Y0905680D01*
X0838965Y0904717D01*
X0839599Y0903891D01*
X0840426Y0903256D01*
X0841388Y0902858D01*
X0842421Y0902722D01*
X0843454Y0902858D01*
X0844417Y0903256D01*
X0845243Y0903891D01*
X0845877Y0904717D01*
X0846276Y0905680D01*
X0846412Y0906713D01*
X0846276Y0907745D01*
X0845877Y0908708D01*
X0845243Y0909534D01*
X0844417Y0910169D01*
X0843454Y0910567D01*
X0842421Y0910703D01*
D02*
G37*
G36*
X0845177Y0340823D02*
X0843746Y0340682D01*
X0842369Y0340264D01*
X0841100Y0339586D01*
X0839988Y0338673D01*
X0839075Y0337561D01*
X0838397Y0336293D01*
X0837980Y0334916D01*
X0837839Y0333484D01*
X0837980Y0332052D01*
X0838397Y0330676D01*
X0839075Y0329407D01*
X0839988Y0328295D01*
X0841100Y0327382D01*
X0842369Y0326704D01*
X0843746Y0326287D01*
X0845177Y0326146D01*
X0846609Y0326287D01*
X0847985Y0326704D01*
X0849254Y0327382D01*
X0850366Y0328295D01*
X0851279Y0329407D01*
X0851957Y0330676D01*
X0852375Y0332052D01*
X0852516Y0333484D01*
X0852375Y0334916D01*
X0851957Y0336293D01*
X0851279Y0337561D01*
X0850366Y0338673D01*
X0849254Y0339586D01*
X0847985Y0340264D01*
X0846609Y0340682D01*
X0845177Y0340823D01*
D02*
G37*
G36*
X0901525Y0353322D02*
X0900467Y0353183D01*
X0899481Y0352774D01*
X0898633Y0352124D01*
X0897983Y0351277D01*
X0897575Y0350291D01*
X0897435Y0349232D01*
X0897575Y0348174D01*
X0897983Y0347187D01*
X0898633Y0346340D01*
X0899481Y0345690D01*
X0900467Y0345282D01*
X0901525Y0345142D01*
X0902584Y0345282D01*
X0903571Y0345690D01*
X0904418Y0346340D01*
X0905068Y0347187D01*
X0905476Y0348174D01*
X0905616Y0349232D01*
X0905476Y0350291D01*
X0905068Y0351277D01*
X0904418Y0352124D01*
X0903571Y0352774D01*
X0902584Y0353183D01*
X0901525Y0353322D01*
D02*
G37*
G36*
X0845177Y0370508D02*
X0844093Y0370366D01*
X0843082Y0369947D01*
X0842215Y0369281D01*
X0841549Y0368413D01*
X0841131Y0367403D01*
X0840988Y0366319D01*
X0841131Y0365234D01*
X0841549Y0364224D01*
X0842215Y0363356D01*
X0843082Y0362691D01*
X0844093Y0362272D01*
X0845177Y0362129D01*
X0846261Y0362272D01*
X0847272Y0362691D01*
X0848139Y0363356D01*
X0848805Y0364224D01*
X0849224Y0365234D01*
X0849366Y0366319D01*
X0849224Y0367403D01*
X0848805Y0368413D01*
X0848139Y0369281D01*
X0847272Y0369947D01*
X0846261Y0370366D01*
X0845177Y0370508D01*
D02*
G37*
G36*
X0849331Y0360472D02*
X0841024D01*
Y0352165D01*
X0849331D01*
Y0360472D01*
D02*
G37*
G36*
X0796281Y0830276D02*
X0795299Y0830147D01*
X0794385Y0829768D01*
X0793600Y0829165D01*
X0792997Y0828380D01*
X0792618Y0827465D01*
X0792489Y0826483D01*
X0792618Y0825502D01*
X0792997Y0824587D01*
X0793600Y0823802D01*
X0794385Y0823199D01*
X0795299Y0822820D01*
X0796281Y0822691D01*
X0797263Y0822820D01*
X0798177Y0823199D01*
X0798963Y0823802D01*
X0799565Y0824587D01*
X0799944Y0825502D01*
X0800073Y0826483D01*
X0799944Y0827465D01*
X0799565Y0828380D01*
X0798963Y0829165D01*
X0798177Y0829768D01*
X0797263Y0830147D01*
X0796281Y0830276D01*
D02*
G37*
G36*
X0809832Y0838860D02*
X0799950D01*
Y0838335D01*
X0791043D01*
Y0838346D01*
X0789627Y0838206D01*
X0788266Y0837793D01*
X0787011Y0837123D01*
X0785912Y0836220D01*
X0785009Y0835120D01*
X0784338Y0833866D01*
X0783925Y0832504D01*
X0783786Y0831088D01*
X0783796D01*
Y0734477D01*
X0783775D01*
X0783957Y0732160D01*
X0784500Y0729901D01*
X0785389Y0727754D01*
X0786603Y0725773D01*
X0788112Y0724006D01*
X0788127Y0724021D01*
X0788127Y0724021D01*
X0884676Y0627472D01*
X0884714Y0627447D01*
X0885930Y0626023D01*
X0886932Y0624388D01*
X0887665Y0622617D01*
X0888113Y0620753D01*
X0888260Y0618886D01*
X0888251Y0618842D01*
Y0370315D01*
X0887726D01*
Y0360433D01*
X0894852D01*
Y0370315D01*
X0894328D01*
Y0621738D01*
X0894338D01*
X0894199Y0623506D01*
X0893785Y0625230D01*
X0893106Y0626868D01*
X0892180Y0628380D01*
X0891028Y0629729D01*
X0891028Y0629729D01*
X0890186Y0630557D01*
X0792424Y0728318D01*
X0792376Y0728350D01*
X0791327Y0729629D01*
X0790521Y0731137D01*
X0790024Y0732774D01*
X0789862Y0734420D01*
X0789873Y0734477D01*
Y0831088D01*
X0789876D01*
X0789965Y0831535D01*
X0790218Y0831914D01*
X0790597Y0832167D01*
X0791043Y0832255D01*
Y0832258D01*
X0799950D01*
Y0831734D01*
X0809832D01*
Y0834883D01*
Y0838860D01*
D02*
G37*
G36*
X0809832Y0857757D02*
X0799950D01*
Y0857233D01*
X0782972D01*
Y0857248D01*
X0781383Y0857091D01*
X0779854Y0856627D01*
X0778446Y0855874D01*
X0777211Y0854861D01*
X0776198Y0853627D01*
X0775445Y0852218D01*
X0774981Y0850690D01*
X0774825Y0849100D01*
X0774839D01*
Y0721977D01*
X0774819D01*
X0775001Y0719660D01*
X0775543Y0717401D01*
X0776432Y0715254D01*
X0777646Y0713273D01*
X0779155Y0711506D01*
X0779170Y0711521D01*
X0779170Y0711521D01*
X0866802Y0623889D01*
X0866850Y0623857D01*
X0867899Y0622579D01*
X0868706Y0621070D01*
X0869202Y0619433D01*
X0869364Y0617787D01*
X0869353Y0617731D01*
Y0370315D01*
X0868829D01*
Y0360433D01*
X0875955D01*
Y0370315D01*
X0875430D01*
Y0617731D01*
X0875451D01*
X0875269Y0620047D01*
X0874726Y0622306D01*
X0873837Y0624453D01*
X0872623Y0626434D01*
X0871865Y0627322D01*
X0871117Y0628197D01*
X0871114Y0628201D01*
X0871099Y0628186D01*
X0783467Y0715818D01*
X0783420Y0715850D01*
X0782370Y0717129D01*
X0781564Y0718637D01*
X0781067Y0720274D01*
X0780905Y0721920D01*
X0780917Y0721977D01*
Y0849100D01*
X0780909Y0849137D01*
X0781060Y0849892D01*
X0781508Y0850564D01*
X0782180Y0851013D01*
X0782936Y0851163D01*
X0782972Y0851156D01*
X0799950D01*
Y0850632D01*
X0809832D01*
Y0853781D01*
Y0857757D01*
D02*
G37*
%LPD*%
D10*
X0800866Y0833722D02*
G03*
X0800692Y0833549I0000000J-0000173D01*
G01*
X0788583Y0734477D02*
G03*
X0791512Y0727406I0010000J0000000D01*
G01*
X0791043Y0833549D02*
G03*
X0788583Y0831088I0000000J-0002461D01*
G01*
X0893037Y0621738D02*
G03*
X0890108Y0628809I-0010000J0000000D01*
G01*
X0893037Y0369746D02*
G03*
X0892864Y0369328I0000418J-0000418D01*
G01*
X0889541Y0618842D02*
G03*
X0885588Y0628385I-0013496J0000000D01*
G01*
X0889715Y0369328D02*
G03*
X0889541Y0369746I-0000591J0000000D01*
G01*
X0800692Y0837045D02*
G03*
X0800866Y0836872I0000173J0000000D01*
G01*
X0791043Y0837045D02*
G03*
X0785087Y0831088I0000000J-0005957D01*
G01*
Y0734477D02*
G03*
X0789040Y0724934I0013496J0000000D01*
G01*
X0874140Y0617731D02*
G03*
X0870190Y0627271I-0013496J0000000D01*
G01*
D02*
G03*
X0870187Y0627274I-0009546J-0009540D01*
G01*
X0874140Y0369746D02*
G03*
X0873967Y0369328I0000418J-0000418D01*
G01*
X0782972Y0852446D02*
G03*
X0779626Y0849100I0000000J-0003347D01*
G01*
Y0721977D02*
G03*
X0782555Y0714906I0010000J0000000D01*
G01*
X0870644Y0617731D02*
G03*
X0867715Y0624802I-0010000J0000000D01*
G01*
X0870817Y0369328D02*
G03*
X0870644Y0369746I-0000591J0000000D01*
G01*
X0782972Y0855943D02*
G03*
X0776130Y0849100I0000000J-0006842D01*
G01*
Y0721977D02*
G03*
X0780083Y0712434I0013496J0000000D01*
G01*
X0800866Y0833722D02*
X0804891D01*
X0791043Y0833549D02*
X0800692D01*
X0788583Y0734477D02*
Y0831088D01*
X0791512Y0727406D02*
X0890108Y0628809D01*
X0893037Y0369746D02*
Y0621738D01*
X0892864Y0365374D02*
Y0369328D01*
X0889541Y0369746D02*
Y0618842D01*
X0800866Y0836872D02*
X0804891D01*
X0889715Y0365374D02*
Y0369328D01*
X0791043Y0837045D02*
X0800692D01*
X0789040Y0724934D02*
X0885588Y0628385D01*
X0785087Y0734477D02*
Y0831088D01*
X0874140Y0369746D02*
Y0617731D01*
X0873967Y0365374D02*
Y0369328D01*
X0800519Y0852446D02*
X0800692Y0852620D01*
X0804891D01*
X0782972Y0852446D02*
X0800519D01*
X0782555Y0714906D02*
X0870187Y0627274D01*
X0779626Y0721977D02*
Y0849100D01*
X0870644Y0369746D02*
Y0617731D01*
X0800692Y0855769D02*
X0804891D01*
X0870817Y0365374D02*
Y0369328D01*
X0782972Y0855943D02*
X0800519D01*
X0800692Y0855769D01*
X0780083Y0712434D02*
X0867715Y0624802D01*
X0776130Y0721977D02*
Y0849100D01*
D11*
X0790453Y0912224D02*
G03*
X0787303Y0909075I0000000J-0003150D01*
G01*
X0768493Y0876878D02*
G03*
X0765650Y0870015I0006864J-0006864D01*
G01*
X0789492Y0884886D02*
G03*
X0792421Y0891957I-0007071J0007071D01*
G01*
X0773303Y0868697D02*
G03*
X0770374Y0861625I0007071J-0007071D01*
G01*
X0770941Y0873027D02*
G03*
X0768012Y0865956I0007071J-0007071D01*
G01*
X0766216Y0878539D02*
G03*
X0763287Y0871468I0007071J-0007071D01*
G01*
X0856201Y0602570D02*
G03*
X0853272Y0609642I-0010000J0000000D01*
G01*
X0858563Y0603358D02*
G03*
X0855634Y0610429I-0010000J0000000D01*
G01*
X0860925Y0604933D02*
G03*
X0857996Y0612004I-0010000J0000000D01*
G01*
X0863287Y0606507D02*
G03*
X0860358Y0613579I-0010000J0000000D01*
G01*
X0865650Y0607689D02*
G03*
X0862721Y0614760I-0010000J0000000D01*
G01*
X0760925Y0706130D02*
G03*
X0763854Y0699059I0010000J0000000D01*
G01*
X0763287Y0706918D02*
G03*
X0766216Y0699847I0010000J0000000D01*
G01*
X0765650Y0708493D02*
G03*
X0768578Y0701421I0010000J0000000D01*
G01*
X0768012Y0710067D02*
G03*
X0770941Y0702996I0010000J0000000D01*
G01*
X0770374Y0711248D02*
G03*
X0773303Y0704177I0010000J0000000D01*
G01*
X0760925Y0706130D02*
Y0895984D01*
X0767421Y0902480D01*
X0890059Y0839390D02*
Y0882106D01*
X0888091Y0884075D02*
X0890059Y0882106D01*
X0881791Y0884075D02*
X0888091D01*
X0875098Y0824429D02*
X0890059Y0839390D01*
X0875098Y0836339D02*
Y0879154D01*
X0870275Y0831516D02*
X0875098Y0836339D01*
X0856439Y0831516D02*
X0870275D01*
X0872421Y0893445D02*
Y0896712D01*
Y0893445D02*
X0881791Y0884075D01*
X0769882Y0906909D02*
X0773917D01*
X0777165Y0903661D01*
Y0889488D02*
Y0903661D01*
X0767421Y0902480D02*
X0773524D01*
X0787303Y0893327D02*
Y0909075D01*
X0783760Y0889783D02*
X0787303Y0893327D01*
X0781398Y0889783D02*
X0783760D01*
X0768493Y0876878D02*
X0781398Y0889783D01*
X0770941Y0873027D02*
X0785335Y0887421D01*
X0766216Y0878539D02*
X0777165Y0889488D01*
X0880266Y0359518D02*
Y0365374D01*
X0802421Y0906713D02*
X0807382Y0901752D01*
Y0893327D02*
Y0901752D01*
Y0893327D02*
X0825886Y0874823D01*
X0773303Y0868697D02*
X0789492Y0884886D01*
X0792421Y0891957D02*
Y0896712D01*
X0804891Y0843171D02*
X0818250D01*
X0825886Y0850807D01*
Y0874823D01*
X0856201Y0344508D02*
X0858563Y0342146D01*
X0856201Y0344508D02*
Y0380335D01*
X0858563Y0382697D01*
Y0378366D02*
X0860925Y0380728D01*
X0858563Y0347264D02*
Y0378366D01*
Y0347264D02*
X0861713Y0344114D01*
X0867618Y0339390D02*
X0871555D01*
X0863681Y0336634D02*
X0864862D01*
X0867618Y0339390D01*
X0797933Y0869311D02*
Y0876791D01*
X0802028Y0896083D02*
X0802264Y0895846D01*
Y0881122D02*
Y0895846D01*
X0797933Y0876791D02*
X0802264Y0881122D01*
X0797933Y0869311D02*
X0800295Y0866949D01*
X0807776D01*
X0818012Y0856713D01*
Y0849232D02*
Y0856713D01*
X0815100Y0846320D02*
X0818012Y0849232D01*
X0804891Y0846320D02*
X0815100D01*
X0812027Y0893012D02*
X0828248Y0876791D01*
Y0859075D02*
Y0876791D01*
Y0859075D02*
X0832972Y0854350D01*
X0837303D01*
X0879429Y0347657D02*
X0884990Y0342096D01*
X0876280Y0347657D02*
X0879429D01*
X0873917Y0350020D02*
X0876280Y0347657D01*
X0888140Y0333090D02*
Y0344065D01*
X0881398Y0350807D02*
X0888140Y0344065D01*
X0878642Y0350807D02*
X0881398D01*
X0891289Y0333090D02*
Y0345640D01*
X0883760Y0353169D02*
X0891289Y0345640D01*
X0882579Y0353169D02*
X0883760D01*
X0884990Y0333090D02*
Y0342096D01*
X0865650Y0377972D02*
Y0607689D01*
X0863681Y0376004D02*
X0865650Y0377972D01*
X0863681Y0361437D02*
Y0376004D01*
X0863287Y0379153D02*
Y0606507D01*
X0861319Y0377185D02*
X0863287Y0379153D01*
X0861319Y0359862D02*
Y0377185D01*
X0858563Y0382697D02*
Y0603358D01*
X0861319Y0359862D02*
X0866831Y0354350D01*
X0858563Y0342146D02*
X0874311D01*
X0871555Y0339390D02*
X0872392Y0338553D01*
X0853051Y0824429D02*
X0875098D01*
X0842421Y0835059D02*
X0853051Y0824429D01*
X0836909Y0835059D02*
X0842421D01*
X0877461Y0833878D02*
Y0881516D01*
X0871555Y0827972D02*
X0877461Y0833878D01*
X0854626Y0827972D02*
X0871555D01*
X0843996Y0838602D02*
X0854626Y0827972D01*
X0846358Y0841596D02*
X0856439Y0831516D01*
X0862894Y0887027D02*
X0872342Y0877579D01*
Y0850413D02*
Y0877579D01*
X0868012Y0846083D02*
X0872342Y0850413D01*
X0864468Y0889783D02*
X0875098Y0879154D01*
X0848720Y0887027D02*
X0862894D01*
X0855413Y0889783D02*
X0864468D01*
X0852028Y0893169D02*
X0855413Y0889783D01*
X0852028Y0893169D02*
Y0896712D01*
X0812027Y0893012D02*
Y0896083D01*
X0833760Y0881909D02*
X0858169D01*
X0822027Y0893642D02*
X0833760Y0881909D01*
X0822027Y0893642D02*
Y0896083D01*
X0841240Y0884665D02*
X0860532D01*
X0832028Y0893878D02*
X0841240Y0884665D01*
X0832028Y0893878D02*
Y0896083D01*
X0881841Y0333090D02*
Y0340571D01*
X0873917Y0350020D02*
Y0350413D01*
X0837303Y0844508D02*
X0851476D01*
X0836909Y0844901D02*
X0837303Y0844508D01*
Y0838602D02*
X0843996D01*
X0837175Y0841596D02*
X0846358D01*
X0851476Y0844508D02*
X0853051Y0846083D01*
X0868012D01*
X0849901Y0848051D02*
X0850689Y0848839D01*
X0836516Y0848051D02*
X0849901D01*
X0860532Y0884665D02*
X0869587Y0875610D01*
X0850689Y0848839D02*
X0866831D01*
X0869587Y0851594D01*
Y0875610D01*
X0858169Y0881909D02*
X0862894Y0877185D01*
Y0871280D02*
Y0877185D01*
X0842815Y0851201D02*
X0862894Y0871280D01*
X0836909Y0851201D02*
X0842815D01*
X0877461Y0356713D02*
X0880266Y0359518D01*
X0883415D02*
Y0365374D01*
X0878248Y0354350D02*
X0883415Y0359518D01*
X0878691Y0333090D02*
Y0341703D01*
X0876280Y0344114D02*
X0878691Y0341703D01*
X0861713Y0344114D02*
X0876280D01*
X0875541Y0333090D02*
Y0340915D01*
X0874311Y0342146D02*
X0875541Y0340915D01*
X0872392Y0333090D02*
Y0338553D01*
X0863681Y0361437D02*
X0868406Y0356713D01*
X0877461D01*
X0866831Y0354350D02*
X0878248D01*
X0856201Y0386240D02*
Y0602570D01*
X0860925Y0380728D02*
Y0604933D01*
X0763854Y0699059D02*
X0853272Y0609642D01*
X0763287Y0706918D02*
Y0871468D01*
X0766216Y0699847D02*
X0855634Y0610429D01*
X0765650Y0708493D02*
Y0870015D01*
X0768578Y0701421D02*
X0857996Y0612004D01*
X0768012Y0710067D02*
Y0865956D01*
X0770941Y0702996D02*
X0860358Y0613579D01*
X0770374Y0711248D02*
Y0861625D01*
X0773303Y0704177D02*
X0862721Y0614760D01*
X0790453Y0912224D02*
X0826909D01*
X0832421Y0906713D01*
X0862894Y0896083D02*
X0877461Y0881516D01*
X0862027Y0896083D02*
X0862894D01*
X0842027Y0893720D02*
X0848720Y0887027D01*
X0842027Y0893720D02*
Y0896083D01*
D12*
X0870817Y0365374D02*
D03*
X0873967D02*
D03*
X0869242Y0333090D02*
D03*
X0872392Y0333090D02*
D03*
X0875541D02*
D03*
X0878691Y0333090D02*
D03*
X0881841D02*
D03*
X0884990D02*
D03*
X0888140D02*
D03*
X0891289D02*
D03*
X0894439D02*
D03*
X0897589D02*
D03*
X0896014Y0365374D02*
D03*
X0892864D02*
D03*
X0889715D02*
D03*
X0886565D02*
D03*
X0883415D02*
D03*
X0880266D02*
D03*
X0877116D02*
D03*
X0867667D02*
D03*
D13*
X0804891Y0858919D02*
D03*
X0804891Y0855769D02*
D03*
Y0852620D02*
D03*
X0804891Y0849470D02*
D03*
Y0846320D02*
D03*
Y0843171D02*
D03*
Y0840021D02*
D03*
Y0830573D02*
D03*
X0837175Y0832147D02*
D03*
Y0835297D02*
D03*
Y0838447D02*
D03*
Y0841596D02*
D03*
Y0844746D02*
D03*
Y0847895D02*
D03*
Y0851045D02*
D03*
X0837175Y0854194D02*
D03*
Y0857344D02*
D03*
X0837175Y0860494D02*
D03*
X0804891Y0836872D02*
D03*
Y0833722D02*
D03*
D14*
X0882421Y0906713D02*
D03*
X0782421D02*
D03*
X0872421D02*
D03*
X0862421D02*
D03*
X0852421D02*
D03*
X0842421D02*
D03*
X0832421D02*
D03*
X0822421D02*
D03*
X0812421D02*
D03*
X0802421D02*
D03*
X0792421D02*
D03*
X0872421Y0896712D02*
D03*
X0862421D02*
D03*
X0852421D02*
D03*
X0842421D02*
D03*
X0832421D02*
D03*
X0822421D02*
D03*
X0812421D02*
D03*
X0802421D02*
D03*
D15*
X0882421D02*
D03*
X0782421D02*
D03*
D16*
X0792421D02*
D03*
D17*
X0863632Y0349035D02*
D03*
X0901525Y0349232D02*
D03*
X0820836Y0864529D02*
D03*
X0821033Y0826635D02*
D03*
D18*
X0796281Y0845381D02*
D03*
Y0864283D02*
D03*
Y0826483D02*
D03*
D19*
X0814481Y0817383D02*
D03*
X0804581Y0873483D02*
D03*
X0814481D02*
D03*
X0834081D02*
D03*
X0843981D02*
D03*
X0883381D02*
D03*
X0863681Y0860983D02*
D03*
Y0839783D02*
D03*
X0852581Y0817383D02*
D03*
X0834081D02*
D03*
X0863681D02*
D03*
X0824281D02*
D03*
X0853824Y0873483D02*
D03*
D20*
X0845177Y0356319D02*
D03*
X0913878Y0344547D02*
D03*
D21*
X0845177Y0366319D02*
D03*
X0913878Y0354547D02*
D03*
D22*
X0845177Y0333484D02*
D03*
D23*
X0798956Y0858450D02*
D03*
X0796004D02*
D03*
X0793051D02*
D03*
X0790098D02*
D03*
X0787146D02*
D03*
X0784193D02*
D03*
X0781245Y0858279D02*
D03*
X0778470Y0857270D02*
D03*
X0776131Y0855468D02*
D03*
X0774488Y0853015D02*
D03*
X0773704Y0850168D02*
D03*
X0773623Y0847216D02*
D03*
Y0844263D02*
D03*
Y0841311D02*
D03*
Y0838358D02*
D03*
Y0835405D02*
D03*
Y0832452D02*
D03*
Y0829500D02*
D03*
Y0826547D02*
D03*
Y0823594D02*
D03*
Y0820641D02*
D03*
Y0817689D02*
D03*
Y0814736D02*
D03*
Y0811783D02*
D03*
Y0808830D02*
D03*
Y0805878D02*
D03*
Y0802925D02*
D03*
Y0799972D02*
D03*
Y0797019D02*
D03*
Y0794067D02*
D03*
Y0791114D02*
D03*
Y0788161D02*
D03*
Y0785208D02*
D03*
Y0782256D02*
D03*
Y0779303D02*
D03*
Y0776350D02*
D03*
Y0773397D02*
D03*
Y0770445D02*
D03*
Y0767492D02*
D03*
Y0764539D02*
D03*
Y0761586D02*
D03*
Y0758634D02*
D03*
Y0755681D02*
D03*
Y0752728D02*
D03*
Y0749775D02*
D03*
Y0746823D02*
D03*
Y0743870D02*
D03*
Y0740917D02*
D03*
Y0737964D02*
D03*
Y0735012D02*
D03*
Y0732059D02*
D03*
Y0729106D02*
D03*
Y0726153D02*
D03*
Y0723201D02*
D03*
X0773731Y0720250D02*
D03*
X0774300Y0717352D02*
D03*
X0775409Y0714616D02*
D03*
X0777013Y0712137D02*
D03*
X0779009Y0709961D02*
D03*
X0781097Y0707873D02*
D03*
X0783185Y0705785D02*
D03*
X0785273Y0703697D02*
D03*
X0787361Y0701610D02*
D03*
X0789449Y0699522D02*
D03*
X0791537Y0697434D02*
D03*
X0793625Y0695346D02*
D03*
X0795713Y0693258D02*
D03*
X0797801Y0691170D02*
D03*
X0799889Y0689082D02*
D03*
X0801976Y0686994D02*
D03*
X0804064Y0684906D02*
D03*
X0806152Y0682818D02*
D03*
X0808240Y0680730D02*
D03*
X0810328Y0678643D02*
D03*
X0812416Y0676555D02*
D03*
X0814504Y0674467D02*
D03*
X0816592Y0672379D02*
D03*
X0818680Y0670291D02*
D03*
X0820768Y0668203D02*
D03*
X0822855Y0666115D02*
D03*
X0824943Y0664027D02*
D03*
X0827031Y0661939D02*
D03*
X0829119Y0659851D02*
D03*
X0831207Y0657763D02*
D03*
X0833295Y0655676D02*
D03*
X0835383Y0653588D02*
D03*
X0837471Y0651500D02*
D03*
X0839559Y0649412D02*
D03*
X0841647Y0647324D02*
D03*
X0843735Y0645236D02*
D03*
X0845823Y0643148D02*
D03*
X0847910Y0641060D02*
D03*
X0849998Y0638972D02*
D03*
X0852086Y0636884D02*
D03*
X0854174Y0634796D02*
D03*
X0856262Y0632709D02*
D03*
X0858350Y0630621D02*
D03*
X0860438Y0628533D02*
D03*
X0862526Y0626445D02*
D03*
X0864614Y0624357D02*
D03*
X0866631Y0622201D02*
D03*
X0867897Y0619533D02*
D03*
X0868136Y0616590D02*
D03*
Y0613637D02*
D03*
Y0610685D02*
D03*
Y0607732D02*
D03*
Y0604779D02*
D03*
Y0601826D02*
D03*
Y0598874D02*
D03*
Y0595921D02*
D03*
Y0592968D02*
D03*
Y0590015D02*
D03*
Y0587063D02*
D03*
Y0584110D02*
D03*
Y0581157D02*
D03*
Y0578204D02*
D03*
Y0575252D02*
D03*
Y0572299D02*
D03*
Y0569346D02*
D03*
Y0566394D02*
D03*
Y0563441D02*
D03*
Y0560488D02*
D03*
Y0557535D02*
D03*
Y0554582D02*
D03*
Y0551630D02*
D03*
Y0548677D02*
D03*
Y0545724D02*
D03*
Y0542771D02*
D03*
Y0539819D02*
D03*
Y0536866D02*
D03*
Y0533913D02*
D03*
Y0530961D02*
D03*
Y0528008D02*
D03*
Y0525055D02*
D03*
Y0522102D02*
D03*
Y0519149D02*
D03*
Y0516197D02*
D03*
Y0513244D02*
D03*
Y0510291D02*
D03*
Y0507338D02*
D03*
Y0504386D02*
D03*
Y0501433D02*
D03*
Y0498480D02*
D03*
Y0495528D02*
D03*
Y0492575D02*
D03*
Y0489622D02*
D03*
Y0486669D02*
D03*
Y0483716D02*
D03*
Y0480764D02*
D03*
Y0477811D02*
D03*
Y0474858D02*
D03*
Y0471906D02*
D03*
Y0468953D02*
D03*
Y0466000D02*
D03*
Y0463047D02*
D03*
Y0460094D02*
D03*
Y0457142D02*
D03*
Y0454189D02*
D03*
Y0451236D02*
D03*
Y0448283D02*
D03*
Y0445331D02*
D03*
Y0442378D02*
D03*
Y0439425D02*
D03*
Y0436473D02*
D03*
Y0433520D02*
D03*
Y0430567D02*
D03*
Y0427614D02*
D03*
Y0424661D02*
D03*
Y0421709D02*
D03*
Y0418756D02*
D03*
Y0415803D02*
D03*
Y0412851D02*
D03*
Y0409898D02*
D03*
Y0406945D02*
D03*
Y0403992D02*
D03*
Y0401039D02*
D03*
Y0398087D02*
D03*
Y0395134D02*
D03*
Y0392181D02*
D03*
Y0389229D02*
D03*
Y0386276D02*
D03*
Y0383323D02*
D03*
Y0380370D02*
D03*
Y0377417D02*
D03*
Y0374465D02*
D03*
Y0371512D02*
D03*
X0871195Y0359213D02*
D03*
X0874148D02*
D03*
X0876647Y0372120D02*
D03*
Y0375073D02*
D03*
Y0378026D02*
D03*
Y0380978D02*
D03*
Y0383931D02*
D03*
Y0386884D02*
D03*
Y0389837D02*
D03*
Y0392790D02*
D03*
Y0395742D02*
D03*
Y0398695D02*
D03*
Y0401648D02*
D03*
Y0404600D02*
D03*
Y0407553D02*
D03*
Y0410506D02*
D03*
Y0413459D02*
D03*
Y0416411D02*
D03*
Y0419364D02*
D03*
Y0422317D02*
D03*
Y0425270D02*
D03*
Y0428223D02*
D03*
Y0431175D02*
D03*
Y0434128D02*
D03*
Y0437081D02*
D03*
Y0440033D02*
D03*
Y0442986D02*
D03*
Y0445939D02*
D03*
Y0448892D02*
D03*
Y0451845D02*
D03*
Y0454797D02*
D03*
Y0457750D02*
D03*
Y0460703D02*
D03*
Y0463656D02*
D03*
Y0466608D02*
D03*
Y0469561D02*
D03*
Y0472514D02*
D03*
Y0475466D02*
D03*
Y0478419D02*
D03*
Y0481372D02*
D03*
Y0484325D02*
D03*
Y0487278D02*
D03*
Y0490230D02*
D03*
Y0493183D02*
D03*
Y0496136D02*
D03*
Y0499088D02*
D03*
Y0502041D02*
D03*
Y0504994D02*
D03*
Y0507947D02*
D03*
Y0510899D02*
D03*
Y0513852D02*
D03*
Y0516805D02*
D03*
Y0519758D02*
D03*
Y0522711D02*
D03*
Y0525663D02*
D03*
Y0528616D02*
D03*
Y0531569D02*
D03*
Y0534521D02*
D03*
Y0537474D02*
D03*
Y0540427D02*
D03*
Y0543380D02*
D03*
Y0546333D02*
D03*
Y0549285D02*
D03*
Y0552238D02*
D03*
Y0555191D02*
D03*
Y0558144D02*
D03*
Y0561096D02*
D03*
Y0564049D02*
D03*
Y0567002D02*
D03*
Y0569954D02*
D03*
Y0572907D02*
D03*
Y0575860D02*
D03*
Y0578813D02*
D03*
Y0581766D02*
D03*
Y0584718D02*
D03*
Y0587671D02*
D03*
Y0590624D02*
D03*
Y0593576D02*
D03*
Y0596529D02*
D03*
Y0599482D02*
D03*
Y0602435D02*
D03*
Y0605387D02*
D03*
Y0608340D02*
D03*
Y0611293D02*
D03*
Y0614246D02*
D03*
Y0617199D02*
D03*
X0876468Y0620146D02*
D03*
X0875755Y0623011D02*
D03*
X0874511Y0625689D02*
D03*
X0872805Y0628099D02*
D03*
X0870769Y0630237D02*
D03*
X0868681Y0632325D02*
D03*
X0866593Y0634413D02*
D03*
X0864505Y0636501D02*
D03*
X0862417Y0638589D02*
D03*
X0860329Y0640677D02*
D03*
X0858241Y0642765D02*
D03*
X0856153Y0644853D02*
D03*
X0854066Y0646941D02*
D03*
X0851978Y0649029D02*
D03*
X0849890Y0651117D02*
D03*
X0847802Y0653204D02*
D03*
X0845714Y0655292D02*
D03*
X0843626Y0657380D02*
D03*
X0841538Y0659468D02*
D03*
X0839450Y0661556D02*
D03*
X0837362Y0663644D02*
D03*
X0835274Y0665732D02*
D03*
X0833186Y0667820D02*
D03*
X0831098Y0669908D02*
D03*
X0829010Y0671996D02*
D03*
X0826923Y0674084D02*
D03*
X0824835Y0676171D02*
D03*
X0822747Y0678259D02*
D03*
X0820659Y0680347D02*
D03*
X0818571Y0682435D02*
D03*
X0816483Y0684523D02*
D03*
X0814395Y0686611D02*
D03*
X0812307Y0688699D02*
D03*
X0810219Y0690787D02*
D03*
X0808132Y0692875D02*
D03*
X0806044Y0694963D02*
D03*
X0803956Y0697051D02*
D03*
X0801868Y0699138D02*
D03*
X0799780Y0701227D02*
D03*
X0797692Y0703314D02*
D03*
X0795604Y0705402D02*
D03*
X0793516Y0707490D02*
D03*
X0791428Y0709578D02*
D03*
X0789340Y0711666D02*
D03*
X0787252Y0713754D02*
D03*
X0785164Y0715842D02*
D03*
X0783243Y0718084D02*
D03*
X0782235Y0720859D02*
D03*
X0782133Y0723810D02*
D03*
Y0838968D02*
D03*
Y0841920D02*
D03*
Y0844873D02*
D03*
Y0847826D02*
D03*
X0784195Y0849939D02*
D03*
X0787148D02*
D03*
X0790101D02*
D03*
X0793054D02*
D03*
X0796006D02*
D03*
X0798959D02*
D03*
X0810577Y0850327D02*
D03*
X0811052Y0853241D02*
D03*
Y0856194D02*
D03*
X0798799Y0839556D02*
D03*
X0795846D02*
D03*
X0792893D02*
D03*
X0789942Y0839467D02*
D03*
X0787128Y0838573D02*
D03*
X0784784Y0836776D02*
D03*
X0783217Y0834273D02*
D03*
X0782586Y0831389D02*
D03*
X0782575Y0828436D02*
D03*
Y0825484D02*
D03*
Y0822531D02*
D03*
Y0819578D02*
D03*
Y0816625D02*
D03*
Y0813673D02*
D03*
Y0810720D02*
D03*
Y0807767D02*
D03*
Y0804814D02*
D03*
Y0801861D02*
D03*
Y0798909D02*
D03*
Y0795956D02*
D03*
Y0793003D02*
D03*
Y0790051D02*
D03*
Y0787098D02*
D03*
Y0784145D02*
D03*
Y0781192D02*
D03*
Y0778239D02*
D03*
Y0775287D02*
D03*
Y0772334D02*
D03*
Y0769381D02*
D03*
Y0766428D02*
D03*
Y0763476D02*
D03*
Y0760523D02*
D03*
Y0757570D02*
D03*
Y0754618D02*
D03*
Y0751665D02*
D03*
Y0748712D02*
D03*
Y0745759D02*
D03*
Y0742806D02*
D03*
Y0739854D02*
D03*
Y0736901D02*
D03*
X0782589Y0733948D02*
D03*
X0782972Y0731020D02*
D03*
X0783876Y0728209D02*
D03*
X0785270Y0725606D02*
D03*
X0787109Y0723296D02*
D03*
X0789205Y0721217D02*
D03*
X0791293Y0719129D02*
D03*
X0793381Y0717041D02*
D03*
X0795469Y0714953D02*
D03*
X0797557Y0712865D02*
D03*
X0799645Y0710777D02*
D03*
X0801733Y0708689D02*
D03*
X0803820Y0706601D02*
D03*
X0805908Y0704513D02*
D03*
X0807996Y0702425D02*
D03*
X0810084Y0700338D02*
D03*
X0812172Y0698250D02*
D03*
X0814260Y0696162D02*
D03*
X0816348Y0694074D02*
D03*
X0818436Y0691986D02*
D03*
X0820524Y0689898D02*
D03*
X0822612Y0687810D02*
D03*
X0824699Y0685722D02*
D03*
X0826787Y0683634D02*
D03*
X0828875Y0681546D02*
D03*
X0830963Y0679458D02*
D03*
X0833051Y0677371D02*
D03*
X0835139Y0675283D02*
D03*
X0837227Y0673195D02*
D03*
X0839315Y0671107D02*
D03*
X0841403Y0669019D02*
D03*
X0843491Y0666931D02*
D03*
X0845579Y0664843D02*
D03*
X0847666Y0662755D02*
D03*
X0849754Y0660667D02*
D03*
X0851842Y0658579D02*
D03*
X0853930Y0656491D02*
D03*
X0856018Y0654403D02*
D03*
X0858106Y0652316D02*
D03*
X0860194Y0650228D02*
D03*
X0862282Y0648140D02*
D03*
X0864370Y0646052D02*
D03*
X0866458Y0643964D02*
D03*
X0868546Y0641876D02*
D03*
X0870634Y0639788D02*
D03*
X0872721Y0637700D02*
D03*
X0874809Y0635612D02*
D03*
X0876897Y0633524D02*
D03*
X0878985Y0631436D02*
D03*
X0881073Y0629349D02*
D03*
X0883161Y0627261D02*
D03*
X0885100Y0625034D02*
D03*
X0886431Y0622398D02*
D03*
X0886984Y0619498D02*
D03*
X0887030Y0616545D02*
D03*
Y0613592D02*
D03*
Y0610640D02*
D03*
Y0607687D02*
D03*
Y0604734D02*
D03*
Y0601782D02*
D03*
Y0598829D02*
D03*
Y0595876D02*
D03*
Y0592923D02*
D03*
Y0589970D02*
D03*
Y0587018D02*
D03*
Y0584065D02*
D03*
Y0581112D02*
D03*
Y0578160D02*
D03*
Y0575207D02*
D03*
Y0572254D02*
D03*
Y0569301D02*
D03*
Y0566349D02*
D03*
Y0563396D02*
D03*
Y0560443D02*
D03*
Y0557490D02*
D03*
Y0554537D02*
D03*
Y0551585D02*
D03*
Y0548632D02*
D03*
Y0545679D02*
D03*
Y0542727D02*
D03*
Y0539774D02*
D03*
Y0536821D02*
D03*
Y0533868D02*
D03*
Y0530915D02*
D03*
Y0527963D02*
D03*
Y0525010D02*
D03*
Y0522057D02*
D03*
Y0519104D02*
D03*
Y0516152D02*
D03*
Y0513199D02*
D03*
Y0510246D02*
D03*
Y0507294D02*
D03*
Y0504341D02*
D03*
Y0501388D02*
D03*
Y0498435D02*
D03*
Y0495482D02*
D03*
Y0492530D02*
D03*
Y0489577D02*
D03*
Y0486624D02*
D03*
Y0483672D02*
D03*
Y0480719D02*
D03*
Y0477766D02*
D03*
Y0474813D02*
D03*
Y0471861D02*
D03*
Y0468908D02*
D03*
Y0465955D02*
D03*
Y0463002D02*
D03*
Y0460049D02*
D03*
Y0457097D02*
D03*
Y0454144D02*
D03*
Y0451191D02*
D03*
Y0448239D02*
D03*
Y0445286D02*
D03*
Y0442333D02*
D03*
Y0439380D02*
D03*
Y0436427D02*
D03*
Y0433475D02*
D03*
Y0430522D02*
D03*
Y0427569D02*
D03*
Y0424616D02*
D03*
Y0421664D02*
D03*
Y0418711D02*
D03*
Y0415758D02*
D03*
Y0412806D02*
D03*
Y0409853D02*
D03*
Y0406900D02*
D03*
Y0403947D02*
D03*
Y0400994D02*
D03*
Y0398042D02*
D03*
Y0395089D02*
D03*
Y0392136D02*
D03*
Y0389183D02*
D03*
Y0386231D02*
D03*
Y0383278D02*
D03*
Y0380325D02*
D03*
Y0377373D02*
D03*
Y0374420D02*
D03*
Y0371467D02*
D03*
X0887248Y0359799D02*
D03*
X0890141Y0359209D02*
D03*
X0893094D02*
D03*
X0895549Y0372161D02*
D03*
Y0375114D02*
D03*
Y0378066D02*
D03*
Y0381019D02*
D03*
Y0383972D02*
D03*
Y0386925D02*
D03*
Y0389878D02*
D03*
Y0392830D02*
D03*
Y0395783D02*
D03*
Y0398736D02*
D03*
Y0401688D02*
D03*
Y0404641D02*
D03*
Y0407594D02*
D03*
Y0410547D02*
D03*
Y0413499D02*
D03*
Y0416452D02*
D03*
Y0419405D02*
D03*
Y0422358D02*
D03*
Y0425311D02*
D03*
Y0428263D02*
D03*
Y0431216D02*
D03*
Y0434169D02*
D03*
Y0437121D02*
D03*
Y0440074D02*
D03*
Y0443027D02*
D03*
Y0445980D02*
D03*
Y0448933D02*
D03*
Y0451885D02*
D03*
Y0454838D02*
D03*
Y0457791D02*
D03*
Y0460744D02*
D03*
Y0463696D02*
D03*
Y0466649D02*
D03*
Y0469602D02*
D03*
Y0472554D02*
D03*
Y0475507D02*
D03*
Y0478460D02*
D03*
Y0481413D02*
D03*
Y0484366D02*
D03*
Y0487318D02*
D03*
Y0490271D02*
D03*
Y0493224D02*
D03*
Y0496176D02*
D03*
Y0499129D02*
D03*
Y0502082D02*
D03*
Y0505035D02*
D03*
Y0507987D02*
D03*
Y0510940D02*
D03*
Y0513893D02*
D03*
Y0516846D02*
D03*
Y0519799D02*
D03*
Y0522751D02*
D03*
Y0525704D02*
D03*
Y0528657D02*
D03*
Y0531609D02*
D03*
Y0534562D02*
D03*
Y0537515D02*
D03*
Y0540468D02*
D03*
Y0543421D02*
D03*
Y0546373D02*
D03*
Y0549326D02*
D03*
Y0552279D02*
D03*
Y0555232D02*
D03*
Y0558184D02*
D03*
Y0561137D02*
D03*
Y0564090D02*
D03*
Y0567042D02*
D03*
Y0569995D02*
D03*
Y0572948D02*
D03*
Y0575901D02*
D03*
Y0578854D02*
D03*
Y0581806D02*
D03*
Y0584759D02*
D03*
Y0587712D02*
D03*
Y0590664D02*
D03*
Y0593617D02*
D03*
Y0596570D02*
D03*
Y0599523D02*
D03*
Y0602476D02*
D03*
Y0605428D02*
D03*
Y0608381D02*
D03*
Y0611334D02*
D03*
Y0614287D02*
D03*
Y0617239D02*
D03*
Y0620192D02*
D03*
X0895449Y0623143D02*
D03*
X0894790Y0626021D02*
D03*
X0893460Y0628658D02*
D03*
X0891555Y0630914D02*
D03*
X0889467Y0633002D02*
D03*
X0887379Y0635089D02*
D03*
X0885291Y0637178D02*
D03*
X0883203Y0639265D02*
D03*
X0881115Y0641353D02*
D03*
X0879027Y0643441D02*
D03*
X0876940Y0645529D02*
D03*
X0874852Y0647617D02*
D03*
X0872764Y0649705D02*
D03*
X0870676Y0651793D02*
D03*
X0868588Y0653881D02*
D03*
X0866500Y0655969D02*
D03*
X0864412Y0658056D02*
D03*
X0862324Y0660145D02*
D03*
X0860236Y0662232D02*
D03*
X0858148Y0664320D02*
D03*
X0856061Y0666408D02*
D03*
X0853973Y0668496D02*
D03*
X0851885Y0670584D02*
D03*
X0849797Y0672672D02*
D03*
X0847709Y0674760D02*
D03*
X0845621Y0676848D02*
D03*
X0843533Y0678936D02*
D03*
X0841445Y0681024D02*
D03*
X0839357Y0683111D02*
D03*
X0837269Y0685199D02*
D03*
X0835181Y0687287D02*
D03*
X0833093Y0689375D02*
D03*
X0831005Y0691463D02*
D03*
X0828918Y0693551D02*
D03*
X0826830Y0695639D02*
D03*
X0824742Y0697727D02*
D03*
X0822654Y0699815D02*
D03*
X0820566Y0701903D02*
D03*
X0818478Y0703991D02*
D03*
X0816390Y0706078D02*
D03*
X0814302Y0708166D02*
D03*
X0812214Y0710254D02*
D03*
X0810126Y0712342D02*
D03*
X0808039Y0714430D02*
D03*
X0805951Y0716518D02*
D03*
X0803863Y0718606D02*
D03*
X0801775Y0720694D02*
D03*
X0799687Y0722782D02*
D03*
X0797599Y0724870D02*
D03*
X0795511Y0726958D02*
D03*
X0793423Y0729045D02*
D03*
X0791733Y0731466D02*
D03*
X0791099Y0734350D02*
D03*
X0791094Y0737303D02*
D03*
Y0740256D02*
D03*
Y0743209D02*
D03*
Y0746161D02*
D03*
Y0749114D02*
D03*
Y0752067D02*
D03*
Y0755020D02*
D03*
Y0757972D02*
D03*
Y0760925D02*
D03*
Y0763878D02*
D03*
Y0766830D02*
D03*
Y0769783D02*
D03*
Y0772736D02*
D03*
Y0775689D02*
D03*
Y0778642D02*
D03*
Y0781594D02*
D03*
Y0784547D02*
D03*
Y0787500D02*
D03*
Y0790452D02*
D03*
Y0793405D02*
D03*
Y0796358D02*
D03*
Y0799311D02*
D03*
Y0802264D02*
D03*
Y0805216D02*
D03*
Y0808169D02*
D03*
Y0811122D02*
D03*
Y0814075D02*
D03*
Y0817027D02*
D03*
Y0819980D02*
D03*
Y0822933D02*
D03*
Y0825885D02*
D03*
Y0828838D02*
D03*
X0793064Y0831038D02*
D03*
X0796017D02*
D03*
X0798970D02*
D03*
X0810585Y0831434D02*
D03*
X0811056Y0834348D02*
D03*
Y0837301D02*
D03*
X0849213Y0865374D02*
D03*
X0843504Y0865866D02*
D03*
X0889000Y0910000D02*
D03*
Y0896000D02*
D03*
Y0826000D02*
D03*
X0885500Y0903000D02*
D03*
Y0889000D02*
D03*
Y0861000D02*
D03*
X0882000Y0854000D02*
D03*
X0885500Y0847000D02*
D03*
X0882000Y0840000D02*
D03*
Y0826000D02*
D03*
X0885500Y0819000D02*
D03*
X0878500D02*
D03*
X0868000Y0910000D02*
D03*
X0871500Y0819000D02*
D03*
X0861000Y0854000D02*
D03*
X0857500Y0861000D02*
D03*
X0854000Y0854000D02*
D03*
Y0840000D02*
D03*
X0847000Y0910000D02*
D03*
Y0826000D02*
D03*
X0843500Y0861000D02*
D03*
X0840000Y0826000D02*
D03*
X0843500Y0819000D02*
D03*
X0836500Y0903000D02*
D03*
X0833000Y0826000D02*
D03*
X0829500Y0847000D02*
D03*
X0826000Y0840000D02*
D03*
X0829500Y0833000D02*
D03*
X0819000Y0840000D02*
D03*
X0822500Y0833000D02*
D03*
X0815500D02*
D03*
X0812000Y0826000D02*
D03*
X0805000D02*
D03*
Y0812000D02*
D03*
X0801500Y0819000D02*
D03*
X0798000Y0812000D02*
D03*
X0791000Y0868000D02*
D03*
X0787500Y0847000D02*
D03*
X0770000Y0896000D02*
D03*
X0763000Y0910000D02*
D03*
X0766500Y0889000D02*
D03*
X0756000Y0910000D02*
D03*
X0759500Y0903000D02*
D03*
X0756000Y0896000D02*
D03*
Y0882000D02*
D03*
Y0868000D02*
D03*
Y0854000D02*
D03*
Y0840000D02*
D03*
Y0826000D02*
D03*
Y0812000D02*
D03*
X0769882Y0906909D02*
D03*
D24*
X0773524Y0902480D02*
D03*
X0785335Y0887815D02*
D03*
X0863681Y0336634D02*
D03*
X0881841Y0340571D02*
D03*
X0873917Y0350413D02*
D03*
X0878642Y0350807D02*
D03*
X0882579Y0353169D02*
D03*
X0856201Y0386240D02*
D03*
M02*
