G04 Layer_Color=8388736*
%FSAX25Y25*%
%MOIN*%
G70*
G01*
G75*
%ADD28R,0.02769X0.08674*%
%ADD29R,0.08674X0.02769*%
%ADD30C,0.06706*%
%ADD31R,0.06706X0.06706*%
%ADD32R,0.06706X0.06706*%
%ADD33C,0.06902*%
%ADD34C,0.06312*%
%ADD35R,0.08674X0.08674*%
%ADD36R,0.07099X0.07099*%
%ADD37C,0.07099*%
%ADD38C,0.13398*%
D28*
X0870817Y0365374D02*
D03*
X0873967D02*
D03*
X0869242Y0333090D02*
D03*
X0872392Y0333090D02*
D03*
X0875541D02*
D03*
X0878691Y0333090D02*
D03*
X0881841D02*
D03*
X0884990D02*
D03*
X0888140D02*
D03*
X0891289D02*
D03*
X0894439D02*
D03*
X0897589D02*
D03*
X0896014Y0365374D02*
D03*
X0892864D02*
D03*
X0889715D02*
D03*
X0886565D02*
D03*
X0883415D02*
D03*
X0880266D02*
D03*
X0877116D02*
D03*
X0867667D02*
D03*
D29*
X0804891Y0858919D02*
D03*
X0804891Y0855769D02*
D03*
Y0852620D02*
D03*
X0804891Y0849470D02*
D03*
Y0846320D02*
D03*
Y0843171D02*
D03*
Y0840021D02*
D03*
Y0830573D02*
D03*
X0837175Y0832147D02*
D03*
Y0835297D02*
D03*
Y0838447D02*
D03*
Y0841596D02*
D03*
Y0844746D02*
D03*
Y0847895D02*
D03*
Y0851045D02*
D03*
X0837175Y0854194D02*
D03*
Y0857344D02*
D03*
X0837175Y0860494D02*
D03*
X0804891Y0836872D02*
D03*
Y0833722D02*
D03*
D30*
X0882421Y0906713D02*
D03*
X0782421D02*
D03*
X0872421D02*
D03*
X0862421D02*
D03*
X0852421D02*
D03*
X0842421D02*
D03*
X0832421D02*
D03*
X0822421D02*
D03*
X0812421D02*
D03*
X0802421D02*
D03*
X0792421D02*
D03*
X0872421Y0896712D02*
D03*
X0862421D02*
D03*
X0852421D02*
D03*
X0842421D02*
D03*
X0832421D02*
D03*
X0822421D02*
D03*
X0812421D02*
D03*
X0802421D02*
D03*
D31*
X0882421D02*
D03*
X0782421D02*
D03*
D32*
X0792421D02*
D03*
D33*
X0863632Y0349035D02*
D03*
X0901525Y0349232D02*
D03*
X0820836Y0864529D02*
D03*
X0821033Y0826635D02*
D03*
D34*
X0796281Y0845381D02*
D03*
Y0864283D02*
D03*
Y0826483D02*
D03*
D35*
X0814481Y0817383D02*
D03*
X0804581Y0873483D02*
D03*
X0814481D02*
D03*
X0834081D02*
D03*
X0843981D02*
D03*
X0883381D02*
D03*
X0863681Y0860983D02*
D03*
Y0839783D02*
D03*
X0852581Y0817383D02*
D03*
X0834081D02*
D03*
X0863681D02*
D03*
X0824281D02*
D03*
X0853824Y0873483D02*
D03*
D36*
X0845177Y0356319D02*
D03*
X0913878Y0344547D02*
D03*
D37*
X0845177Y0366319D02*
D03*
X0913878Y0354547D02*
D03*
D38*
X0845177Y0333484D02*
D03*
M02*
