G04 Layer_Color=16711935*
%FSAX25Y25*%
%MOIN*%
G70*
G01*
G75*
%ADD39C,0.01968*%
%ADD40C,0.01968*%
D39*
X0904626Y0633602D02*
G03*
X0901090Y0642138I-0012071J0000000D01*
G01*
X0815650Y0732045D02*
G03*
X0818808Y0724420I0010783J0000000D01*
G01*
X0752657Y0706327D02*
G03*
X0756004Y0698248I0011426J0000000D01*
G01*
X0851083Y0598169D02*
G03*
X0847547Y0606705I-0012071J0000000D01*
G01*
X0818808Y0724420D02*
X0843799Y0699429D01*
X0843799D02*
X0901090Y0642138D01*
X0843799Y0699429D02*
X0843799D01*
X0904626Y0614705D02*
Y0633602D01*
Y0410256D02*
X0920374Y0394508D01*
Y0318524D02*
Y0394508D01*
X0829823Y0379547D02*
X0851083Y0400807D01*
X0829823Y0318524D02*
Y0379547D01*
Y0318524D02*
X0920374D01*
X0851083Y0400807D02*
Y0553957D01*
X0904626Y0410256D02*
Y0614705D01*
X0752657Y0706327D02*
Y0750807D01*
X0815650Y0732045D02*
Y0750807D01*
X0756004Y0698248D02*
X0847547Y0606705D01*
X0851083Y0553957D02*
Y0598169D01*
X0815650Y0809862D02*
X0894390D01*
X0815650Y0750807D02*
Y0809862D01*
X0752657Y0750807D02*
Y0916161D01*
X0894390Y0809862D02*
Y0916161D01*
X0752657D02*
X0894390D01*
D40*
X0752657Y0706327D02*
D03*
M02*
