G04 Layer_Physical_Order=1*
G04 Layer_Color=255*
%FSAX25Y25*%
%MOIN*%
G70*
G01*
G75*
%ADD10C,0.00406*%
%ADD11C,0.01000*%
%ADD12R,0.01969X0.07874*%
%ADD13R,0.07874X0.01969*%
%ADD14C,0.12598*%
%ADD15C,0.05906*%
%ADD16R,0.05906X0.05906*%
%ADD17C,0.05512*%
%ADD18R,0.07874X0.07874*%
%ADD19C,0.06102*%
%ADD20C,0.12097*%
%ADD21R,0.05906X0.05906*%
%ADD22C,0.02500*%
G36*
X0788469Y0893781D02*
Y0892760D01*
X0790134D01*
X0790875Y0891579D01*
X0790749Y0890301D01*
X0790266Y0888708D01*
X0789481Y0887240D01*
X0788469Y0886006D01*
X0788411Y0885967D01*
X0772222Y0869778D01*
X0772217Y0869782D01*
X0771224Y0868619D01*
X0770165Y0869198D01*
X0770167Y0869205D01*
X0770952Y0870673D01*
X0771964Y0871907D01*
X0772022Y0871946D01*
X0785662Y0885586D01*
X0786212Y0885695D01*
X0786957Y0886193D01*
X0787454Y0886937D01*
X0787629Y0887815D01*
X0787454Y0888693D01*
X0786957Y0889437D01*
X0786212Y0889934D01*
X0786113Y0889954D01*
X0785347Y0891150D01*
X0785460Y0891674D01*
X0786636Y0893051D01*
X0787287Y0894114D01*
X0788469Y0893781D01*
D02*
G37*
G36*
X0782987Y0912957D02*
X0782822Y0912709D01*
X0782647Y0911831D01*
X0781791Y0910975D01*
X0780913Y0910800D01*
X0780169Y0910303D01*
X0779672Y0909559D01*
X0779497Y0908681D01*
X0779672Y0907803D01*
X0780169Y0907059D01*
X0780262Y0906997D01*
Y0901800D01*
X0780275Y0901731D01*
X0780119Y0900143D01*
X0779636Y0898550D01*
X0778851Y0897082D01*
X0777839Y0895849D01*
X0777781Y0895810D01*
X0762773Y0880802D01*
X0762768Y0880806D01*
X0761593Y0879430D01*
X0760647Y0877886D01*
X0759954Y0876214D01*
X0759532Y0874454D01*
X0759390Y0872649D01*
X0759396D01*
Y0706130D01*
X0759390D01*
X0759532Y0704326D01*
X0759954Y0702566D01*
X0760647Y0700893D01*
X0761593Y0699350D01*
X0762768Y0697973D01*
X0762773Y0697978D01*
X0852190Y0608560D01*
X0852248Y0608521D01*
X0853261Y0607288D01*
X0854045Y0605820D01*
X0854529Y0604227D01*
X0854685Y0602639D01*
X0854671Y0602570D01*
Y0387924D01*
X0854579Y0387862D01*
X0854081Y0387118D01*
X0853907Y0386240D01*
X0854081Y0385362D01*
X0854579Y0384618D01*
X0855323Y0384121D01*
X0856016Y0383983D01*
X0856347Y0383400D01*
X0856506Y0382802D01*
X0855119Y0381416D01*
X0854788Y0380920D01*
X0854671Y0380335D01*
Y0344508D01*
X0854788Y0343922D01*
X0855119Y0343426D01*
X0857481Y0341064D01*
X0857978Y0340733D01*
X0858563Y0340616D01*
X0865011D01*
X0865501Y0339435D01*
X0864715Y0338649D01*
X0864559Y0338753D01*
X0863681Y0338928D01*
X0862803Y0338753D01*
X0862059Y0338256D01*
X0861562Y0337512D01*
X0861387Y0336634D01*
X0861562Y0335756D01*
X0862059Y0335012D01*
X0862803Y0334514D01*
X0863681Y0334340D01*
X0864559Y0334514D01*
X0865303Y0335012D01*
X0865442Y0335220D01*
X0865447Y0335221D01*
X0865944Y0335552D01*
X0868252Y0337860D01*
X0870407D01*
Y0328153D01*
X0876707D01*
Y0328153D01*
X0893274D01*
Y0338028D01*
X0892819D01*
Y0345640D01*
X0892702Y0346225D01*
X0892371Y0346721D01*
X0884841Y0354251D01*
X0884345Y0354582D01*
X0884340Y0354583D01*
X0884201Y0354791D01*
X0883457Y0355289D01*
X0883092Y0355361D01*
X0882651Y0356590D01*
X0884497Y0358436D01*
X0884828Y0358932D01*
X0884945Y0359518D01*
Y0360437D01*
X0885400D01*
Y0370311D01*
X0878281D01*
Y0360437D01*
X0878281D01*
X0877970Y0359385D01*
X0876827Y0358242D01*
X0869039D01*
X0865210Y0362070D01*
Y0375370D01*
X0866731Y0376891D01*
X0867062Y0377387D01*
X0867179Y0377972D01*
Y0607689D01*
X0867185D01*
X0867043Y0609493D01*
X0866621Y0611253D01*
X0865928Y0612925D01*
X0864982Y0614469D01*
X0863806Y0615845D01*
X0863802Y0615841D01*
X0774384Y0705259D01*
X0774327Y0705297D01*
X0773314Y0706531D01*
X0772529Y0707999D01*
X0772046Y0709592D01*
X0771890Y0711180D01*
X0771903Y0711248D01*
Y0861625D01*
X0771890Y0861694D01*
X0772046Y0863282D01*
X0772529Y0864875D01*
X0773314Y0866343D01*
X0774327Y0867577D01*
X0774384Y0867615D01*
X0790574Y0883805D01*
X0790578Y0883800D01*
X0791754Y0885177D01*
X0792699Y0886720D01*
X0793392Y0888392D01*
X0793815Y0890152D01*
X0793957Y0891957D01*
X0794805Y0892760D01*
X0796374D01*
Y0900665D01*
X0788833D01*
Y0903044D01*
X0790014Y0903578D01*
X0790428Y0903260D01*
X0791389Y0902861D01*
X0792421Y0902726D01*
X0793453Y0902861D01*
X0794415Y0903260D01*
X0795240Y0903893D01*
X0795874Y0904719D01*
X0796272Y0905681D01*
X0796408Y0906713D01*
X0796272Y0907744D01*
X0795874Y0908706D01*
X0795254Y0909514D01*
X0795265Y0909600D01*
X0795665Y0910695D01*
X0799178D01*
X0799577Y0909600D01*
X0799588Y0909514D01*
X0798969Y0908706D01*
X0798570Y0907744D01*
X0798434Y0906713D01*
X0798570Y0905681D01*
X0798969Y0904719D01*
X0799602Y0903893D01*
X0800428Y0903260D01*
X0801389Y0902861D01*
X0802421Y0902726D01*
X0803453Y0902861D01*
X0803917Y0903054D01*
X0805359Y0901612D01*
X0805278Y0900992D01*
X0805047Y0900771D01*
X0804016Y0900330D01*
X0803453Y0900564D01*
X0802421Y0900699D01*
X0801389Y0900564D01*
X0800428Y0900165D01*
X0799602Y0899532D01*
X0798969Y0898706D01*
X0798570Y0897744D01*
X0798434Y0896712D01*
X0798570Y0895681D01*
X0798969Y0894719D01*
X0799602Y0893893D01*
X0800428Y0893260D01*
X0800734Y0893133D01*
Y0881756D01*
X0796852Y0877873D01*
X0796520Y0877376D01*
X0796404Y0876791D01*
Y0869311D01*
X0796520Y0868726D01*
X0796852Y0868229D01*
X0799214Y0865867D01*
X0799710Y0865536D01*
X0800295Y0865419D01*
X0807142D01*
X0816482Y0856079D01*
Y0849866D01*
X0814466Y0847850D01*
X0809828D01*
Y0848305D01*
X0799954D01*
Y0844336D01*
Y0841187D01*
X0809828D01*
Y0841642D01*
X0818250D01*
X0818835Y0841758D01*
X0819331Y0842089D01*
X0826967Y0849726D01*
X0827299Y0850222D01*
X0827415Y0850807D01*
Y0856201D01*
X0828506Y0856653D01*
X0831371Y0853789D01*
X0831891Y0853269D01*
X0832238Y0853029D01*
Y0849061D01*
Y0845911D01*
Y0842761D01*
Y0839612D01*
Y0836462D01*
Y0833313D01*
X0842005D01*
X0851970Y0823348D01*
X0852466Y0823016D01*
X0853051Y0822900D01*
X0875098D01*
X0875684Y0823016D01*
X0876180Y0823348D01*
X0891185Y0838353D01*
X0892367Y0837864D01*
Y0811885D01*
X0815650D01*
X0814875Y0811731D01*
X0814219Y0811293D01*
X0813780Y0810636D01*
X0813626Y0809862D01*
Y0750807D01*
Y0732045D01*
X0813626D01*
X0813783Y0730042D01*
X0814253Y0728088D01*
X0815022Y0726231D01*
X0816072Y0724517D01*
X0817377Y0722989D01*
X0817377Y0722990D01*
X0842369Y0697999D01*
X0842369Y0697999D01*
X0899660Y0640707D01*
X0899767Y0640636D01*
X0900941Y0639205D01*
X0901873Y0637462D01*
X0902446Y0635570D01*
X0902628Y0633728D01*
X0902603Y0633602D01*
Y0614705D01*
Y0410256D01*
X0902757Y0409482D01*
X0903195Y0408825D01*
X0918351Y0393670D01*
Y0357064D01*
X0918018Y0356893D01*
X0917170Y0356750D01*
X0916697Y0357366D01*
X0915871Y0358000D01*
X0914910Y0358398D01*
X0913878Y0358534D01*
X0912846Y0358398D01*
X0911884Y0358000D01*
X0911059Y0357366D01*
X0910425Y0356541D01*
X0910027Y0355579D01*
X0909891Y0354547D01*
X0910027Y0353515D01*
X0910425Y0352554D01*
X0911059Y0351728D01*
X0911884Y0351095D01*
X0912846Y0350696D01*
X0913878Y0350560D01*
X0914910Y0350696D01*
X0915871Y0351095D01*
X0916697Y0351728D01*
X0917170Y0352344D01*
X0918018Y0352201D01*
X0918351Y0352031D01*
Y0349466D01*
X0917831Y0348500D01*
X0917170Y0348500D01*
X0909925D01*
Y0340594D01*
X0917170D01*
X0917831Y0340594D01*
X0918351Y0339629D01*
Y0320547D01*
X0831846D01*
Y0378709D01*
X0852513Y0399377D01*
X0852952Y0400033D01*
X0853106Y0400807D01*
X0853106Y0400807D01*
Y0553957D01*
Y0598169D01*
X0853110D01*
X0852937Y0600375D01*
X0852420Y0602526D01*
X0851574Y0604570D01*
X0850418Y0606456D01*
X0848981Y0608139D01*
X0848978Y0608135D01*
X0757435Y0699679D01*
X0757337Y0699744D01*
X0756237Y0701084D01*
X0755365Y0702716D01*
X0754828Y0704486D01*
X0754658Y0706212D01*
X0754681Y0706327D01*
X0754681Y0706327D01*
Y0750807D01*
Y0914138D01*
X0782380D01*
X0782987Y0912957D01*
D02*
G37*
G36*
X0805016Y0893419D02*
X0805931Y0892934D01*
X0805969Y0892741D01*
X0806300Y0892245D01*
X0824356Y0874189D01*
Y0868423D01*
X0823175Y0867841D01*
X0822879Y0868068D01*
X0821894Y0868476D01*
X0820836Y0868615D01*
X0819779Y0868476D01*
X0818793Y0868068D01*
X0817947Y0867418D01*
X0817297Y0866572D01*
X0816889Y0865587D01*
X0816750Y0864529D01*
X0816889Y0863472D01*
X0817297Y0862486D01*
X0817947Y0861640D01*
X0818793Y0860990D01*
X0819779Y0860582D01*
X0820836Y0860443D01*
X0821894Y0860582D01*
X0822879Y0860990D01*
X0823175Y0861217D01*
X0824356Y0860635D01*
Y0851441D01*
X0818306Y0845390D01*
X0818053Y0845440D01*
X0817664Y0846722D01*
X0819093Y0848151D01*
X0819425Y0848647D01*
X0819541Y0849232D01*
Y0856713D01*
X0819425Y0857298D01*
X0819093Y0857794D01*
X0808857Y0868030D01*
X0808361Y0868362D01*
X0807776Y0868478D01*
X0800929D01*
X0799462Y0869944D01*
Y0876158D01*
X0803345Y0880040D01*
X0803677Y0880537D01*
X0803793Y0881122D01*
Y0892694D01*
X0804792Y0893444D01*
X0805016Y0893419D01*
D02*
G37*
G36*
X0873569Y0847807D02*
Y0838448D01*
X0868166Y0833045D01*
X0857072D01*
X0848320Y0841797D01*
X0848809Y0842978D01*
X0851476D01*
X0852062Y0843095D01*
X0852558Y0843426D01*
X0853685Y0844553D01*
X0868012D01*
X0868597Y0844670D01*
X0869093Y0845001D01*
X0872388Y0848296D01*
X0873569Y0847807D01*
D02*
G37*
G36*
X0868057Y0874977D02*
Y0852228D01*
X0866197Y0850368D01*
X0850689D01*
X0850104Y0850251D01*
X0849607Y0849920D01*
X0849268Y0849580D01*
X0845028D01*
X0844539Y0850762D01*
X0863975Y0870198D01*
X0864307Y0870694D01*
X0864423Y0871280D01*
Y0876941D01*
X0865010Y0877326D01*
X0865572Y0877462D01*
X0868057Y0874977D01*
D02*
G37*
G36*
X0872031Y0351640D02*
X0871798Y0351291D01*
X0871623Y0350413D01*
X0871798Y0349535D01*
X0872295Y0348791D01*
X0873039Y0348294D01*
X0873590Y0348184D01*
X0874949Y0346825D01*
X0874658Y0345845D01*
X0874509Y0345643D01*
X0867624D01*
X0867042Y0346825D01*
X0867171Y0346992D01*
X0867579Y0347978D01*
X0867718Y0349035D01*
X0867579Y0350093D01*
X0867171Y0351078D01*
X0866706Y0351684D01*
X0866711Y0351729D01*
X0867045Y0352556D01*
X0867264Y0352821D01*
X0871507D01*
X0872031Y0351640D01*
D02*
G37*
G36*
X0892367Y0885010D02*
X0891185Y0884521D01*
X0877912Y0897794D01*
X0877416Y0898125D01*
X0876831Y0898242D01*
X0876066D01*
X0875874Y0898706D01*
X0875240Y0899532D01*
X0874415Y0900165D01*
X0873453Y0900564D01*
X0872421Y0900699D01*
X0871389Y0900564D01*
X0870428Y0900165D01*
X0869602Y0899532D01*
X0868968Y0898706D01*
X0868570Y0897744D01*
X0868434Y0896712D01*
X0868570Y0895681D01*
X0868968Y0894719D01*
X0869602Y0893893D01*
X0870428Y0893260D01*
X0871389Y0892861D01*
X0872421Y0892726D01*
X0873453Y0892861D01*
X0874415Y0893260D01*
X0875240Y0893893D01*
X0875490Y0894219D01*
X0876816Y0894431D01*
X0877009Y0894372D01*
X0889317Y0882063D01*
Y0840811D01*
X0874465Y0825959D01*
X0873326D01*
X0873177Y0826160D01*
X0872885Y0827140D01*
X0878542Y0832796D01*
X0878874Y0833293D01*
X0878990Y0833878D01*
Y0881516D01*
X0878874Y0882101D01*
X0878542Y0882597D01*
X0866034Y0895105D01*
X0866272Y0895681D01*
X0866408Y0896712D01*
X0866272Y0897744D01*
X0865874Y0898706D01*
X0865240Y0899532D01*
X0864415Y0900165D01*
X0863453Y0900564D01*
X0862421Y0900699D01*
X0861389Y0900564D01*
X0860428Y0900165D01*
X0859602Y0899532D01*
X0858969Y0898706D01*
X0858570Y0897744D01*
X0858434Y0896712D01*
X0858570Y0895681D01*
X0858969Y0894719D01*
X0859602Y0893893D01*
X0860428Y0893260D01*
X0861389Y0892861D01*
X0862421Y0892726D01*
X0863178Y0892825D01*
X0863541Y0892494D01*
X0863324Y0891715D01*
X0862977Y0891313D01*
X0856047D01*
X0855057Y0892302D01*
X0855182Y0893848D01*
X0855240Y0893893D01*
X0855874Y0894719D01*
X0856272Y0895681D01*
X0856408Y0896712D01*
X0856272Y0897744D01*
X0855874Y0898706D01*
X0855240Y0899532D01*
X0854415Y0900165D01*
X0853453Y0900564D01*
X0852421Y0900699D01*
X0851389Y0900564D01*
X0850428Y0900165D01*
X0849602Y0899532D01*
X0848969Y0898706D01*
X0848570Y0897744D01*
X0848434Y0896712D01*
X0848570Y0895681D01*
X0848969Y0894719D01*
X0849602Y0893893D01*
X0850428Y0893260D01*
X0850498Y0893231D01*
Y0893169D01*
X0850615Y0892584D01*
X0850946Y0892088D01*
X0853296Y0889738D01*
X0852807Y0888557D01*
X0849354D01*
X0845165Y0892746D01*
X0845240Y0893893D01*
X0845874Y0894719D01*
X0846272Y0895681D01*
X0846408Y0896712D01*
X0846272Y0897744D01*
X0845874Y0898706D01*
X0845240Y0899532D01*
X0844415Y0900165D01*
X0843453Y0900564D01*
X0842421Y0900699D01*
X0841389Y0900564D01*
X0840428Y0900165D01*
X0839602Y0899532D01*
X0838968Y0898706D01*
X0838570Y0897744D01*
X0838434Y0896712D01*
X0838570Y0895681D01*
X0838968Y0894719D01*
X0839602Y0893893D01*
X0840428Y0893260D01*
X0840604Y0893187D01*
X0840615Y0893135D01*
X0840946Y0892639D01*
X0846299Y0887286D01*
X0845847Y0886195D01*
X0841874D01*
X0835175Y0892894D01*
X0835240Y0893893D01*
X0835874Y0894719D01*
X0836272Y0895681D01*
X0836408Y0896712D01*
X0836272Y0897744D01*
X0835874Y0898706D01*
X0835240Y0899532D01*
X0834415Y0900165D01*
X0833453Y0900564D01*
X0832421Y0900699D01*
X0831389Y0900564D01*
X0830428Y0900165D01*
X0829602Y0899532D01*
X0828969Y0898706D01*
X0828570Y0897744D01*
X0828434Y0896712D01*
X0828570Y0895681D01*
X0828969Y0894719D01*
X0829602Y0893893D01*
X0830428Y0893260D01*
X0830716Y0893140D01*
X0830946Y0892797D01*
X0839123Y0884620D01*
X0838633Y0883439D01*
X0834393D01*
X0825137Y0892695D01*
X0825214Y0893874D01*
X0825240Y0893893D01*
X0825874Y0894719D01*
X0826272Y0895681D01*
X0826408Y0896712D01*
X0826272Y0897744D01*
X0825874Y0898706D01*
X0825240Y0899532D01*
X0824415Y0900165D01*
X0823453Y0900564D01*
X0822421Y0900699D01*
X0821389Y0900564D01*
X0820428Y0900165D01*
X0819602Y0899532D01*
X0818968Y0898706D01*
X0818570Y0897744D01*
X0818434Y0896712D01*
X0818570Y0895681D01*
X0818968Y0894719D01*
X0819602Y0893893D01*
X0820428Y0893260D01*
X0820587Y0893194D01*
X0820615Y0893056D01*
X0820946Y0892560D01*
X0832678Y0880828D01*
X0833175Y0880496D01*
X0833760Y0880380D01*
X0857536D01*
X0861364Y0876552D01*
Y0871913D01*
X0843293Y0853842D01*
X0842112Y0854331D01*
Y0856179D01*
X0833307D01*
X0829777Y0859708D01*
Y0876791D01*
X0829661Y0877377D01*
X0829329Y0877873D01*
X0814933Y0892269D01*
X0815092Y0893780D01*
X0815240Y0893893D01*
X0815874Y0894719D01*
X0816272Y0895681D01*
X0816408Y0896712D01*
X0816272Y0897744D01*
X0815874Y0898706D01*
X0815240Y0899532D01*
X0814415Y0900165D01*
X0813453Y0900564D01*
X0812421Y0900699D01*
X0811389Y0900564D01*
X0810428Y0900165D01*
X0810092Y0899908D01*
X0808911Y0900490D01*
Y0901752D01*
X0808795Y0902337D01*
X0808463Y0902833D01*
X0806080Y0905217D01*
X0806272Y0905681D01*
X0806408Y0906713D01*
X0806272Y0907744D01*
X0805874Y0908706D01*
X0805254Y0909514D01*
X0805265Y0909600D01*
X0805665Y0910695D01*
X0809178D01*
X0809577Y0909600D01*
X0809588Y0909514D01*
X0808969Y0908706D01*
X0808570Y0907744D01*
X0808434Y0906713D01*
X0808570Y0905681D01*
X0808969Y0904719D01*
X0809602Y0903893D01*
X0810428Y0903260D01*
X0811389Y0902861D01*
X0812421Y0902726D01*
X0813453Y0902861D01*
X0814415Y0903260D01*
X0815240Y0903893D01*
X0815874Y0904719D01*
X0816272Y0905681D01*
X0816408Y0906713D01*
X0816272Y0907744D01*
X0815874Y0908706D01*
X0815254Y0909514D01*
X0815265Y0909600D01*
X0815664Y0910695D01*
X0819178D01*
X0819577Y0909600D01*
X0819588Y0909514D01*
X0818968Y0908706D01*
X0818570Y0907744D01*
X0818434Y0906713D01*
X0818570Y0905681D01*
X0818968Y0904719D01*
X0819602Y0903893D01*
X0820428Y0903260D01*
X0821389Y0902861D01*
X0822421Y0902726D01*
X0823453Y0902861D01*
X0824415Y0903260D01*
X0825240Y0903893D01*
X0825874Y0904719D01*
X0826272Y0905681D01*
X0826408Y0906713D01*
X0826272Y0907744D01*
X0825874Y0908706D01*
X0825776Y0908833D01*
X0826270Y0910130D01*
X0826749Y0910222D01*
X0828762Y0908208D01*
X0828570Y0907744D01*
X0828434Y0906713D01*
X0828570Y0905681D01*
X0828969Y0904719D01*
X0829602Y0903893D01*
X0830428Y0903260D01*
X0831389Y0902861D01*
X0832421Y0902726D01*
X0833453Y0902861D01*
X0834415Y0903260D01*
X0835240Y0903893D01*
X0835874Y0904719D01*
X0836272Y0905681D01*
X0836408Y0906713D01*
X0836272Y0907744D01*
X0835874Y0908706D01*
X0835240Y0909532D01*
X0834415Y0910165D01*
X0833453Y0910564D01*
X0832421Y0910699D01*
X0831389Y0910564D01*
X0830925Y0910371D01*
X0828339Y0912957D01*
X0828829Y0914138D01*
X0892367D01*
Y0885010D01*
D02*
G37*
%LPC*%
G36*
X0901525Y0353318D02*
X0900468Y0353179D01*
X0899483Y0352771D01*
X0898636Y0352122D01*
X0897987Y0351275D01*
X0897579Y0350290D01*
X0897439Y0349232D01*
X0897579Y0348175D01*
X0897987Y0347189D01*
X0898636Y0346343D01*
X0899483Y0345693D01*
X0900468Y0345285D01*
X0901525Y0345146D01*
X0902583Y0345285D01*
X0903569Y0345693D01*
X0904415Y0346343D01*
X0905064Y0347189D01*
X0905472Y0348175D01*
X0905612Y0349232D01*
X0905472Y0350290D01*
X0905064Y0351275D01*
X0904415Y0352122D01*
X0903569Y0352771D01*
X0902583Y0353179D01*
X0901525Y0353318D01*
D02*
G37*
G36*
X0845177Y0340819D02*
X0843746Y0340678D01*
X0842370Y0340260D01*
X0841102Y0339583D01*
X0839991Y0338670D01*
X0839079Y0337559D01*
X0838401Y0336291D01*
X0837984Y0334915D01*
X0837843Y0333484D01*
X0837984Y0332053D01*
X0838401Y0330677D01*
X0839079Y0329409D01*
X0839991Y0328298D01*
X0841102Y0327386D01*
X0842370Y0326708D01*
X0843746Y0326291D01*
X0845177Y0326150D01*
X0846608Y0326291D01*
X0847984Y0326708D01*
X0849252Y0327386D01*
X0850363Y0328298D01*
X0851276Y0329409D01*
X0851953Y0330677D01*
X0852371Y0332053D01*
X0852512Y0333484D01*
X0852371Y0334915D01*
X0851953Y0336291D01*
X0851276Y0337559D01*
X0850363Y0338670D01*
X0849252Y0339583D01*
X0847984Y0340260D01*
X0846608Y0340678D01*
X0845177Y0340819D01*
D02*
G37*
G36*
X0821033Y0830721D02*
X0819975Y0830582D01*
X0818990Y0830174D01*
X0818144Y0829525D01*
X0817494Y0828678D01*
X0817086Y0827693D01*
X0816947Y0826635D01*
X0817086Y0825578D01*
X0817494Y0824592D01*
X0818144Y0823746D01*
X0818990Y0823097D01*
X0819975Y0822688D01*
X0821033Y0822549D01*
X0822091Y0822688D01*
X0823076Y0823097D01*
X0823922Y0823746D01*
X0824572Y0824592D01*
X0824980Y0825578D01*
X0825119Y0826635D01*
X0824980Y0827693D01*
X0824572Y0828678D01*
X0823922Y0829525D01*
X0823076Y0830174D01*
X0822091Y0830582D01*
X0821033Y0830721D01*
D02*
G37*
G36*
X0849130Y0360272D02*
X0841224D01*
Y0352366D01*
X0849130D01*
Y0360272D01*
D02*
G37*
G36*
X0845177Y0370306D02*
X0844145Y0370170D01*
X0843184Y0369772D01*
X0842358Y0369138D01*
X0841724Y0368312D01*
X0841326Y0367351D01*
X0841190Y0366319D01*
X0841326Y0365287D01*
X0841724Y0364325D01*
X0842358Y0363500D01*
X0843184Y0362866D01*
X0844145Y0362468D01*
X0845177Y0362332D01*
X0846209Y0362468D01*
X0847171Y0362866D01*
X0847996Y0363500D01*
X0848630Y0364325D01*
X0849028Y0365287D01*
X0849164Y0366319D01*
X0849028Y0367351D01*
X0848630Y0368312D01*
X0847996Y0369138D01*
X0847171Y0369772D01*
X0846209Y0370170D01*
X0845177Y0370306D01*
D02*
G37*
G36*
X0809828Y0838856D02*
X0799954D01*
Y0838226D01*
X0793602D01*
Y0838240D01*
X0792081Y0838091D01*
X0790619Y0837647D01*
X0789271Y0836926D01*
X0788090Y0835957D01*
X0787120Y0834776D01*
X0786400Y0833428D01*
X0785956Y0831965D01*
X0785806Y0830444D01*
X0785820D01*
Y0734477D01*
X0785799D01*
X0785979Y0732184D01*
X0786516Y0729948D01*
X0787396Y0727824D01*
X0788597Y0725863D01*
X0790091Y0724115D01*
X0790106Y0724130D01*
X0790106Y0724130D01*
X0803712Y0710524D01*
X0803712Y0710523D01*
X0803712Y0710523D01*
X0883957Y0630279D01*
X0884792Y0629443D01*
X0885548Y0628576D01*
X0886043Y0627997D01*
X0887042Y0626366D01*
X0887774Y0624598D01*
X0888221Y0622738D01*
X0888368Y0620871D01*
X0888360Y0620831D01*
Y0370311D01*
X0887730D01*
Y0360437D01*
X0894848D01*
Y0370311D01*
X0894219D01*
Y0623653D01*
X0894230D01*
X0894092Y0625411D01*
X0893680Y0627126D01*
X0893005Y0628755D01*
X0892084Y0630258D01*
X0890938Y0631599D01*
X0890938Y0631599D01*
X0890096Y0632427D01*
X0872226Y0650296D01*
X0872225Y0650296D01*
X0794249Y0728273D01*
X0794204Y0728303D01*
X0793145Y0729594D01*
X0792332Y0731113D01*
X0791832Y0732762D01*
X0791669Y0734423D01*
X0791679Y0734477D01*
Y0830444D01*
X0791674Y0830471D01*
X0791816Y0831184D01*
X0792235Y0831812D01*
X0792862Y0832231D01*
X0793575Y0832373D01*
X0793602Y0832367D01*
X0799954D01*
Y0831738D01*
X0809828D01*
Y0834887D01*
Y0838856D01*
D02*
G37*
G36*
X0809828Y0857753D02*
X0799954D01*
Y0857124D01*
X0783082D01*
Y0857137D01*
X0781617Y0856992D01*
X0780208Y0856565D01*
X0778909Y0855871D01*
X0777771Y0854937D01*
X0776837Y0853799D01*
X0776143Y0852500D01*
X0775716Y0851091D01*
X0775571Y0849626D01*
X0775584D01*
Y0723453D01*
X0775562D01*
X0775743Y0721161D01*
X0776280Y0718925D01*
X0777160Y0716800D01*
X0778361Y0714840D01*
X0779854Y0713091D01*
X0779870Y0713106D01*
X0779870Y0713106D01*
X0804500Y0688476D01*
X0804500Y0688476D01*
X0866057Y0626919D01*
X0866892Y0626084D01*
X0867631Y0625209D01*
X0867997Y0624763D01*
X0868809Y0623243D01*
X0869309Y0621595D01*
X0869473Y0619933D01*
X0869462Y0619880D01*
Y0370311D01*
X0868833D01*
Y0360437D01*
X0875951D01*
Y0370311D01*
X0875321D01*
Y0619880D01*
X0875343D01*
X0875162Y0622172D01*
X0874626Y0624408D01*
X0873746Y0626533D01*
X0872544Y0628493D01*
X0871051Y0630242D01*
X0871035Y0630227D01*
X0871035Y0630227D01*
X0860021Y0641241D01*
X0860021Y0641241D01*
X0784013Y0717249D01*
X0783967Y0717280D01*
X0782908Y0718570D01*
X0782096Y0720090D01*
X0781596Y0721738D01*
X0781432Y0723400D01*
X0781443Y0723453D01*
Y0849626D01*
X0781440Y0849639D01*
X0781563Y0850255D01*
X0781919Y0850788D01*
X0782453Y0851145D01*
X0783069Y0851268D01*
X0783082Y0851265D01*
X0799954D01*
Y0850635D01*
X0809828D01*
Y0853785D01*
Y0857753D01*
D02*
G37*
G36*
X0768405Y0908914D02*
X0767024Y0908777D01*
X0765695Y0908374D01*
X0764470Y0907720D01*
X0763397Y0906839D01*
X0762516Y0905766D01*
X0761862Y0904541D01*
X0761459Y0903212D01*
X0761323Y0901831D01*
X0761459Y0900449D01*
X0761862Y0899120D01*
X0762516Y0897896D01*
X0763397Y0896822D01*
X0764470Y0895942D01*
X0765695Y0895287D01*
X0767024Y0894884D01*
X0768405Y0894748D01*
X0769787Y0894884D01*
X0771116Y0895287D01*
X0772340Y0895942D01*
X0773414Y0896822D01*
X0774295Y0897896D01*
X0774949Y0899120D01*
X0775352Y0900449D01*
X0775488Y0901831D01*
X0775352Y0903212D01*
X0774949Y0904541D01*
X0774295Y0905766D01*
X0773414Y0906839D01*
X0772340Y0907720D01*
X0771116Y0908374D01*
X0769787Y0908777D01*
X0768405Y0908914D01*
D02*
G37*
G36*
X0852421Y0910699D02*
X0851389Y0910564D01*
X0850428Y0910165D01*
X0849602Y0909532D01*
X0848969Y0908706D01*
X0848570Y0907744D01*
X0848434Y0906713D01*
X0848570Y0905681D01*
X0848969Y0904719D01*
X0849602Y0903893D01*
X0850428Y0903260D01*
X0851389Y0902861D01*
X0852421Y0902726D01*
X0853453Y0902861D01*
X0854415Y0903260D01*
X0855240Y0903893D01*
X0855874Y0904719D01*
X0856272Y0905681D01*
X0856408Y0906713D01*
X0856272Y0907744D01*
X0855874Y0908706D01*
X0855240Y0909532D01*
X0854415Y0910165D01*
X0853453Y0910564D01*
X0852421Y0910699D01*
D02*
G37*
G36*
X0862421D02*
X0861389Y0910564D01*
X0860428Y0910165D01*
X0859602Y0909532D01*
X0858969Y0908706D01*
X0858570Y0907744D01*
X0858434Y0906713D01*
X0858570Y0905681D01*
X0858969Y0904719D01*
X0859602Y0903893D01*
X0860428Y0903260D01*
X0861389Y0902861D01*
X0862421Y0902726D01*
X0863453Y0902861D01*
X0864415Y0903260D01*
X0865240Y0903893D01*
X0865874Y0904719D01*
X0866272Y0905681D01*
X0866408Y0906713D01*
X0866272Y0907744D01*
X0865874Y0908706D01*
X0865240Y0909532D01*
X0864415Y0910165D01*
X0863453Y0910564D01*
X0862421Y0910699D01*
D02*
G37*
G36*
X0872421D02*
X0871389Y0910564D01*
X0870428Y0910165D01*
X0869602Y0909532D01*
X0868968Y0908706D01*
X0868570Y0907744D01*
X0868434Y0906713D01*
X0868570Y0905681D01*
X0868968Y0904719D01*
X0869602Y0903893D01*
X0870428Y0903260D01*
X0871389Y0902861D01*
X0872421Y0902726D01*
X0873453Y0902861D01*
X0874415Y0903260D01*
X0875240Y0903893D01*
X0875874Y0904719D01*
X0876272Y0905681D01*
X0876408Y0906713D01*
X0876272Y0907744D01*
X0875874Y0908706D01*
X0875240Y0909532D01*
X0874415Y0910165D01*
X0873453Y0910564D01*
X0872421Y0910699D01*
D02*
G37*
G36*
X0842421D02*
X0841389Y0910564D01*
X0840428Y0910165D01*
X0839602Y0909532D01*
X0838968Y0908706D01*
X0838570Y0907744D01*
X0838434Y0906713D01*
X0838570Y0905681D01*
X0838968Y0904719D01*
X0839602Y0903893D01*
X0840428Y0903260D01*
X0841389Y0902861D01*
X0842421Y0902726D01*
X0843453Y0902861D01*
X0844415Y0903260D01*
X0845240Y0903893D01*
X0845874Y0904719D01*
X0846272Y0905681D01*
X0846408Y0906713D01*
X0846272Y0907744D01*
X0845874Y0908706D01*
X0845240Y0909532D01*
X0844415Y0910165D01*
X0843453Y0910564D01*
X0842421Y0910699D01*
D02*
G37*
%LPD*%
D10*
X0870689Y0619880D02*
G03*
X0867760Y0626951I-0010000J0000000D01*
G01*
X0804401Y0855566D02*
G03*
X0804891Y0855769I0000000J0000693D01*
G01*
X0870817Y0369333D02*
G03*
X0870689Y0369642I-0000438J0000000D01*
G01*
X0800623Y0855898D02*
G03*
X0800933Y0855769I0000310J0000310D01*
G01*
X0783082Y0855898D02*
G03*
X0776811Y0849626I0000000J-0006272D01*
G01*
Y0723453D02*
G03*
X0780737Y0713974I0013406J0000000D01*
G01*
X0874095Y0619880D02*
G03*
X0870168Y0629359I-0013406J0000000D01*
G01*
X0804401Y0852417D02*
G03*
X0804891Y0852620I0000000J0000693D01*
G01*
X0874095Y0369642D02*
G03*
X0873967Y0369333I0000310J-0000310D01*
G01*
X0800933Y0852620D02*
G03*
X0800623Y0852491I0000000J-0000438D01*
G01*
X0780217Y0723453D02*
G03*
X0783145Y0716382I0010000J0000000D01*
G01*
X0783082Y0852491D02*
G03*
X0780217Y0849626I0000000J-0002866D01*
G01*
X0800879Y0833722D02*
G03*
X0800751Y0833594I0000000J-0000128D01*
G01*
X0793602D02*
G03*
X0790453Y0830444I0000000J-0003150D01*
G01*
Y0734477D02*
G03*
X0793382Y0727406I0010000J0000000D01*
G01*
X0892992Y0623653D02*
G03*
X0890063Y0630724I-0010000J0000000D01*
G01*
X0892992Y0369642D02*
G03*
X0892864Y0369333I0000310J-0000310D01*
G01*
X0800751Y0837000D02*
G03*
X0800879Y0836872I0000128J0000000D01*
G01*
X0793602Y0837000D02*
G03*
X0787047Y0830444I0000000J-0006556D01*
G01*
Y0734477D02*
G03*
X0790973Y0724997I0013406J0000000D01*
G01*
X0889586Y0620831D02*
G03*
X0885660Y0630311I-0013406J0000000D01*
G01*
X0889715Y0369333D02*
G03*
X0889586Y0369642I-0000438J0000000D01*
G01*
X0805367Y0689344D02*
X0867760Y0626951D01*
X0805367Y0689344D02*
X0805367D01*
X0870817Y0365374D02*
Y0369333D01*
X0870689Y0369642D02*
Y0619880D01*
X0800933Y0855769D02*
X0804891D01*
X0783082Y0855898D02*
X0800623D01*
X0780737Y0713974D02*
X0805367Y0689344D01*
X0776811Y0723453D02*
Y0849626D01*
X0859153Y0640374D02*
X0870168Y0629359D01*
X0859153Y0640374D02*
X0859153D01*
X0874095Y0369642D02*
Y0619880D01*
X0873967Y0365374D02*
Y0369333D01*
X0800933Y0852620D02*
X0804891D01*
X0783082Y0852491D02*
X0800623D01*
X0783145Y0716382D02*
X0859153Y0640374D01*
X0780217Y0723453D02*
Y0849626D01*
X0800879Y0833722D02*
X0804891D01*
X0793602Y0833594D02*
X0800751D01*
X0793382Y0727406D02*
X0871358Y0649429D01*
X0790453Y0734477D02*
Y0830444D01*
X0871358Y0649429D02*
X0890063Y0630724D01*
X0892992Y0369642D02*
Y0623653D01*
X0892864Y0365374D02*
Y0369333D01*
X0800879Y0836872D02*
X0804891D01*
X0793602Y0837000D02*
X0800751D01*
X0790973Y0724997D02*
X0804580Y0711391D01*
X0787047Y0734477D02*
Y0830444D01*
X0804580Y0711391D02*
X0885660Y0630311D01*
X0889586Y0369642D02*
Y0620831D01*
X0889715Y0365374D02*
Y0369333D01*
X0871358Y0649429D02*
X0871358D01*
X0804580Y0711391D02*
X0804580D01*
D11*
X0770374Y0711248D02*
G03*
X0773303Y0704177I0010000J0000000D01*
G01*
X0768012Y0710067D02*
G03*
X0770941Y0702996I0010000J0000000D01*
G01*
X0765650Y0708493D02*
G03*
X0768578Y0701421I0010000J0000000D01*
G01*
X0763287Y0706918D02*
G03*
X0766216Y0699847I0010000J0000000D01*
G01*
X0760925Y0706130D02*
G03*
X0763854Y0699059I0010000J0000000D01*
G01*
X0865650Y0607689D02*
G03*
X0862721Y0614760I-0010000J0000000D01*
G01*
X0863287Y0606507D02*
G03*
X0860358Y0613579I-0010000J0000000D01*
G01*
X0860925Y0604933D02*
G03*
X0857996Y0612004I-0010000J0000000D01*
G01*
X0858563Y0603358D02*
G03*
X0855634Y0610429I-0010000J0000000D01*
G01*
X0856201Y0602570D02*
G03*
X0853272Y0609642I-0010000J0000000D01*
G01*
X0763854Y0879720D02*
G03*
X0760925Y0872649I0007071J-0007071D01*
G01*
X0778862Y0894728D02*
G03*
X0781791Y0901800I-0007071J0007071D01*
G01*
X0766216Y0878539D02*
G03*
X0763287Y0871468I0007071J-0007071D01*
G01*
X0782012Y0894335D02*
G03*
X0784941Y0901406I-0007071J0007071D01*
G01*
X0768578Y0876964D02*
G03*
X0765650Y0869893I0007071J-0007071D01*
G01*
X0784374Y0892760D02*
G03*
X0787303Y0899831I-0007071J0007071D01*
G01*
X0790453Y0912224D02*
G03*
X0787303Y0909075I0000000J-0003150D01*
G01*
X0770941Y0873027D02*
G03*
X0768012Y0865956I0007071J-0007071D01*
G01*
X0773303Y0868697D02*
G03*
X0770374Y0861625I0007071J-0007071D01*
G01*
X0789492Y0884886D02*
G03*
X0792421Y0891957I-0007071J0007071D01*
G01*
X0842027Y0893720D02*
Y0896083D01*
Y0893720D02*
X0848720Y0887027D01*
X0862027Y0896083D02*
X0862894D01*
X0877461Y0881516D01*
X0876831Y0896712D02*
X0890846Y0882697D01*
X0872657Y0896712D02*
X0876831D01*
X0872027Y0896083D02*
X0872657Y0896712D01*
X0826909Y0912224D02*
X0832421Y0906713D01*
X0790453Y0912224D02*
X0826909D01*
X0773303Y0704177D02*
X0862721Y0614760D01*
X0770374Y0711248D02*
Y0861625D01*
X0770941Y0702996D02*
X0860358Y0613579D01*
X0768012Y0710067D02*
Y0865956D01*
X0768578Y0701421D02*
X0857996Y0612004D01*
X0765650Y0708493D02*
Y0869893D01*
X0766216Y0699847D02*
X0855634Y0610429D01*
X0763287Y0706918D02*
Y0871468D01*
X0760925Y0706130D02*
Y0872649D01*
X0763854Y0699059D02*
X0853272Y0609642D01*
X0860925Y0380728D02*
Y0604933D01*
X0856201Y0386240D02*
Y0602570D01*
X0866831Y0354350D02*
X0878248D01*
X0868406Y0356713D02*
X0877461D01*
X0863681Y0361437D02*
X0868406Y0356713D01*
X0872392Y0333090D02*
Y0338553D01*
X0874311Y0342146D02*
X0875541Y0340915D01*
Y0333090D02*
Y0340915D01*
X0861713Y0344114D02*
X0876280D01*
X0878691Y0341703D01*
Y0333090D02*
Y0341703D01*
X0878248Y0354350D02*
X0883415Y0359518D01*
Y0365374D01*
X0877461Y0356713D02*
X0880266Y0359518D01*
X0836909Y0851201D02*
X0842815D01*
X0862894Y0871280D01*
Y0877185D01*
X0858169Y0881909D02*
X0862894Y0877185D01*
X0869587Y0851594D02*
Y0875610D01*
X0866831Y0848839D02*
X0869587Y0851594D01*
X0850689Y0848839D02*
X0866831D01*
X0860532Y0884665D02*
X0869587Y0875610D01*
X0836516Y0848051D02*
X0849901D01*
X0850689Y0848839D01*
X0853051Y0846083D02*
X0868012D01*
X0851476Y0844508D02*
X0853051Y0846083D01*
X0837175Y0841596D02*
X0846358D01*
X0837303Y0838602D02*
X0843996D01*
X0875098Y0824429D02*
X0890846Y0840177D01*
X0836909Y0844901D02*
X0837303Y0844508D01*
X0851476D01*
X0890846Y0840177D02*
Y0882697D01*
X0873917Y0350020D02*
Y0350413D01*
X0881841Y0333090D02*
Y0340571D01*
X0832028Y0893878D02*
Y0896083D01*
Y0893878D02*
X0841240Y0884665D01*
X0860532D01*
X0822027Y0893642D02*
Y0896083D01*
Y0893642D02*
X0833760Y0881909D01*
X0858169D01*
X0812027Y0893012D02*
Y0896083D01*
X0852028Y0893169D02*
Y0896712D01*
Y0893169D02*
X0855413Y0889783D01*
X0864468D01*
X0848720Y0887027D02*
X0862894D01*
X0864468Y0889783D02*
X0875098Y0879154D01*
X0868012Y0846083D02*
X0872342Y0850413D01*
Y0877579D01*
X0862894Y0887027D02*
X0872342Y0877579D01*
X0846358Y0841596D02*
X0856439Y0831516D01*
X0868799D01*
X0875098Y0837815D01*
Y0879154D01*
X0843996Y0838602D02*
X0854626Y0827972D01*
X0871555D01*
X0877461Y0833878D01*
Y0881516D01*
X0836909Y0835059D02*
X0842421D01*
X0853051Y0824429D01*
X0875098D01*
X0871555Y0339390D02*
X0872392Y0338553D01*
X0858563Y0342146D02*
X0874311D01*
X0861319Y0359862D02*
X0866831Y0354350D01*
X0858563Y0382697D02*
Y0603358D01*
X0861319Y0359862D02*
Y0377185D01*
X0863287Y0379153D01*
Y0606507D01*
X0863681Y0361437D02*
Y0376004D01*
X0865650Y0377972D01*
Y0607689D01*
X0884990Y0333090D02*
Y0342096D01*
X0882579Y0353169D02*
X0883760D01*
X0891289Y0345640D01*
Y0333090D02*
Y0345640D01*
X0878642Y0350807D02*
X0881398D01*
X0888140Y0344065D01*
Y0333090D02*
Y0344065D01*
X0873917Y0350020D02*
X0876280Y0347657D01*
X0879429D01*
X0884990Y0342096D01*
X0832972Y0854350D02*
X0837303D01*
X0828248Y0859075D02*
X0832972Y0854350D01*
X0828248Y0859075D02*
Y0876791D01*
X0812027Y0893012D02*
X0828248Y0876791D01*
X0804891Y0846320D02*
X0815100D01*
X0818012Y0849232D01*
Y0856713D01*
X0807776Y0866949D02*
X0818012Y0856713D01*
X0800295Y0866949D02*
X0807776D01*
X0797933Y0869311D02*
X0800295Y0866949D01*
X0797933Y0876791D02*
X0802264Y0881122D01*
Y0895846D01*
X0802028Y0896083D02*
X0802264Y0895846D01*
X0797933Y0869311D02*
Y0876791D01*
X0864862Y0336634D02*
X0867618Y0339390D01*
X0863681Y0336634D02*
X0864862D01*
X0867618Y0339390D02*
X0871555D01*
X0858563Y0347264D02*
X0861713Y0344114D01*
X0858563Y0347264D02*
Y0378366D01*
X0860925Y0380728D01*
X0856201Y0380335D02*
X0858563Y0382697D01*
X0856201Y0344508D02*
Y0380335D01*
Y0344508D02*
X0858563Y0342146D01*
X0781791Y0901800D02*
Y0908681D01*
X0763854Y0879720D02*
X0778862Y0894728D01*
X0784941Y0901406D02*
Y0911831D01*
X0766216Y0878539D02*
X0782012Y0894335D01*
X0768578Y0876964D02*
X0784374Y0892760D01*
X0787303Y0899831D02*
Y0909075D01*
X0825886Y0850807D02*
Y0874823D01*
X0818250Y0843171D02*
X0825886Y0850807D01*
X0804891Y0843171D02*
X0818250D01*
X0770941Y0873027D02*
X0785335Y0887421D01*
X0792421Y0891957D02*
Y0896712D01*
X0773303Y0868697D02*
X0789492Y0884886D01*
X0807382Y0893327D02*
X0825886Y0874823D01*
X0807382Y0893327D02*
Y0901752D01*
X0802421Y0906713D02*
X0807382Y0901752D01*
X0880266Y0359518D02*
Y0365374D01*
D12*
X0870817Y0365374D02*
D03*
X0873967D02*
D03*
X0867667Y0365374D02*
D03*
X0877116D02*
D03*
X0880266D02*
D03*
X0883415D02*
D03*
X0886565D02*
D03*
X0889715D02*
D03*
X0892864D02*
D03*
X0896014D02*
D03*
X0897589Y0333090D02*
D03*
X0894439D02*
D03*
X0891289D02*
D03*
X0888140D02*
D03*
X0884990D02*
D03*
X0881841D02*
D03*
X0878691D02*
D03*
X0875541Y0333090D02*
D03*
X0872392D02*
D03*
X0869242Y0333090D02*
D03*
D13*
X0804891Y0833722D02*
D03*
Y0836872D02*
D03*
X0837175Y0860494D02*
D03*
X0837175Y0857344D02*
D03*
Y0854194D02*
D03*
X0837175Y0851045D02*
D03*
Y0847895D02*
D03*
Y0844746D02*
D03*
Y0841596D02*
D03*
Y0838447D02*
D03*
Y0835297D02*
D03*
Y0832147D02*
D03*
X0804891Y0830573D02*
D03*
Y0840021D02*
D03*
Y0843171D02*
D03*
Y0846320D02*
D03*
Y0849470D02*
D03*
X0804891Y0852620D02*
D03*
Y0855769D02*
D03*
X0804891Y0858919D02*
D03*
D14*
X0845177Y0333484D02*
D03*
D15*
X0913878Y0354547D02*
D03*
X0845177Y0366319D02*
D03*
X0802421Y0896712D02*
D03*
X0812421D02*
D03*
X0822421D02*
D03*
X0832421D02*
D03*
X0842421D02*
D03*
X0852421D02*
D03*
X0862421D02*
D03*
X0872421D02*
D03*
X0792421Y0906713D02*
D03*
X0802421D02*
D03*
X0812421D02*
D03*
X0822421D02*
D03*
X0832421D02*
D03*
X0842421D02*
D03*
X0852421D02*
D03*
X0862421D02*
D03*
X0872421D02*
D03*
D16*
X0913878Y0344547D02*
D03*
X0845177Y0356319D02*
D03*
D17*
X0796281Y0826483D02*
D03*
Y0864283D02*
D03*
Y0845381D02*
D03*
D18*
X0853824Y0873483D02*
D03*
X0824281Y0817383D02*
D03*
X0863681D02*
D03*
X0834081D02*
D03*
X0852581D02*
D03*
X0863681Y0839783D02*
D03*
Y0860983D02*
D03*
X0883381Y0873483D02*
D03*
X0843981D02*
D03*
X0834081D02*
D03*
X0814481D02*
D03*
X0804581D02*
D03*
X0814481Y0817383D02*
D03*
D19*
X0821033Y0826635D02*
D03*
X0820836Y0864529D02*
D03*
X0901525Y0349232D02*
D03*
X0863632Y0349035D02*
D03*
D20*
X0768405Y0901831D02*
D03*
D21*
X0792421Y0896712D02*
D03*
D22*
X0856201Y0386240D02*
D03*
X0798989Y0839514D02*
D03*
X0795898D02*
D03*
X0792808Y0839462D02*
D03*
X0789817Y0838686D02*
D03*
X0787273Y0836932D02*
D03*
X0785465Y0834425D02*
D03*
X0785318Y0729544D02*
D03*
X0786559Y0726713D02*
D03*
X0788332Y0724182D02*
D03*
X0790467Y0721948D02*
D03*
X0792653Y0719763D02*
D03*
X0794838Y0717577D02*
D03*
X0797023Y0715392D02*
D03*
X0799209Y0713207D02*
D03*
X0801394Y0711021D02*
D03*
X0803579Y0708836D02*
D03*
X0805765Y0706651D02*
D03*
X0807950Y0704465D02*
D03*
X0810135Y0702280D02*
D03*
X0812321Y0700095D02*
D03*
X0814506Y0697909D02*
D03*
X0816692Y0695724D02*
D03*
X0818877Y0693539D02*
D03*
X0821062Y0691353D02*
D03*
X0823248Y0689168D02*
D03*
X0825433Y0686982D02*
D03*
X0827618Y0684797D02*
D03*
X0829804Y0682612D02*
D03*
X0831989Y0680427D02*
D03*
X0834174Y0678241D02*
D03*
X0836360Y0676056D02*
D03*
X0838545Y0673870D02*
D03*
X0840730Y0671685D02*
D03*
X0842916Y0669500D02*
D03*
X0845101Y0667314D02*
D03*
X0847286Y0665129D02*
D03*
X0849472Y0662944D02*
D03*
X0851657Y0660758D02*
D03*
X0853843Y0658573D02*
D03*
X0856028Y0656388D02*
D03*
X0858213Y0654202D02*
D03*
X0860398Y0652017D02*
D03*
X0862584Y0649832D02*
D03*
X0864769Y0647646D02*
D03*
X0866955Y0645461D02*
D03*
X0869140Y0643275D02*
D03*
X0871325Y0641090D02*
D03*
X0873511Y0638905D02*
D03*
X0875696Y0636720D02*
D03*
X0877881Y0634534D02*
D03*
X0880067Y0632349D02*
D03*
X0882252Y0630163D02*
D03*
X0884394Y0627935D02*
D03*
X0886067Y0625337D02*
D03*
X0886951Y0622376D02*
D03*
X0887072Y0619287D02*
D03*
Y0616197D02*
D03*
Y0613106D02*
D03*
Y0610016D02*
D03*
Y0606925D02*
D03*
Y0603835D02*
D03*
Y0600744D02*
D03*
Y0597654D02*
D03*
Y0594563D02*
D03*
Y0591472D02*
D03*
Y0588382D02*
D03*
Y0585291D02*
D03*
Y0582201D02*
D03*
Y0579110D02*
D03*
Y0576020D02*
D03*
Y0572929D02*
D03*
Y0569839D02*
D03*
Y0566748D02*
D03*
Y0563658D02*
D03*
Y0560567D02*
D03*
Y0557477D02*
D03*
Y0554386D02*
D03*
Y0551295D02*
D03*
Y0548205D02*
D03*
Y0545114D02*
D03*
Y0542024D02*
D03*
Y0538933D02*
D03*
Y0535843D02*
D03*
Y0532752D02*
D03*
Y0529662D02*
D03*
Y0526571D02*
D03*
Y0523480D02*
D03*
Y0520390D02*
D03*
Y0517299D02*
D03*
Y0514209D02*
D03*
Y0511118D02*
D03*
Y0508028D02*
D03*
Y0504937D02*
D03*
Y0501847D02*
D03*
Y0498756D02*
D03*
Y0495666D02*
D03*
Y0492575D02*
D03*
Y0489484D02*
D03*
Y0486394D02*
D03*
Y0483303D02*
D03*
Y0480213D02*
D03*
Y0477122D02*
D03*
Y0474032D02*
D03*
Y0470941D02*
D03*
Y0467850D02*
D03*
Y0464760D02*
D03*
Y0461669D02*
D03*
Y0458579D02*
D03*
Y0455488D02*
D03*
Y0452398D02*
D03*
Y0449307D02*
D03*
Y0446217D02*
D03*
Y0443126D02*
D03*
Y0440036D02*
D03*
Y0436945D02*
D03*
Y0433854D02*
D03*
Y0430764D02*
D03*
Y0427673D02*
D03*
Y0424583D02*
D03*
Y0421492D02*
D03*
Y0418402D02*
D03*
Y0415311D02*
D03*
Y0412221D02*
D03*
Y0409130D02*
D03*
Y0406039D02*
D03*
Y0402949D02*
D03*
Y0399858D02*
D03*
Y0396768D02*
D03*
Y0393677D02*
D03*
Y0390587D02*
D03*
Y0387496D02*
D03*
Y0384406D02*
D03*
Y0381315D02*
D03*
Y0378225D02*
D03*
Y0375134D02*
D03*
Y0372043D02*
D03*
X0890119Y0359143D02*
D03*
X0893210D02*
D03*
X0895506Y0372858D02*
D03*
Y0375949D02*
D03*
Y0379040D02*
D03*
Y0382130D02*
D03*
Y0385221D02*
D03*
Y0388311D02*
D03*
Y0391402D02*
D03*
Y0394492D02*
D03*
Y0397583D02*
D03*
Y0400673D02*
D03*
Y0403764D02*
D03*
Y0406854D02*
D03*
Y0409945D02*
D03*
Y0413035D02*
D03*
Y0416126D02*
D03*
Y0419217D02*
D03*
Y0422307D02*
D03*
Y0425398D02*
D03*
Y0428488D02*
D03*
Y0431579D02*
D03*
Y0434669D02*
D03*
Y0437760D02*
D03*
Y0440850D02*
D03*
Y0443941D02*
D03*
Y0447032D02*
D03*
Y0450122D02*
D03*
Y0453213D02*
D03*
Y0456303D02*
D03*
Y0459394D02*
D03*
Y0462484D02*
D03*
Y0465575D02*
D03*
Y0468665D02*
D03*
Y0471756D02*
D03*
Y0474847D02*
D03*
Y0477937D02*
D03*
Y0481028D02*
D03*
Y0484118D02*
D03*
Y0487209D02*
D03*
Y0490299D02*
D03*
Y0493390D02*
D03*
Y0496480D02*
D03*
Y0499571D02*
D03*
Y0502662D02*
D03*
Y0505752D02*
D03*
Y0508843D02*
D03*
Y0511933D02*
D03*
Y0515024D02*
D03*
Y0518114D02*
D03*
Y0521205D02*
D03*
Y0524295D02*
D03*
Y0527386D02*
D03*
Y0530477D02*
D03*
Y0533567D02*
D03*
Y0536657D02*
D03*
Y0539748D02*
D03*
Y0542839D02*
D03*
Y0545929D02*
D03*
Y0549020D02*
D03*
Y0552110D02*
D03*
Y0555201D02*
D03*
Y0558291D02*
D03*
Y0561382D02*
D03*
Y0564472D02*
D03*
Y0567563D02*
D03*
Y0570654D02*
D03*
Y0573744D02*
D03*
Y0576835D02*
D03*
Y0579925D02*
D03*
Y0583016D02*
D03*
Y0586106D02*
D03*
Y0589197D02*
D03*
Y0592287D02*
D03*
Y0595378D02*
D03*
Y0598468D02*
D03*
Y0601559D02*
D03*
Y0604650D02*
D03*
Y0607740D02*
D03*
Y0610831D02*
D03*
Y0613921D02*
D03*
Y0617012D02*
D03*
Y0620102D02*
D03*
Y0623193D02*
D03*
X0895247Y0626273D02*
D03*
X0894207Y0629183D02*
D03*
X0892504Y0631762D02*
D03*
X0890357Y0633985D02*
D03*
X0888172Y0636170D02*
D03*
X0885987Y0638356D02*
D03*
X0883801Y0640541D02*
D03*
X0881616Y0642727D02*
D03*
X0879430Y0644912D02*
D03*
X0877245Y0647097D02*
D03*
X0875060Y0649283D02*
D03*
X0872875Y0651468D02*
D03*
X0870689Y0653653D02*
D03*
X0868504Y0655839D02*
D03*
X0866318Y0658024D02*
D03*
X0864133Y0660209D02*
D03*
X0861948Y0662395D02*
D03*
X0859762Y0664580D02*
D03*
X0857577Y0666765D02*
D03*
X0855392Y0668951D02*
D03*
X0853206Y0671136D02*
D03*
X0851021Y0673321D02*
D03*
X0848836Y0675507D02*
D03*
X0846650Y0677692D02*
D03*
X0844465Y0679877D02*
D03*
X0842280Y0682063D02*
D03*
X0840094Y0684248D02*
D03*
X0837909Y0686434D02*
D03*
X0835723Y0688619D02*
D03*
X0833538Y0690804D02*
D03*
X0831353Y0692989D02*
D03*
X0829167Y0695175D02*
D03*
X0826982Y0697360D02*
D03*
X0824797Y0699546D02*
D03*
X0822611Y0701731D02*
D03*
X0820426Y0703916D02*
D03*
X0818241Y0706102D02*
D03*
X0816055Y0708287D02*
D03*
X0813870Y0710472D02*
D03*
X0811685Y0712658D02*
D03*
X0809499Y0714843D02*
D03*
X0807314Y0717028D02*
D03*
X0805129Y0719214D02*
D03*
X0802943Y0721399D02*
D03*
X0800758Y0723584D02*
D03*
X0798573Y0725770D02*
D03*
X0796387Y0727955D02*
D03*
X0794296Y0730231D02*
D03*
X0793101Y0733081D02*
D03*
X0792967Y0736168D02*
D03*
Y0739259D02*
D03*
Y0742350D02*
D03*
Y0745440D02*
D03*
Y0748531D02*
D03*
Y0751621D02*
D03*
Y0754712D02*
D03*
Y0757802D02*
D03*
Y0760893D02*
D03*
Y0763983D02*
D03*
Y0767074D02*
D03*
Y0770165D02*
D03*
Y0773255D02*
D03*
Y0776346D02*
D03*
Y0779436D02*
D03*
Y0782527D02*
D03*
Y0785617D02*
D03*
Y0788708D02*
D03*
Y0791798D02*
D03*
Y0794889D02*
D03*
Y0797979D02*
D03*
Y0801070D02*
D03*
Y0804161D02*
D03*
Y0807251D02*
D03*
Y0810342D02*
D03*
Y0813432D02*
D03*
Y0816523D02*
D03*
Y0819613D02*
D03*
Y0822704D02*
D03*
X0795142Y0831080D02*
D03*
X0798233D02*
D03*
X0811122Y0834138D02*
D03*
Y0837228D02*
D03*
X0796398Y0858411D02*
D03*
X0793307D02*
D03*
X0790217D02*
D03*
X0787126D02*
D03*
X0784036D02*
D03*
X0780957Y0858144D02*
D03*
X0778138Y0856876D02*
D03*
X0775921Y0854723D02*
D03*
X0774615Y0851922D02*
D03*
X0774297Y0848848D02*
D03*
Y0845757D02*
D03*
Y0842667D02*
D03*
Y0839576D02*
D03*
Y0836485D02*
D03*
Y0833395D02*
D03*
Y0830304D02*
D03*
Y0827214D02*
D03*
Y0824123D02*
D03*
Y0821033D02*
D03*
Y0817942D02*
D03*
Y0814852D02*
D03*
Y0811761D02*
D03*
Y0808671D02*
D03*
Y0805580D02*
D03*
Y0802489D02*
D03*
Y0799399D02*
D03*
Y0796308D02*
D03*
Y0793218D02*
D03*
Y0790127D02*
D03*
Y0787037D02*
D03*
Y0783946D02*
D03*
Y0780856D02*
D03*
Y0777765D02*
D03*
Y0774674D02*
D03*
Y0771584D02*
D03*
Y0768493D02*
D03*
Y0765403D02*
D03*
Y0762312D02*
D03*
Y0759222D02*
D03*
Y0756131D02*
D03*
Y0753041D02*
D03*
Y0749950D02*
D03*
Y0746860D02*
D03*
Y0743769D02*
D03*
Y0740678D02*
D03*
Y0737588D02*
D03*
Y0734497D02*
D03*
Y0731407D02*
D03*
Y0728316D02*
D03*
Y0725226D02*
D03*
X0774368Y0722136D02*
D03*
X0774908Y0719093D02*
D03*
X0776038Y0716217D02*
D03*
X0777706Y0713614D02*
D03*
X0779807Y0711348D02*
D03*
X0781993Y0709163D02*
D03*
X0784178Y0706978D02*
D03*
X0786363Y0704792D02*
D03*
X0788549Y0702607D02*
D03*
X0790734Y0700421D02*
D03*
X0792919Y0698236D02*
D03*
X0795105Y0696051D02*
D03*
X0797290Y0693865D02*
D03*
X0799475Y0691680D02*
D03*
X0801661Y0689495D02*
D03*
X0803846Y0687309D02*
D03*
X0806032Y0685124D02*
D03*
X0808217Y0682939D02*
D03*
X0810402Y0680753D02*
D03*
X0812588Y0678568D02*
D03*
X0814773Y0676383D02*
D03*
X0816958Y0674197D02*
D03*
X0819144Y0672012D02*
D03*
X0821329Y0669827D02*
D03*
X0823514Y0667641D02*
D03*
X0825700Y0665456D02*
D03*
X0827885Y0663271D02*
D03*
X0830070Y0661085D02*
D03*
X0832256Y0658900D02*
D03*
X0834441Y0656714D02*
D03*
X0836626Y0654529D02*
D03*
X0838812Y0652344D02*
D03*
X0840997Y0650159D02*
D03*
X0843182Y0647973D02*
D03*
X0845368Y0645788D02*
D03*
X0847553Y0643602D02*
D03*
X0849739Y0641417D02*
D03*
X0851924Y0639232D02*
D03*
X0854109Y0637046D02*
D03*
X0856295Y0634861D02*
D03*
X0858480Y0632676D02*
D03*
X0860665Y0630490D02*
D03*
X0862851Y0628305D02*
D03*
X0865036Y0626120D02*
D03*
X0867055Y0623780D02*
D03*
X0868081Y0620864D02*
D03*
X0868175Y0617775D02*
D03*
Y0614685D02*
D03*
Y0611594D02*
D03*
Y0608504D02*
D03*
Y0605413D02*
D03*
Y0602322D02*
D03*
Y0599232D02*
D03*
Y0596141D02*
D03*
Y0593051D02*
D03*
Y0589960D02*
D03*
Y0586870D02*
D03*
Y0583779D02*
D03*
Y0580689D02*
D03*
Y0577598D02*
D03*
Y0574508D02*
D03*
Y0571417D02*
D03*
Y0568327D02*
D03*
Y0565236D02*
D03*
Y0562145D02*
D03*
Y0559055D02*
D03*
Y0555964D02*
D03*
Y0552874D02*
D03*
Y0549783D02*
D03*
Y0546693D02*
D03*
Y0543602D02*
D03*
Y0540512D02*
D03*
Y0537421D02*
D03*
Y0534330D02*
D03*
Y0531240D02*
D03*
Y0528149D02*
D03*
Y0525059D02*
D03*
Y0521968D02*
D03*
Y0518878D02*
D03*
Y0515787D02*
D03*
Y0512697D02*
D03*
Y0509606D02*
D03*
Y0506515D02*
D03*
Y0503425D02*
D03*
Y0500334D02*
D03*
Y0497244D02*
D03*
Y0494153D02*
D03*
Y0491063D02*
D03*
Y0487972D02*
D03*
Y0484882D02*
D03*
Y0481791D02*
D03*
Y0478700D02*
D03*
Y0475610D02*
D03*
Y0472519D02*
D03*
Y0469429D02*
D03*
Y0466338D02*
D03*
Y0463248D02*
D03*
Y0460157D02*
D03*
Y0457067D02*
D03*
Y0453976D02*
D03*
Y0450885D02*
D03*
Y0447795D02*
D03*
Y0444704D02*
D03*
Y0441614D02*
D03*
Y0438523D02*
D03*
Y0435433D02*
D03*
Y0432342D02*
D03*
Y0429252D02*
D03*
Y0426161D02*
D03*
Y0423071D02*
D03*
Y0419980D02*
D03*
Y0416889D02*
D03*
Y0413799D02*
D03*
Y0410708D02*
D03*
Y0407618D02*
D03*
Y0404527D02*
D03*
Y0401437D02*
D03*
Y0398346D02*
D03*
Y0395256D02*
D03*
Y0392165D02*
D03*
Y0389074D02*
D03*
Y0385984D02*
D03*
Y0382893D02*
D03*
Y0379803D02*
D03*
Y0376712D02*
D03*
Y0373622D02*
D03*
X0872883Y0359163D02*
D03*
X0875964Y0359408D02*
D03*
X0876608Y0371426D02*
D03*
Y0374516D02*
D03*
Y0377607D02*
D03*
Y0380697D02*
D03*
Y0383788D02*
D03*
Y0386878D02*
D03*
Y0389969D02*
D03*
Y0393059D02*
D03*
Y0396150D02*
D03*
Y0399241D02*
D03*
Y0402331D02*
D03*
Y0405422D02*
D03*
Y0408512D02*
D03*
Y0411603D02*
D03*
Y0414693D02*
D03*
Y0417784D02*
D03*
Y0420874D02*
D03*
Y0423965D02*
D03*
Y0427056D02*
D03*
Y0430146D02*
D03*
Y0433237D02*
D03*
Y0436327D02*
D03*
Y0439418D02*
D03*
Y0442508D02*
D03*
Y0445599D02*
D03*
Y0448689D02*
D03*
Y0451780D02*
D03*
Y0454871D02*
D03*
Y0457961D02*
D03*
Y0461052D02*
D03*
Y0464142D02*
D03*
Y0467233D02*
D03*
Y0470323D02*
D03*
Y0473414D02*
D03*
Y0476504D02*
D03*
Y0479595D02*
D03*
Y0482685D02*
D03*
Y0485776D02*
D03*
Y0488867D02*
D03*
Y0491957D02*
D03*
Y0495048D02*
D03*
Y0498138D02*
D03*
Y0501229D02*
D03*
Y0504319D02*
D03*
Y0507410D02*
D03*
Y0510500D02*
D03*
Y0513591D02*
D03*
Y0516681D02*
D03*
Y0519772D02*
D03*
Y0522863D02*
D03*
Y0525953D02*
D03*
Y0529044D02*
D03*
Y0532134D02*
D03*
Y0535225D02*
D03*
Y0538315D02*
D03*
Y0541406D02*
D03*
Y0544496D02*
D03*
Y0547587D02*
D03*
Y0550677D02*
D03*
Y0553768D02*
D03*
Y0556859D02*
D03*
Y0559949D02*
D03*
Y0563040D02*
D03*
Y0566130D02*
D03*
Y0569221D02*
D03*
Y0572311D02*
D03*
Y0575402D02*
D03*
Y0578492D02*
D03*
Y0581583D02*
D03*
Y0584674D02*
D03*
Y0587764D02*
D03*
Y0590855D02*
D03*
Y0593945D02*
D03*
Y0597036D02*
D03*
Y0600126D02*
D03*
Y0603217D02*
D03*
Y0606307D02*
D03*
Y0609398D02*
D03*
Y0612489D02*
D03*
Y0615579D02*
D03*
Y0618670D02*
D03*
X0876493Y0621758D02*
D03*
X0875836Y0624778D02*
D03*
X0874602Y0627611D02*
D03*
X0872834Y0630146D02*
D03*
X0870700Y0632382D02*
D03*
X0868515Y0634567D02*
D03*
X0866330Y0636753D02*
D03*
X0864144Y0638938D02*
D03*
X0861959Y0641123D02*
D03*
X0859774Y0643309D02*
D03*
X0857588Y0645494D02*
D03*
X0855403Y0647680D02*
D03*
X0853218Y0649865D02*
D03*
X0851032Y0652050D02*
D03*
X0848847Y0654236D02*
D03*
X0846662Y0656421D02*
D03*
X0844476Y0658606D02*
D03*
X0842291Y0660792D02*
D03*
X0840106Y0662977D02*
D03*
X0837920Y0665162D02*
D03*
X0835735Y0667348D02*
D03*
X0833549Y0669533D02*
D03*
X0831364Y0671718D02*
D03*
X0829179Y0673904D02*
D03*
X0826993Y0676089D02*
D03*
X0824808Y0678274D02*
D03*
X0822623Y0680460D02*
D03*
X0820437Y0682645D02*
D03*
X0818252Y0684831D02*
D03*
X0816067Y0687016D02*
D03*
X0813881Y0689201D02*
D03*
X0811696Y0691387D02*
D03*
X0809511Y0693572D02*
D03*
X0807325Y0695757D02*
D03*
X0805140Y0697943D02*
D03*
X0802955Y0700128D02*
D03*
X0800769Y0702313D02*
D03*
X0798584Y0704499D02*
D03*
X0796399Y0706684D02*
D03*
X0794213Y0708869D02*
D03*
X0792028Y0711055D02*
D03*
X0789843Y0713240D02*
D03*
X0787657Y0715425D02*
D03*
X0785472Y0717611D02*
D03*
X0783582Y0720056D02*
D03*
X0782768Y0723037D02*
D03*
X0782730Y0726128D02*
D03*
Y0729218D02*
D03*
Y0732309D02*
D03*
Y0735399D02*
D03*
Y0738490D02*
D03*
Y0741580D02*
D03*
Y0744671D02*
D03*
Y0747762D02*
D03*
Y0750852D02*
D03*
Y0753943D02*
D03*
Y0757033D02*
D03*
Y0760124D02*
D03*
Y0763214D02*
D03*
Y0766305D02*
D03*
Y0769395D02*
D03*
Y0772486D02*
D03*
Y0775577D02*
D03*
Y0778667D02*
D03*
Y0781758D02*
D03*
Y0784848D02*
D03*
Y0787939D02*
D03*
Y0791029D02*
D03*
Y0794120D02*
D03*
Y0797210D02*
D03*
Y0800301D02*
D03*
Y0803391D02*
D03*
Y0806482D02*
D03*
Y0809573D02*
D03*
Y0812663D02*
D03*
Y0815754D02*
D03*
Y0818844D02*
D03*
Y0821935D02*
D03*
Y0825025D02*
D03*
Y0828116D02*
D03*
Y0831207D02*
D03*
Y0834297D02*
D03*
Y0837388D02*
D03*
Y0840478D02*
D03*
Y0843569D02*
D03*
Y0846659D02*
D03*
X0782788Y0849749D02*
D03*
X0785871Y0849978D02*
D03*
X0788961D02*
D03*
X0792052D02*
D03*
X0795142D02*
D03*
X0798233D02*
D03*
X0811122Y0853035D02*
D03*
Y0856126D02*
D03*
X0882579Y0353169D02*
D03*
X0878642Y0350807D02*
D03*
X0873917Y0350413D02*
D03*
X0881841Y0340571D02*
D03*
X0863681Y0336634D02*
D03*
X0781791Y0908681D02*
D03*
X0784941Y0911831D02*
D03*
X0785335Y0887815D02*
D03*
M02*
