G04 Layer_Color=255*
%FSAX25Y25*%
%MOIN*%
G70*
G01*
G75*
%ADD14C,0.05906*%
%ADD15R,0.05906X0.05906*%
%ADD16R,0.05906X0.05906*%
%ADD17C,0.06102*%
%ADD18C,0.05512*%
%ADD19R,0.07874X0.07874*%
%ADD20R,0.06299X0.06299*%
%ADD21C,0.06299*%
%ADD22C,0.12598*%
D14*
X0882421Y0906713D02*
D03*
X0782421D02*
D03*
X0872421D02*
D03*
X0862421D02*
D03*
X0852421D02*
D03*
X0842421D02*
D03*
X0832421D02*
D03*
X0822421D02*
D03*
X0812421D02*
D03*
X0802421D02*
D03*
X0792421D02*
D03*
X0872421Y0896712D02*
D03*
X0862421D02*
D03*
X0852421D02*
D03*
X0842421D02*
D03*
X0832421D02*
D03*
X0822421D02*
D03*
X0812421D02*
D03*
X0802421D02*
D03*
D15*
X0882421D02*
D03*
X0782421D02*
D03*
D16*
X0792421D02*
D03*
D17*
X0863632Y0349035D02*
D03*
X0901525Y0349232D02*
D03*
X0820836Y0864529D02*
D03*
X0821033Y0826635D02*
D03*
D18*
X0796281Y0845381D02*
D03*
Y0864283D02*
D03*
Y0826483D02*
D03*
D19*
X0814481Y0817383D02*
D03*
X0804581Y0873483D02*
D03*
X0814481D02*
D03*
X0834081D02*
D03*
X0843981D02*
D03*
X0883381D02*
D03*
X0863681Y0860983D02*
D03*
Y0839783D02*
D03*
X0852581Y0817383D02*
D03*
X0834081D02*
D03*
X0863681D02*
D03*
X0824281D02*
D03*
X0853824Y0873483D02*
D03*
D20*
X0845177Y0356319D02*
D03*
X0913878Y0344547D02*
D03*
D21*
X0845177Y0366319D02*
D03*
X0913878Y0354547D02*
D03*
D22*
X0845177Y0333484D02*
D03*
M02*
