G04 Layer_Physical_Order=2*
G04 Layer_Color=16711680*
%FSAX25Y25*%
%MOIN*%
G70*
G01*
G75*
%ADD11C,0.01000*%
%ADD14C,0.12598*%
%ADD15C,0.06299*%
%ADD16R,0.06299X0.06299*%
%ADD17C,0.05512*%
%ADD18R,0.07874X0.07874*%
%ADD19C,0.06102*%
%ADD20R,0.05905X0.05905*%
%ADD21C,0.05905*%
%ADD22R,0.05905X0.05905*%
%ADD23C,0.02362*%
%ADD24C,0.02500*%
G36*
X0866006Y0894063D02*
Y0887584D01*
X0863440Y0885018D01*
X0856279D01*
X0856072Y0885518D01*
X0858466Y0887912D01*
X0858466Y0887912D01*
X0858799Y0888409D01*
X0858915Y0888996D01*
X0858915Y0888996D01*
Y0893961D01*
X0859415Y0894130D01*
X0859599Y0893891D01*
X0860426Y0893256D01*
X0861388Y0892858D01*
X0862421Y0892722D01*
X0863454Y0892858D01*
X0864417Y0893256D01*
X0865243Y0893891D01*
X0865506Y0894233D01*
X0866006Y0894063D01*
D02*
G37*
G36*
X0855849Y0893902D02*
Y0889631D01*
X0853991Y0887774D01*
X0847564D01*
X0847373Y0888235D01*
X0848624Y0889487D01*
X0848956Y0889984D01*
X0849073Y0890571D01*
Y0893799D01*
X0849546Y0893960D01*
X0849599Y0893891D01*
X0850426Y0893256D01*
X0851388Y0892858D01*
X0852421Y0892722D01*
X0853454Y0892858D01*
X0854417Y0893256D01*
X0855243Y0893891D01*
X0855375Y0894062D01*
X0855849Y0893902D01*
D02*
G37*
G36*
X0875927Y0893961D02*
Y0889730D01*
X0868853Y0882655D01*
X0866068D01*
X0865876Y0883117D01*
X0868624Y0885865D01*
X0868956Y0886362D01*
X0869073Y0886949D01*
Y0893799D01*
X0869546Y0893960D01*
X0869599Y0893891D01*
X0870426Y0893256D01*
X0871388Y0892858D01*
X0872421Y0892722D01*
X0873454Y0892858D01*
X0874417Y0893256D01*
X0875243Y0893891D01*
X0875427Y0894130D01*
X0875927Y0893961D01*
D02*
G37*
G36*
X0892362Y0811889D02*
X0815650D01*
X0814874Y0811735D01*
X0814216Y0811296D01*
X0813777Y0810638D01*
X0813622Y0809862D01*
Y0750807D01*
Y0732045D01*
X0813622D01*
X0813780Y0730041D01*
X0814249Y0728087D01*
X0815018Y0726229D01*
X0816068Y0724515D01*
X0817374Y0722987D01*
X0817375Y0722987D01*
X0842366Y0697996D01*
X0842366Y0697996D01*
X0899657Y0640704D01*
X0899764Y0640633D01*
X0900937Y0639203D01*
X0901869Y0637460D01*
X0902443Y0635569D01*
X0902624Y0633728D01*
X0902599Y0633602D01*
Y0614705D01*
Y0410256D01*
X0902753Y0409480D01*
X0903193Y0408822D01*
X0918347Y0393668D01*
Y0355919D01*
X0917847Y0355819D01*
X0917506Y0356642D01*
X0916840Y0357509D01*
X0915973Y0358175D01*
X0914962Y0358594D01*
X0913878Y0358737D01*
X0912794Y0358594D01*
X0911783Y0358175D01*
X0910916Y0357509D01*
X0910250Y0356642D01*
X0909831Y0355631D01*
X0909688Y0354547D01*
X0909831Y0353463D01*
X0910250Y0352452D01*
X0910916Y0351585D01*
X0911783Y0350919D01*
X0912794Y0350501D01*
X0913878Y0350358D01*
X0914962Y0350501D01*
X0915973Y0350919D01*
X0916840Y0351585D01*
X0917506Y0352452D01*
X0917847Y0353275D01*
X0918347Y0353176D01*
Y0349070D01*
X0918032Y0348701D01*
X0917847Y0348701D01*
X0909724D01*
Y0340394D01*
X0917847D01*
X0918032Y0340394D01*
X0918347Y0340024D01*
Y0320551D01*
X0831850D01*
Y0378708D01*
X0852516Y0399374D01*
X0852956Y0400031D01*
X0853110Y0400807D01*
X0853110Y0400807D01*
Y0553957D01*
Y0598169D01*
X0853114D01*
X0852941Y0600376D01*
X0852424Y0602527D01*
X0851577Y0604572D01*
X0850421Y0606459D01*
X0848984Y0608141D01*
X0848980Y0608138D01*
X0757437Y0699681D01*
X0757339Y0699747D01*
X0756240Y0701087D01*
X0755368Y0702717D01*
X0754832Y0704487D01*
X0754662Y0706211D01*
X0754685Y0706327D01*
X0754685Y0706327D01*
Y0750807D01*
Y0914134D01*
X0774285D01*
X0774476Y0913672D01*
X0769931Y0909127D01*
X0769882Y0909137D01*
X0769029Y0908968D01*
X0768306Y0908485D01*
X0767824Y0907762D01*
X0767654Y0906909D01*
X0767824Y0906057D01*
X0768306Y0905334D01*
X0769029Y0904851D01*
X0769882Y0904681D01*
X0770734Y0904851D01*
X0771457Y0905334D01*
X0771490Y0905383D01*
X0771990Y0905232D01*
Y0904167D01*
X0771899Y0904105D01*
X0771400Y0903360D01*
X0771226Y0902480D01*
X0771400Y0901601D01*
X0771899Y0900855D01*
X0772644Y0900357D01*
X0773524Y0900182D01*
X0774403Y0900357D01*
X0775149Y0900855D01*
X0775647Y0901601D01*
X0775822Y0902480D01*
X0775647Y0903360D01*
X0775149Y0904105D01*
X0775057Y0904167D01*
Y0905585D01*
X0779671Y0910199D01*
X0789644D01*
X0789814Y0909699D01*
X0789599Y0909534D01*
X0788965Y0908708D01*
X0788566Y0907745D01*
X0788430Y0906713D01*
X0788551Y0905798D01*
X0786120Y0903368D01*
X0785788Y0902870D01*
X0785671Y0902283D01*
Y0890494D01*
X0785335Y0890113D01*
X0784455Y0889938D01*
X0783710Y0889440D01*
X0783211Y0888694D01*
X0783037Y0887815D01*
X0783211Y0886936D01*
X0783710Y0886190D01*
X0784455Y0885692D01*
X0785335Y0885517D01*
X0786214Y0885692D01*
X0786296Y0885747D01*
X0786615Y0885358D01*
X0765132Y0863875D01*
X0765128Y0863880D01*
X0763952Y0862503D01*
X0763006Y0860959D01*
X0762313Y0859286D01*
X0761890Y0857525D01*
X0761748Y0855720D01*
X0761754D01*
Y0706918D01*
X0761748D01*
X0761890Y0705113D01*
X0762313Y0703352D01*
X0763006Y0701679D01*
X0763952Y0700135D01*
X0765128Y0698758D01*
X0765132Y0698762D01*
X0854960Y0608934D01*
X0855307Y0608588D01*
X0855620Y0608218D01*
X0856045Y0607701D01*
X0856589Y0606682D01*
X0856924Y0605577D01*
X0857035Y0604455D01*
X0857030Y0604428D01*
Y0388767D01*
X0856643Y0388450D01*
X0856201Y0388538D01*
X0855321Y0388363D01*
X0854576Y0387865D01*
X0854078Y0387120D01*
X0854029Y0386875D01*
X0853997Y0386827D01*
X0853880Y0386240D01*
Y0340177D01*
X0853997Y0339590D01*
X0854329Y0339093D01*
X0857872Y0335549D01*
X0858370Y0335217D01*
X0858957Y0335100D01*
X0861995D01*
X0862056Y0335009D01*
X0862802Y0334511D01*
X0863681Y0334336D01*
X0864561Y0334511D01*
X0865306Y0335009D01*
X0865804Y0335754D01*
X0865979Y0336634D01*
X0865804Y0337513D01*
X0865306Y0338259D01*
X0864889Y0338537D01*
X0865041Y0339037D01*
X0880154D01*
X0880215Y0338946D01*
X0880961Y0338448D01*
X0881841Y0338273D01*
X0882720Y0338448D01*
X0883465Y0338946D01*
X0883964Y0339691D01*
X0884139Y0340571D01*
X0883964Y0341450D01*
X0883465Y0342196D01*
X0882720Y0342694D01*
X0881841Y0342869D01*
X0880961Y0342694D01*
X0880215Y0342196D01*
X0880154Y0342104D01*
X0860773D01*
X0860096Y0342781D01*
Y0346204D01*
X0860570Y0346365D01*
X0860740Y0346143D01*
X0861587Y0345493D01*
X0862573Y0345085D01*
X0863632Y0344945D01*
X0864690Y0345085D01*
X0865677Y0345493D01*
X0866524Y0346143D01*
X0867174Y0346990D01*
X0867583Y0347977D01*
X0867722Y0349035D01*
X0867591Y0350029D01*
X0867729Y0350233D01*
X0867971Y0350463D01*
X0868012Y0350455D01*
X0871314D01*
X0871685Y0350084D01*
X0871794Y0349534D01*
X0872292Y0348788D01*
X0873038Y0348290D01*
X0873917Y0348115D01*
X0874797Y0348290D01*
X0875542Y0348788D01*
X0876040Y0349534D01*
X0876083Y0349748D01*
X0876085Y0349749D01*
X0876603Y0349801D01*
X0877017Y0349182D01*
X0877762Y0348684D01*
X0878642Y0348509D01*
X0879521Y0348684D01*
X0880267Y0349182D01*
X0880765Y0349928D01*
X0880940Y0350807D01*
X0880906Y0350974D01*
X0881357Y0351275D01*
X0881699Y0351046D01*
X0882579Y0350871D01*
X0883458Y0351046D01*
X0884204Y0351544D01*
X0884702Y0352290D01*
X0884877Y0353169D01*
X0884702Y0354049D01*
X0884204Y0354794D01*
X0883458Y0355292D01*
X0882579Y0355467D01*
X0881699Y0355292D01*
X0881546Y0355190D01*
X0878939Y0357797D01*
X0878441Y0358129D01*
X0877854Y0358246D01*
X0870615D01*
X0867183Y0361678D01*
Y0607689D01*
X0867189D01*
X0867047Y0609494D01*
X0866624Y0611254D01*
X0865931Y0612927D01*
X0864985Y0614471D01*
X0863809Y0615848D01*
X0863805Y0615844D01*
X0774387Y0705262D01*
X0774329Y0705300D01*
X0773317Y0706533D01*
X0772533Y0708001D01*
X0772050Y0709593D01*
X0771894Y0711180D01*
X0771907Y0711248D01*
Y0849815D01*
X0771894Y0849883D01*
X0772050Y0851470D01*
X0772533Y0853062D01*
X0773317Y0854530D01*
X0774329Y0855763D01*
X0774387Y0855801D01*
X0795695Y0877109D01*
X0795733Y0877167D01*
X0796966Y0878179D01*
X0798434Y0878963D01*
X0800026Y0879446D01*
X0801613Y0879602D01*
X0801682Y0879589D01*
X0869488D01*
X0870075Y0879705D01*
X0870572Y0880038D01*
X0878545Y0888010D01*
X0878877Y0888508D01*
X0878994Y0889094D01*
Y0901673D01*
X0878994Y0901673D01*
X0878877Y0902260D01*
X0878545Y0902757D01*
X0878545Y0902757D01*
X0876085Y0905218D01*
X0876276Y0905680D01*
X0876412Y0906713D01*
X0876276Y0907745D01*
X0875877Y0908708D01*
X0875243Y0909534D01*
X0874417Y0910169D01*
X0873454Y0910567D01*
X0872421Y0910703D01*
X0871388Y0910567D01*
X0870426Y0910169D01*
X0869599Y0909534D01*
X0868965Y0908708D01*
X0868566Y0907745D01*
X0868430Y0906713D01*
X0868566Y0905680D01*
X0868965Y0904717D01*
X0869599Y0903891D01*
X0870426Y0903256D01*
X0871388Y0902858D01*
X0872421Y0902722D01*
X0873454Y0902858D01*
X0873916Y0903049D01*
X0875927Y0901038D01*
Y0899464D01*
X0875427Y0899295D01*
X0875243Y0899535D01*
X0874417Y0900169D01*
X0873454Y0900567D01*
X0872421Y0900703D01*
X0871388Y0900567D01*
X0870426Y0900169D01*
X0869599Y0899535D01*
X0869546Y0899465D01*
X0869073Y0899626D01*
Y0901594D01*
X0868956Y0902181D01*
X0868624Y0902679D01*
X0866085Y0905218D01*
X0866276Y0905680D01*
X0866412Y0906713D01*
X0866276Y0907745D01*
X0865877Y0908708D01*
X0865243Y0909534D01*
X0864417Y0910169D01*
X0863454Y0910567D01*
X0862421Y0910703D01*
X0861388Y0910567D01*
X0860426Y0910169D01*
X0859599Y0909534D01*
X0858965Y0908708D01*
X0858566Y0907745D01*
X0858430Y0906713D01*
X0858566Y0905680D01*
X0858965Y0904717D01*
X0859599Y0903891D01*
X0860426Y0903256D01*
X0861388Y0902858D01*
X0862421Y0902722D01*
X0863454Y0902858D01*
X0863916Y0903049D01*
X0866006Y0900959D01*
Y0899362D01*
X0865506Y0899192D01*
X0865243Y0899535D01*
X0864417Y0900169D01*
X0863454Y0900567D01*
X0862421Y0900703D01*
X0861388Y0900567D01*
X0860426Y0900169D01*
X0859599Y0899535D01*
X0859415Y0899295D01*
X0858915Y0899464D01*
Y0901752D01*
X0858799Y0902339D01*
X0858466Y0902836D01*
X0856085Y0905218D01*
X0856276Y0905680D01*
X0856412Y0906713D01*
X0856276Y0907745D01*
X0855877Y0908708D01*
X0855243Y0909534D01*
X0854417Y0910169D01*
X0853454Y0910567D01*
X0852421Y0910703D01*
X0851388Y0910567D01*
X0850426Y0910169D01*
X0849599Y0909534D01*
X0848965Y0908708D01*
X0848566Y0907745D01*
X0848430Y0906713D01*
X0848566Y0905680D01*
X0848965Y0904717D01*
X0849599Y0903891D01*
X0850426Y0903256D01*
X0851388Y0902858D01*
X0852421Y0902722D01*
X0853454Y0902858D01*
X0853916Y0903049D01*
X0855849Y0901117D01*
Y0899523D01*
X0855375Y0899363D01*
X0855243Y0899535D01*
X0854417Y0900169D01*
X0853454Y0900567D01*
X0852421Y0900703D01*
X0851388Y0900567D01*
X0850426Y0900169D01*
X0849599Y0899535D01*
X0849546Y0899465D01*
X0849073Y0899626D01*
Y0901594D01*
X0848956Y0902181D01*
X0848624Y0902679D01*
X0846085Y0905218D01*
X0846276Y0905680D01*
X0846412Y0906713D01*
X0846276Y0907745D01*
X0845877Y0908708D01*
X0845243Y0909534D01*
X0844417Y0910169D01*
X0843454Y0910567D01*
X0842421Y0910703D01*
X0841388Y0910567D01*
X0840426Y0910169D01*
X0839599Y0909534D01*
X0838965Y0908708D01*
X0838566Y0907745D01*
X0838430Y0906713D01*
X0838566Y0905680D01*
X0838965Y0904717D01*
X0839599Y0903891D01*
X0840426Y0903256D01*
X0841388Y0902858D01*
X0842421Y0902722D01*
X0843454Y0902858D01*
X0843916Y0903049D01*
X0846006Y0900959D01*
Y0899362D01*
X0845506Y0899192D01*
X0845243Y0899535D01*
X0844417Y0900169D01*
X0843454Y0900567D01*
X0842421Y0900703D01*
X0841388Y0900567D01*
X0840426Y0900169D01*
X0839599Y0899535D01*
X0838965Y0898708D01*
X0838566Y0897745D01*
X0838430Y0896712D01*
X0838566Y0895680D01*
X0838965Y0894717D01*
X0839599Y0893891D01*
X0840426Y0893256D01*
X0841388Y0892858D01*
X0842421Y0892722D01*
X0843454Y0892858D01*
X0844417Y0893256D01*
X0845243Y0893891D01*
X0845506Y0894233D01*
X0846006Y0894063D01*
Y0891206D01*
X0844936Y0890136D01*
X0796170D01*
Y0890142D01*
X0794365Y0890000D01*
X0792604Y0889577D01*
X0790931Y0888884D01*
X0789387Y0887938D01*
X0788010Y0886762D01*
X0788010Y0886762D01*
X0787790Y0886536D01*
X0787403Y0886853D01*
X0787458Y0886936D01*
X0787633Y0887815D01*
X0787611Y0887923D01*
X0788289Y0888601D01*
X0788621Y0889098D01*
X0788738Y0889685D01*
Y0892756D01*
X0796378D01*
Y0900669D01*
X0788738D01*
Y0901648D01*
X0790381Y0903291D01*
X0790426Y0903256D01*
X0791388Y0902858D01*
X0792421Y0902722D01*
X0793454Y0902858D01*
X0794417Y0903256D01*
X0795243Y0903891D01*
X0795877Y0904717D01*
X0796276Y0905680D01*
X0796412Y0906713D01*
X0796276Y0907745D01*
X0795877Y0908708D01*
X0795243Y0909534D01*
X0795029Y0909699D01*
X0795199Y0910199D01*
X0799644D01*
X0799814Y0909699D01*
X0799599Y0909534D01*
X0798965Y0908708D01*
X0798566Y0907745D01*
X0798430Y0906713D01*
X0798566Y0905680D01*
X0798965Y0904717D01*
X0799599Y0903891D01*
X0800426Y0903256D01*
X0801388Y0902858D01*
X0802421Y0902722D01*
X0803454Y0902858D01*
X0804417Y0903256D01*
X0805243Y0903891D01*
X0805877Y0904717D01*
X0806276Y0905680D01*
X0806412Y0906713D01*
X0806276Y0907745D01*
X0805877Y0908708D01*
X0805243Y0909534D01*
X0805029Y0909699D01*
X0805199Y0910199D01*
X0805743D01*
X0808523Y0907418D01*
X0808430Y0906713D01*
X0808566Y0905680D01*
X0808965Y0904717D01*
X0809599Y0903891D01*
X0810426Y0903256D01*
X0811388Y0902858D01*
X0812421Y0902722D01*
X0813454Y0902858D01*
X0814417Y0903256D01*
X0815243Y0903891D01*
X0815877Y0904717D01*
X0816276Y0905680D01*
X0816412Y0906713D01*
X0816276Y0907745D01*
X0815877Y0908708D01*
X0815243Y0909534D01*
X0814417Y0910169D01*
X0813454Y0910567D01*
X0812421Y0910703D01*
X0811388Y0910567D01*
X0810426Y0910169D01*
X0810247Y0910032D01*
X0808475Y0911804D01*
X0808666Y0912266D01*
X0814621D01*
X0818735Y0908152D01*
X0818566Y0907745D01*
X0818430Y0906713D01*
X0818566Y0905680D01*
X0818965Y0904717D01*
X0819599Y0903891D01*
X0820426Y0903256D01*
X0821388Y0902858D01*
X0822421Y0902722D01*
X0823454Y0902858D01*
X0824417Y0903256D01*
X0825243Y0903891D01*
X0825877Y0904717D01*
X0826276Y0905680D01*
X0826412Y0906713D01*
X0826276Y0907745D01*
X0825877Y0908708D01*
X0825243Y0909534D01*
X0824417Y0910169D01*
X0823454Y0910567D01*
X0822421Y0910703D01*
X0821388Y0910567D01*
X0820871Y0910353D01*
X0817551Y0913672D01*
X0817743Y0914134D01*
X0892362D01*
Y0811889D01*
D02*
G37*
%LPC*%
G36*
X0868622Y0822324D02*
X0858740D01*
Y0812442D01*
X0868622D01*
Y0822324D01*
D02*
G37*
G36*
X0857522D02*
X0847640D01*
Y0812442D01*
X0857522D01*
Y0822324D01*
D02*
G37*
G36*
X0796281Y0830276D02*
X0795299Y0830147D01*
X0794385Y0829768D01*
X0793600Y0829165D01*
X0792997Y0828380D01*
X0792618Y0827465D01*
X0792489Y0826483D01*
X0792618Y0825502D01*
X0792997Y0824587D01*
X0793600Y0823802D01*
X0794385Y0823199D01*
X0795299Y0822820D01*
X0796281Y0822691D01*
X0797263Y0822820D01*
X0798177Y0823199D01*
X0798963Y0823802D01*
X0799565Y0824587D01*
X0799944Y0825502D01*
X0800073Y0826483D01*
X0799944Y0827465D01*
X0799565Y0828380D01*
X0798963Y0829165D01*
X0798177Y0829768D01*
X0797263Y0830147D01*
X0796281Y0830276D01*
D02*
G37*
G36*
Y0849173D02*
X0795299Y0849044D01*
X0794385Y0848665D01*
X0793600Y0848063D01*
X0792997Y0847277D01*
X0792618Y0846363D01*
X0792489Y0845381D01*
X0792618Y0844400D01*
X0792997Y0843485D01*
X0793600Y0842700D01*
X0794385Y0842097D01*
X0795299Y0841718D01*
X0796281Y0841589D01*
X0797263Y0841718D01*
X0798177Y0842097D01*
X0798963Y0842700D01*
X0799565Y0843485D01*
X0799944Y0844400D01*
X0800073Y0845381D01*
X0799944Y0846363D01*
X0799565Y0847277D01*
X0798963Y0848063D01*
X0798177Y0848665D01*
X0797263Y0849044D01*
X0796281Y0849173D01*
D02*
G37*
G36*
X0868622Y0844724D02*
X0858740D01*
Y0834842D01*
X0868622D01*
Y0844724D01*
D02*
G37*
G36*
X0901525Y0353322D02*
X0900467Y0353183D01*
X0899481Y0352774D01*
X0898633Y0352124D01*
X0897983Y0351277D01*
X0897575Y0350291D01*
X0897435Y0349232D01*
X0897575Y0348174D01*
X0897983Y0347187D01*
X0898633Y0346340D01*
X0899481Y0345690D01*
X0900467Y0345282D01*
X0901525Y0345142D01*
X0902584Y0345282D01*
X0903571Y0345690D01*
X0904418Y0346340D01*
X0905068Y0347187D01*
X0905476Y0348174D01*
X0905616Y0349232D01*
X0905476Y0350291D01*
X0905068Y0351277D01*
X0904418Y0352124D01*
X0903571Y0352774D01*
X0902584Y0353183D01*
X0901525Y0353322D01*
D02*
G37*
G36*
X0845177Y0340823D02*
X0843746Y0340682D01*
X0842369Y0340264D01*
X0841100Y0339586D01*
X0839988Y0338673D01*
X0839075Y0337561D01*
X0838397Y0336293D01*
X0837980Y0334916D01*
X0837839Y0333484D01*
X0837980Y0332052D01*
X0838397Y0330676D01*
X0839075Y0329407D01*
X0839988Y0328295D01*
X0841100Y0327382D01*
X0842369Y0326704D01*
X0843746Y0326287D01*
X0845177Y0326146D01*
X0846609Y0326287D01*
X0847985Y0326704D01*
X0849254Y0327382D01*
X0850366Y0328295D01*
X0851279Y0329407D01*
X0851957Y0330676D01*
X0852375Y0332052D01*
X0852516Y0333484D01*
X0852375Y0334916D01*
X0851957Y0336293D01*
X0851279Y0337561D01*
X0850366Y0338673D01*
X0849254Y0339586D01*
X0847985Y0340264D01*
X0846609Y0340682D01*
X0845177Y0340823D01*
D02*
G37*
G36*
X0849331Y0360472D02*
X0841024D01*
Y0352165D01*
X0849331D01*
Y0360472D01*
D02*
G37*
G36*
X0821033Y0830725D02*
X0819974Y0830586D01*
X0818988Y0830177D01*
X0818141Y0829527D01*
X0817491Y0828680D01*
X0817082Y0827694D01*
X0816943Y0826635D01*
X0817082Y0825577D01*
X0817491Y0824590D01*
X0818141Y0823743D01*
X0818988Y0823093D01*
X0819637Y0822824D01*
X0819538Y0822324D01*
X0809540D01*
Y0812442D01*
X0839022D01*
Y0822324D01*
X0822528D01*
X0822429Y0822824D01*
X0823078Y0823093D01*
X0823925Y0823743D01*
X0824575Y0824590D01*
X0824984Y0825577D01*
X0825123Y0826635D01*
X0824984Y0827694D01*
X0824575Y0828680D01*
X0823925Y0829527D01*
X0823078Y0830177D01*
X0822092Y0830586D01*
X0821033Y0830725D01*
D02*
G37*
G36*
X0845177Y0370508D02*
X0844093Y0370366D01*
X0843082Y0369947D01*
X0842215Y0369281D01*
X0841549Y0368413D01*
X0841131Y0367403D01*
X0840988Y0366319D01*
X0841131Y0365234D01*
X0841549Y0364224D01*
X0842215Y0363356D01*
X0843082Y0362691D01*
X0844093Y0362272D01*
X0845177Y0362129D01*
X0846261Y0362272D01*
X0847272Y0362691D01*
X0848139Y0363356D01*
X0848805Y0364224D01*
X0849224Y0365234D01*
X0849366Y0366319D01*
X0849224Y0367403D01*
X0848805Y0368413D01*
X0848139Y0369281D01*
X0847272Y0369947D01*
X0846261Y0370366D01*
X0845177Y0370508D01*
D02*
G37*
G36*
X0812421Y0900703D02*
X0811388Y0900567D01*
X0810426Y0900169D01*
X0809599Y0899535D01*
X0808965Y0898708D01*
X0808566Y0897745D01*
X0808430Y0896712D01*
X0808566Y0895680D01*
X0808965Y0894717D01*
X0809599Y0893891D01*
X0810426Y0893256D01*
X0811388Y0892858D01*
X0812421Y0892722D01*
X0813454Y0892858D01*
X0814417Y0893256D01*
X0815243Y0893891D01*
X0815877Y0894717D01*
X0816276Y0895680D01*
X0816412Y0896712D01*
X0816276Y0897745D01*
X0815877Y0898708D01*
X0815243Y0899535D01*
X0814417Y0900169D01*
X0813454Y0900567D01*
X0812421Y0900703D01*
D02*
G37*
G36*
X0802421D02*
X0801388Y0900567D01*
X0800426Y0900169D01*
X0799599Y0899535D01*
X0798965Y0898708D01*
X0798566Y0897745D01*
X0798430Y0896712D01*
X0798566Y0895680D01*
X0798965Y0894717D01*
X0799599Y0893891D01*
X0800426Y0893256D01*
X0801388Y0892858D01*
X0802421Y0892722D01*
X0803454Y0892858D01*
X0804417Y0893256D01*
X0805243Y0893891D01*
X0805877Y0894717D01*
X0806276Y0895680D01*
X0806412Y0896712D01*
X0806276Y0897745D01*
X0805877Y0898708D01*
X0805243Y0899535D01*
X0804417Y0900169D01*
X0803454Y0900567D01*
X0802421Y0900703D01*
D02*
G37*
G36*
X0822421D02*
X0821388Y0900567D01*
X0820426Y0900169D01*
X0819599Y0899535D01*
X0818965Y0898708D01*
X0818566Y0897745D01*
X0818430Y0896712D01*
X0818566Y0895680D01*
X0818965Y0894717D01*
X0819599Y0893891D01*
X0820426Y0893256D01*
X0821388Y0892858D01*
X0822421Y0892722D01*
X0823454Y0892858D01*
X0824417Y0893256D01*
X0825243Y0893891D01*
X0825877Y0894717D01*
X0826276Y0895680D01*
X0826412Y0896712D01*
X0826276Y0897745D01*
X0825877Y0898708D01*
X0825243Y0899535D01*
X0824417Y0900169D01*
X0823454Y0900567D01*
X0822421Y0900703D01*
D02*
G37*
G36*
X0832421Y0910703D02*
X0831388Y0910567D01*
X0830426Y0910169D01*
X0829599Y0909534D01*
X0828965Y0908708D01*
X0828566Y0907745D01*
X0828430Y0906713D01*
X0828566Y0905680D01*
X0828965Y0904717D01*
X0829599Y0903891D01*
X0830426Y0903256D01*
X0831388Y0902858D01*
X0832421Y0902722D01*
X0833454Y0902858D01*
X0834417Y0903256D01*
X0835243Y0903891D01*
X0835877Y0904717D01*
X0836276Y0905680D01*
X0836412Y0906713D01*
X0836276Y0907745D01*
X0835877Y0908708D01*
X0835243Y0909534D01*
X0834417Y0910169D01*
X0833454Y0910567D01*
X0832421Y0910703D01*
D02*
G37*
G36*
Y0900703D02*
X0831388Y0900567D01*
X0830426Y0900169D01*
X0829599Y0899535D01*
X0828965Y0898708D01*
X0828566Y0897745D01*
X0828430Y0896712D01*
X0828566Y0895680D01*
X0828965Y0894717D01*
X0829599Y0893891D01*
X0830426Y0893256D01*
X0831388Y0892858D01*
X0832421Y0892722D01*
X0833454Y0892858D01*
X0834417Y0893256D01*
X0835243Y0893891D01*
X0835877Y0894717D01*
X0836276Y0895680D01*
X0836412Y0896712D01*
X0836276Y0897745D01*
X0835877Y0898708D01*
X0835243Y0899535D01*
X0834417Y0900169D01*
X0833454Y0900567D01*
X0832421Y0900703D01*
D02*
G37*
G36*
X0809540Y0878424D02*
X0809040Y0878424D01*
X0799640D01*
Y0868542D01*
X0809040D01*
X0809522Y0868542D01*
X0810022Y0868542D01*
X0818445D01*
X0818755Y0868097D01*
X0818754Y0868042D01*
X0817944Y0867421D01*
X0817294Y0866574D01*
X0816885Y0865588D01*
X0816746Y0864529D01*
X0816885Y0863470D01*
X0817294Y0862484D01*
X0817944Y0861637D01*
X0818791Y0860987D01*
X0819778Y0860578D01*
X0820836Y0860439D01*
X0821895Y0860578D01*
X0822881Y0860987D01*
X0823728Y0861637D01*
X0824378Y0862484D01*
X0824787Y0863470D01*
X0824926Y0864529D01*
X0824787Y0865588D01*
X0824378Y0866574D01*
X0823728Y0867421D01*
X0822881Y0868071D01*
X0821895Y0868480D01*
X0820836Y0868619D01*
X0819903Y0868496D01*
X0819565Y0868715D01*
X0819422Y0868874D01*
Y0878424D01*
X0810022D01*
X0809540Y0878424D01*
D02*
G37*
G36*
X0868622Y0865924D02*
X0858740D01*
Y0856042D01*
X0868622D01*
Y0865924D01*
D02*
G37*
G36*
X0796281Y0868076D02*
X0795299Y0867947D01*
X0794385Y0867568D01*
X0793600Y0866965D01*
X0792997Y0866180D01*
X0792618Y0865265D01*
X0792489Y0864283D01*
X0792618Y0863302D01*
X0792997Y0862387D01*
X0793600Y0861602D01*
X0794385Y0860999D01*
X0795299Y0860620D01*
X0796281Y0860491D01*
X0797263Y0860620D01*
X0798177Y0860999D01*
X0798963Y0861602D01*
X0799565Y0862387D01*
X0799944Y0863302D01*
X0800073Y0864283D01*
X0799944Y0865265D01*
X0799565Y0866180D01*
X0798963Y0866965D01*
X0798177Y0867568D01*
X0797263Y0867947D01*
X0796281Y0868076D01*
D02*
G37*
G36*
X0888322Y0878424D02*
X0878440D01*
Y0868542D01*
X0888322D01*
Y0878424D01*
D02*
G37*
G36*
X0839040Y0878424D02*
X0838540Y0878424D01*
X0829140D01*
Y0868542D01*
X0838540D01*
X0839022Y0868542D01*
X0839522Y0868542D01*
X0858764D01*
Y0878424D01*
X0839522D01*
X0839040Y0878424D01*
D02*
G37*
%LPD*%
D11*
X0773303Y0856886D02*
G03*
X0770374Y0849815I0007071J-0007071D01*
G01*
X0801682Y0881122D02*
G03*
X0794610Y0878193I0000000J-0010000D01*
G01*
X0800107Y0883484D02*
G03*
X0793036Y0880555I0000000J-0010000D01*
G01*
X0770941Y0858460D02*
G03*
X0768012Y0851389I0007071J-0007071D01*
G01*
X0798138Y0886240D02*
G03*
X0791067Y0883311I0000000J-0010000D01*
G01*
X0768578Y0860823D02*
G03*
X0765650Y0853751I0007071J-0007071D01*
G01*
X0796170Y0888602D02*
G03*
X0789099Y0885673I0000000J-0010000D01*
G01*
X0766216Y0862791D02*
G03*
X0763287Y0855720I0007071J-0007071D01*
G01*
X0770374Y0711248D02*
G03*
X0773303Y0704177I0010000J0000000D01*
G01*
X0768012Y0710067D02*
G03*
X0770941Y0702996I0010000J0000000D01*
G01*
X0765650Y0708493D02*
G03*
X0768578Y0701421I0010000J0000000D01*
G01*
X0763287Y0706918D02*
G03*
X0766216Y0699847I0010000J0000000D01*
G01*
X0865650Y0607689D02*
G03*
X0862721Y0614760I-0010000J0000000D01*
G01*
X0863287Y0606790D02*
G03*
X0860559Y0613378I-0009317J0000000D01*
G01*
X0860925Y0605609D02*
G03*
X0858475Y0611525I-0008367J0000000D01*
G01*
X0858563Y0604428D02*
G03*
X0856391Y0609672I-0007416J0000000D01*
G01*
X0872027Y0906083D02*
G03*
X0872185Y0905925I0000158J0000000D01*
G01*
X0862421Y0906713D02*
X0867539Y0901594D01*
X0798138Y0886240D02*
X0854626D01*
X0852421Y0906713D02*
X0857382Y0901752D01*
Y0888996D02*
Y0901752D01*
X0854626Y0886240D02*
X0857382Y0888996D01*
X0842421Y0906713D02*
X0847539Y0901594D01*
Y0890571D02*
Y0901594D01*
X0845571Y0888602D02*
X0847539Y0890571D01*
X0796170Y0888602D02*
X0845571D01*
X0770374Y0711248D02*
Y0849815D01*
X0773303Y0856886D02*
X0794610Y0878193D01*
X0770941Y0858460D02*
X0793036Y0880555D01*
X0768012Y0710067D02*
Y0851389D01*
X0768578Y0860823D02*
X0791067Y0883311D01*
X0765650Y0708493D02*
Y0853751D01*
X0766216Y0862791D02*
X0789099Y0885673D01*
X0763287Y0706918D02*
Y0855720D01*
X0773303Y0704177D02*
X0862721Y0614760D01*
X0768578Y0701421D02*
X0858475Y0611525D01*
X0766216Y0699847D02*
X0856391Y0609672D01*
X0865650Y0361043D02*
Y0607689D01*
X0863287Y0360256D02*
Y0606790D01*
X0770941Y0702996D02*
X0860559Y0613378D01*
X0860925Y0359075D02*
Y0605609D01*
X0822027Y0906083D02*
Y0907028D01*
X0881398Y0353169D02*
X0882579D01*
X0877854Y0356713D02*
X0881398Y0353169D01*
X0875098Y0354350D02*
X0878642Y0350807D01*
X0869980Y0356713D02*
X0877854D01*
X0869193Y0354350D02*
X0875098D01*
X0873524Y0350413D02*
X0873917D01*
X0871949Y0351988D02*
X0873524Y0350413D01*
X0868012Y0351988D02*
X0871949D01*
X0860138Y0340571D02*
X0881841D01*
X0858563Y0342146D02*
Y0604428D01*
X0865650Y0361043D02*
X0869980Y0356713D01*
X0863287Y0360256D02*
X0869193Y0354350D01*
X0860925Y0359075D02*
X0868012Y0351988D01*
X0858563Y0342146D02*
X0860138Y0340571D01*
X0858957Y0336634D02*
X0863681D01*
X0855413Y0340177D02*
X0858957Y0336634D01*
X0855413Y0340177D02*
Y0386240D01*
X0785335Y0887815D02*
X0787205Y0889685D01*
Y0902283D01*
X0791634Y0906713D01*
X0792421D01*
X0773524Y0902480D02*
Y0906220D01*
X0800107Y0883484D02*
X0864075D01*
X0867539Y0886949D01*
Y0901594D01*
X0801682Y0881122D02*
X0869488D01*
X0877461Y0889094D01*
Y0901673D01*
X0872421Y0906713D02*
X0877461Y0901673D01*
X0773524Y0906220D02*
X0779035Y0911732D01*
X0806378D01*
X0812027Y0906083D01*
X0769882Y0906909D02*
X0776772Y0913799D01*
X0815256D01*
X0822027Y0907028D01*
D14*
X0845177Y0333484D02*
D03*
D15*
X0913878Y0354547D02*
D03*
X0845177Y0366319D02*
D03*
D16*
X0913878Y0344547D02*
D03*
X0845177Y0356319D02*
D03*
D17*
X0796281Y0826483D02*
D03*
Y0864283D02*
D03*
Y0845381D02*
D03*
D18*
X0853824Y0873483D02*
D03*
X0824281Y0817383D02*
D03*
X0863681D02*
D03*
X0834081D02*
D03*
X0852581D02*
D03*
X0863681Y0839783D02*
D03*
Y0860983D02*
D03*
X0883381Y0873483D02*
D03*
X0843981D02*
D03*
X0834081D02*
D03*
X0814481D02*
D03*
X0804581D02*
D03*
X0814481Y0817383D02*
D03*
D19*
X0821033Y0826635D02*
D03*
X0820836Y0864529D02*
D03*
X0901525Y0349232D02*
D03*
X0863632Y0349035D02*
D03*
D20*
X0792421Y0896712D02*
D03*
D21*
X0802421D02*
D03*
X0812421D02*
D03*
X0822421D02*
D03*
X0832421D02*
D03*
X0842421D02*
D03*
X0852421D02*
D03*
X0862421D02*
D03*
X0872421D02*
D03*
X0792421Y0906713D02*
D03*
X0802421D02*
D03*
X0812421D02*
D03*
X0822421D02*
D03*
X0832421D02*
D03*
X0842421D02*
D03*
X0852421D02*
D03*
X0862421D02*
D03*
X0872421D02*
D03*
X0782421D02*
D03*
X0882421D02*
D03*
D22*
X0782421Y0896712D02*
D03*
X0882421D02*
D03*
D23*
X0797543Y0839359D02*
D03*
X0794181D02*
D03*
X0790819D02*
D03*
X0787520Y0838710D02*
D03*
X0784729Y0836835D02*
D03*
X0784724Y0730257D02*
D03*
X0786752Y0727575D02*
D03*
X0789126Y0725195D02*
D03*
X0791504Y0722818D02*
D03*
X0793881Y0720440D02*
D03*
X0796259Y0718063D02*
D03*
X0798636Y0715686D02*
D03*
X0801013Y0713308D02*
D03*
X0803391Y0710931D02*
D03*
X0805768Y0708553D02*
D03*
X0808146Y0706176D02*
D03*
X0810523Y0703798D02*
D03*
X0812901Y0701421D02*
D03*
X0815278Y0699044D02*
D03*
X0817656Y0696666D02*
D03*
X0820033Y0694289D02*
D03*
X0822410Y0691911D02*
D03*
X0824788Y0689534D02*
D03*
X0827165Y0687156D02*
D03*
X0829543Y0684779D02*
D03*
X0831920Y0682402D02*
D03*
X0834298Y0680024D02*
D03*
X0836675Y0677647D02*
D03*
X0839052Y0675269D02*
D03*
X0841430Y0672892D02*
D03*
X0843807Y0670514D02*
D03*
X0846185Y0668137D02*
D03*
X0848562Y0665759D02*
D03*
X0850940Y0663382D02*
D03*
X0853317Y0661005D02*
D03*
X0855694Y0658627D02*
D03*
X0858072Y0656250D02*
D03*
X0860449Y0653872D02*
D03*
X0862827Y0651495D02*
D03*
X0865204Y0649117D02*
D03*
X0867582Y0646740D02*
D03*
X0869959Y0644362D02*
D03*
X0872337Y0641985D02*
D03*
X0874714Y0639608D02*
D03*
X0877091Y0637230D02*
D03*
X0879469Y0634853D02*
D03*
X0881846Y0632475D02*
D03*
X0884192Y0630067D02*
D03*
X0886028Y0627250D02*
D03*
X0886931Y0624011D02*
D03*
X0887029Y0620650D02*
D03*
Y0617288D02*
D03*
Y0613926D02*
D03*
Y0610564D02*
D03*
Y0607202D02*
D03*
Y0603839D02*
D03*
Y0600477D02*
D03*
Y0597115D02*
D03*
Y0593753D02*
D03*
Y0590391D02*
D03*
Y0587029D02*
D03*
Y0583666D02*
D03*
Y0580304D02*
D03*
Y0576942D02*
D03*
Y0573580D02*
D03*
Y0570218D02*
D03*
Y0566855D02*
D03*
Y0563493D02*
D03*
Y0560131D02*
D03*
Y0556769D02*
D03*
Y0553406D02*
D03*
Y0550044D02*
D03*
Y0546682D02*
D03*
Y0543320D02*
D03*
Y0539958D02*
D03*
Y0536595D02*
D03*
Y0533233D02*
D03*
Y0529871D02*
D03*
Y0526509D02*
D03*
Y0523147D02*
D03*
Y0519784D02*
D03*
Y0516422D02*
D03*
Y0513060D02*
D03*
Y0509698D02*
D03*
Y0506336D02*
D03*
Y0502974D02*
D03*
Y0499611D02*
D03*
Y0496249D02*
D03*
Y0492887D02*
D03*
Y0489525D02*
D03*
Y0486163D02*
D03*
Y0482800D02*
D03*
Y0479438D02*
D03*
Y0476076D02*
D03*
Y0472714D02*
D03*
Y0469351D02*
D03*
Y0465989D02*
D03*
Y0462627D02*
D03*
Y0459265D02*
D03*
Y0455903D02*
D03*
Y0452540D02*
D03*
Y0449178D02*
D03*
Y0445816D02*
D03*
Y0442454D02*
D03*
Y0439092D02*
D03*
Y0435730D02*
D03*
Y0432367D02*
D03*
Y0429005D02*
D03*
Y0425643D02*
D03*
Y0422281D02*
D03*
Y0418919D02*
D03*
Y0415556D02*
D03*
Y0412194D02*
D03*
Y0408832D02*
D03*
Y0405470D02*
D03*
Y0402107D02*
D03*
Y0398745D02*
D03*
Y0395383D02*
D03*
Y0392021D02*
D03*
Y0388659D02*
D03*
Y0385297D02*
D03*
Y0381934D02*
D03*
Y0378572D02*
D03*
Y0375210D02*
D03*
Y0371848D02*
D03*
X0888667Y0359226D02*
D03*
X0892029Y0359213D02*
D03*
X0895338Y0359809D02*
D03*
X0895550Y0373149D02*
D03*
Y0376511D02*
D03*
Y0379873D02*
D03*
Y0383235D02*
D03*
Y0386597D02*
D03*
Y0389960D02*
D03*
Y0393322D02*
D03*
Y0396684D02*
D03*
Y0400046D02*
D03*
Y0403408D02*
D03*
Y0406771D02*
D03*
Y0410133D02*
D03*
Y0413495D02*
D03*
Y0416857D02*
D03*
Y0420219D02*
D03*
Y0423582D02*
D03*
Y0426944D02*
D03*
Y0430306D02*
D03*
Y0433668D02*
D03*
Y0437030D02*
D03*
Y0440393D02*
D03*
Y0443755D02*
D03*
Y0447117D02*
D03*
Y0450479D02*
D03*
Y0453841D02*
D03*
Y0457204D02*
D03*
Y0460566D02*
D03*
Y0463928D02*
D03*
Y0467290D02*
D03*
Y0470652D02*
D03*
Y0474015D02*
D03*
Y0477377D02*
D03*
Y0480739D02*
D03*
Y0484101D02*
D03*
Y0487463D02*
D03*
Y0490826D02*
D03*
Y0494188D02*
D03*
Y0497550D02*
D03*
Y0500912D02*
D03*
Y0504274D02*
D03*
Y0507637D02*
D03*
Y0510999D02*
D03*
Y0514361D02*
D03*
Y0517723D02*
D03*
Y0521085D02*
D03*
Y0524448D02*
D03*
Y0527810D02*
D03*
Y0531172D02*
D03*
Y0534534D02*
D03*
Y0537896D02*
D03*
Y0541259D02*
D03*
Y0544621D02*
D03*
Y0547983D02*
D03*
Y0551345D02*
D03*
Y0554707D02*
D03*
Y0558070D02*
D03*
Y0561432D02*
D03*
Y0564794D02*
D03*
Y0568156D02*
D03*
Y0571518D02*
D03*
Y0574881D02*
D03*
Y0578243D02*
D03*
Y0581605D02*
D03*
Y0584967D02*
D03*
Y0588329D02*
D03*
Y0591692D02*
D03*
Y0595054D02*
D03*
Y0598416D02*
D03*
Y0601778D02*
D03*
Y0605140D02*
D03*
Y0608503D02*
D03*
Y0611865D02*
D03*
Y0615227D02*
D03*
Y0618589D02*
D03*
Y0621951D02*
D03*
Y0625314D02*
D03*
X0895179Y0628655D02*
D03*
X0893925Y0631775D02*
D03*
X0891927Y0634479D02*
D03*
X0889533Y0636839D02*
D03*
X0887155Y0639217D02*
D03*
X0884778Y0641594D02*
D03*
X0882400Y0643972D02*
D03*
X0880023Y0646349D02*
D03*
X0877645Y0648727D02*
D03*
X0875268Y0651104D02*
D03*
X0872891Y0653481D02*
D03*
X0870513Y0655859D02*
D03*
X0868136Y0658236D02*
D03*
X0865758Y0660614D02*
D03*
X0863381Y0662991D02*
D03*
X0861003Y0665369D02*
D03*
X0858626Y0667746D02*
D03*
X0856248Y0670123D02*
D03*
X0853871Y0672501D02*
D03*
X0851494Y0674878D02*
D03*
X0849116Y0677256D02*
D03*
X0846739Y0679633D02*
D03*
X0844361Y0682011D02*
D03*
X0841984Y0684388D02*
D03*
X0839606Y0686765D02*
D03*
X0837229Y0689143D02*
D03*
X0834852Y0691520D02*
D03*
X0832474Y0693898D02*
D03*
X0830097Y0696275D02*
D03*
X0827719Y0698653D02*
D03*
X0825342Y0701030D02*
D03*
X0822964Y0703407D02*
D03*
X0820587Y0705785D02*
D03*
X0818210Y0708162D02*
D03*
X0815832Y0710540D02*
D03*
X0813455Y0712917D02*
D03*
X0811077Y0715295D02*
D03*
X0808700Y0717672D02*
D03*
X0806322Y0720049D02*
D03*
X0803945Y0722427D02*
D03*
X0801567Y0724804D02*
D03*
X0799190Y0727182D02*
D03*
X0796813Y0729559D02*
D03*
X0794435Y0731937D02*
D03*
X0792155Y0734408D02*
D03*
X0790971Y0737554D02*
D03*
X0790873Y0740915D02*
D03*
Y0744277D02*
D03*
Y0747640D02*
D03*
Y0751002D02*
D03*
Y0754364D02*
D03*
Y0757726D02*
D03*
Y0761088D02*
D03*
Y0764451D02*
D03*
Y0767813D02*
D03*
Y0771175D02*
D03*
Y0774537D02*
D03*
Y0777899D02*
D03*
Y0781262D02*
D03*
Y0784624D02*
D03*
Y0787986D02*
D03*
Y0791348D02*
D03*
Y0794710D02*
D03*
Y0798073D02*
D03*
Y0801435D02*
D03*
Y0804797D02*
D03*
Y0808159D02*
D03*
Y0811521D02*
D03*
Y0814884D02*
D03*
Y0818246D02*
D03*
Y0821608D02*
D03*
Y0824970D02*
D03*
Y0828332D02*
D03*
X0792571Y0831235D02*
D03*
X0795933D02*
D03*
X0799295D02*
D03*
X0811052Y0833479D02*
D03*
Y0836841D02*
D03*
X0784559Y0718092D02*
D03*
X0782897Y0707704D02*
D03*
X0780519Y0710082D02*
D03*
X0785274Y0705327D02*
D03*
X0796331Y0858455D02*
D03*
X0792969D02*
D03*
X0789607D02*
D03*
X0786244D02*
D03*
X0782902Y0858092D02*
D03*
X0779781Y0856842D02*
D03*
X0777085Y0854832D02*
D03*
X0775053Y0852154D02*
D03*
X0773786Y0849039D02*
D03*
X0773396Y0845700D02*
D03*
Y0842338D02*
D03*
Y0838975D02*
D03*
Y0835613D02*
D03*
Y0832251D02*
D03*
Y0828889D02*
D03*
Y0825527D02*
D03*
Y0822164D02*
D03*
Y0818802D02*
D03*
Y0815440D02*
D03*
Y0812078D02*
D03*
Y0808716D02*
D03*
Y0805353D02*
D03*
Y0801991D02*
D03*
Y0798629D02*
D03*
Y0795267D02*
D03*
Y0791905D02*
D03*
Y0788542D02*
D03*
Y0785180D02*
D03*
Y0781818D02*
D03*
Y0778456D02*
D03*
Y0775094D02*
D03*
Y0771731D02*
D03*
Y0768369D02*
D03*
Y0765007D02*
D03*
Y0761645D02*
D03*
Y0758283D02*
D03*
Y0754920D02*
D03*
Y0751558D02*
D03*
Y0748196D02*
D03*
Y0744834D02*
D03*
Y0741472D02*
D03*
Y0738109D02*
D03*
Y0734747D02*
D03*
Y0731385D02*
D03*
Y0728023D02*
D03*
Y0724661D02*
D03*
X0773599Y0721305D02*
D03*
X0774492Y0718063D02*
D03*
X0776026Y0715071D02*
D03*
X0778136Y0712453D02*
D03*
X0787651Y0702950D02*
D03*
X0790029Y0700572D02*
D03*
X0792406Y0698195D02*
D03*
X0794784Y0695817D02*
D03*
X0797161Y0693440D02*
D03*
X0799539Y0691062D02*
D03*
X0801916Y0688685D02*
D03*
X0804294Y0686308D02*
D03*
X0806671Y0683930D02*
D03*
X0809048Y0681553D02*
D03*
X0811426Y0679175D02*
D03*
X0813803Y0676798D02*
D03*
X0816181Y0674420D02*
D03*
X0818558Y0672043D02*
D03*
X0820936Y0669666D02*
D03*
X0823313Y0667288D02*
D03*
X0825690Y0664911D02*
D03*
X0828068Y0662533D02*
D03*
X0830445Y0660156D02*
D03*
X0832823Y0657778D02*
D03*
X0835200Y0655401D02*
D03*
X0837578Y0653023D02*
D03*
X0839955Y0650646D02*
D03*
X0842332Y0648269D02*
D03*
X0844710Y0645891D02*
D03*
X0847087Y0643514D02*
D03*
X0849465Y0641136D02*
D03*
X0851842Y0638759D02*
D03*
X0854220Y0636381D02*
D03*
X0856597Y0634004D02*
D03*
X0858975Y0631627D02*
D03*
X0861352Y0629249D02*
D03*
X0863729Y0626872D02*
D03*
X0866094Y0624481D02*
D03*
X0867768Y0621566D02*
D03*
X0868131Y0618223D02*
D03*
Y0614861D02*
D03*
Y0611499D02*
D03*
Y0608137D02*
D03*
Y0604775D02*
D03*
Y0601412D02*
D03*
Y0598050D02*
D03*
Y0594688D02*
D03*
Y0591326D02*
D03*
Y0587963D02*
D03*
Y0584601D02*
D03*
Y0581239D02*
D03*
Y0577877D02*
D03*
Y0574515D02*
D03*
Y0571152D02*
D03*
Y0567790D02*
D03*
Y0564428D02*
D03*
Y0561066D02*
D03*
Y0557704D02*
D03*
Y0554342D02*
D03*
Y0550979D02*
D03*
Y0547617D02*
D03*
Y0544255D02*
D03*
Y0540893D02*
D03*
Y0537531D02*
D03*
Y0534168D02*
D03*
Y0530806D02*
D03*
Y0527444D02*
D03*
Y0524082D02*
D03*
Y0520719D02*
D03*
Y0517357D02*
D03*
Y0513995D02*
D03*
Y0510633D02*
D03*
Y0507271D02*
D03*
Y0503908D02*
D03*
Y0500546D02*
D03*
Y0497184D02*
D03*
Y0493822D02*
D03*
Y0490460D02*
D03*
Y0487098D02*
D03*
Y0483735D02*
D03*
Y0480373D02*
D03*
Y0477011D02*
D03*
Y0473649D02*
D03*
Y0470287D02*
D03*
Y0466924D02*
D03*
Y0463562D02*
D03*
Y0460200D02*
D03*
Y0456838D02*
D03*
Y0453476D02*
D03*
Y0450113D02*
D03*
Y0446751D02*
D03*
Y0443389D02*
D03*
Y0440027D02*
D03*
Y0436664D02*
D03*
Y0433302D02*
D03*
Y0429940D02*
D03*
Y0426578D02*
D03*
Y0423216D02*
D03*
Y0419853D02*
D03*
Y0416491D02*
D03*
Y0413129D02*
D03*
Y0409767D02*
D03*
Y0406405D02*
D03*
Y0403043D02*
D03*
Y0399680D02*
D03*
Y0396318D02*
D03*
Y0392956D02*
D03*
Y0389594D02*
D03*
Y0386231D02*
D03*
Y0382869D02*
D03*
Y0379507D02*
D03*
Y0376145D02*
D03*
Y0372783D02*
D03*
X0872067Y0359266D02*
D03*
X0875429Y0359308D02*
D03*
X0876652Y0372228D02*
D03*
Y0375590D02*
D03*
Y0378952D02*
D03*
Y0382314D02*
D03*
Y0385677D02*
D03*
Y0389039D02*
D03*
Y0392401D02*
D03*
Y0395763D02*
D03*
Y0399125D02*
D03*
Y0402488D02*
D03*
Y0405850D02*
D03*
Y0409212D02*
D03*
Y0412574D02*
D03*
Y0415936D02*
D03*
Y0419299D02*
D03*
Y0422661D02*
D03*
Y0426023D02*
D03*
Y0429385D02*
D03*
Y0432747D02*
D03*
Y0436110D02*
D03*
Y0439472D02*
D03*
Y0442834D02*
D03*
Y0446196D02*
D03*
Y0449558D02*
D03*
Y0452921D02*
D03*
Y0456283D02*
D03*
Y0459645D02*
D03*
Y0463007D02*
D03*
Y0466369D02*
D03*
Y0469732D02*
D03*
Y0473094D02*
D03*
Y0476456D02*
D03*
Y0479818D02*
D03*
Y0483180D02*
D03*
Y0486543D02*
D03*
Y0489905D02*
D03*
Y0493267D02*
D03*
Y0496629D02*
D03*
Y0499991D02*
D03*
Y0503354D02*
D03*
Y0506716D02*
D03*
Y0510078D02*
D03*
Y0513440D02*
D03*
Y0516802D02*
D03*
Y0520165D02*
D03*
Y0523527D02*
D03*
Y0526889D02*
D03*
Y0530251D02*
D03*
Y0533613D02*
D03*
Y0536976D02*
D03*
Y0540338D02*
D03*
Y0543700D02*
D03*
Y0547062D02*
D03*
Y0550424D02*
D03*
Y0553787D02*
D03*
Y0557149D02*
D03*
Y0560511D02*
D03*
Y0563873D02*
D03*
Y0567235D02*
D03*
Y0570598D02*
D03*
Y0573960D02*
D03*
Y0577322D02*
D03*
Y0580684D02*
D03*
Y0584046D02*
D03*
Y0587409D02*
D03*
Y0590771D02*
D03*
Y0594133D02*
D03*
Y0597495D02*
D03*
Y0600857D02*
D03*
Y0604220D02*
D03*
Y0607582D02*
D03*
Y0610944D02*
D03*
Y0614306D02*
D03*
Y0617668D02*
D03*
X0876550Y0621029D02*
D03*
X0875861Y0624320D02*
D03*
X0874480Y0627386D02*
D03*
X0872501Y0630103D02*
D03*
X0870147Y0632504D02*
D03*
X0867770Y0634882D02*
D03*
X0865392Y0637259D02*
D03*
X0863015Y0639637D02*
D03*
X0860637Y0642014D02*
D03*
X0858260Y0644391D02*
D03*
X0855883Y0646769D02*
D03*
X0853505Y0649146D02*
D03*
X0851128Y0651524D02*
D03*
X0848750Y0653901D02*
D03*
X0846373Y0656279D02*
D03*
X0843995Y0658656D02*
D03*
X0841618Y0661033D02*
D03*
X0839240Y0663411D02*
D03*
X0836863Y0665788D02*
D03*
X0834486Y0668166D02*
D03*
X0832108Y0670543D02*
D03*
X0829731Y0672921D02*
D03*
X0827353Y0675298D02*
D03*
X0824976Y0677676D02*
D03*
X0822598Y0680053D02*
D03*
X0820221Y0682430D02*
D03*
X0817844Y0684808D02*
D03*
X0815466Y0687185D02*
D03*
X0813089Y0689563D02*
D03*
X0810711Y0691940D02*
D03*
X0808334Y0694318D02*
D03*
X0805956Y0696695D02*
D03*
X0803579Y0699073D02*
D03*
X0801202Y0701450D02*
D03*
X0798824Y0703827D02*
D03*
X0796447Y0706205D02*
D03*
X0794069Y0708582D02*
D03*
X0791692Y0710960D02*
D03*
X0789314Y0713337D02*
D03*
X0786937Y0715715D02*
D03*
X0782571Y0720803D02*
D03*
X0781917Y0724101D02*
D03*
Y0727463D02*
D03*
Y0730826D02*
D03*
Y0734188D02*
D03*
Y0737550D02*
D03*
Y0740912D02*
D03*
Y0744274D02*
D03*
Y0747637D02*
D03*
Y0750999D02*
D03*
Y0754361D02*
D03*
Y0757723D02*
D03*
Y0761085D02*
D03*
Y0764447D02*
D03*
Y0767810D02*
D03*
Y0771172D02*
D03*
Y0774534D02*
D03*
Y0777896D02*
D03*
Y0781258D02*
D03*
Y0784621D02*
D03*
Y0787983D02*
D03*
Y0791345D02*
D03*
Y0794707D02*
D03*
Y0798069D02*
D03*
Y0801432D02*
D03*
Y0804794D02*
D03*
Y0808156D02*
D03*
Y0811518D02*
D03*
Y0814880D02*
D03*
Y0818243D02*
D03*
Y0821605D02*
D03*
Y0824967D02*
D03*
Y0828329D02*
D03*
Y0831691D02*
D03*
Y0835054D02*
D03*
Y0838416D02*
D03*
Y0841778D02*
D03*
Y0845140D02*
D03*
X0782814Y0848381D02*
D03*
X0785809Y0849908D02*
D03*
X0789171Y0849934D02*
D03*
X0792533D02*
D03*
X0795895D02*
D03*
X0799258D02*
D03*
X0811052Y0852377D02*
D03*
Y0855739D02*
D03*
X0769882Y0906909D02*
D03*
X0756000Y0812000D02*
D03*
Y0826000D02*
D03*
Y0840000D02*
D03*
Y0854000D02*
D03*
Y0868000D02*
D03*
Y0882000D02*
D03*
Y0896000D02*
D03*
X0759500Y0903000D02*
D03*
X0756000Y0910000D02*
D03*
X0766500Y0889000D02*
D03*
X0763000Y0910000D02*
D03*
X0770000Y0896000D02*
D03*
X0787500Y0847000D02*
D03*
X0791000Y0868000D02*
D03*
X0798000Y0812000D02*
D03*
X0801500Y0819000D02*
D03*
X0805000Y0812000D02*
D03*
Y0826000D02*
D03*
X0812000D02*
D03*
X0815500Y0833000D02*
D03*
X0822500D02*
D03*
X0819000Y0840000D02*
D03*
X0829500Y0833000D02*
D03*
X0826000Y0840000D02*
D03*
X0829500Y0847000D02*
D03*
X0833000Y0826000D02*
D03*
X0836500Y0903000D02*
D03*
X0843500Y0819000D02*
D03*
X0840000Y0826000D02*
D03*
X0843500Y0861000D02*
D03*
X0847000Y0826000D02*
D03*
Y0910000D02*
D03*
X0854000Y0840000D02*
D03*
Y0854000D02*
D03*
X0857500Y0861000D02*
D03*
X0861000Y0854000D02*
D03*
X0871500Y0819000D02*
D03*
X0868000Y0910000D02*
D03*
X0878500Y0819000D02*
D03*
X0885500D02*
D03*
X0882000Y0826000D02*
D03*
Y0840000D02*
D03*
X0885500Y0847000D02*
D03*
X0882000Y0854000D02*
D03*
X0885500Y0861000D02*
D03*
Y0889000D02*
D03*
Y0903000D02*
D03*
X0889000Y0826000D02*
D03*
Y0896000D02*
D03*
Y0910000D02*
D03*
X0843504Y0865866D02*
D03*
X0849213Y0865374D02*
D03*
D24*
X0856201Y0386240D02*
D03*
X0882579Y0353169D02*
D03*
X0878642Y0350807D02*
D03*
X0873917Y0350413D02*
D03*
X0881841Y0340571D02*
D03*
X0863681Y0336634D02*
D03*
X0785335Y0887815D02*
D03*
X0773524Y0902480D02*
D03*
M02*
